G04 #@! TF.GenerationSoftware,KiCad,Pcbnew,5.1.7-a382d34a8~87~ubuntu20.04.1*
G04 #@! TF.CreationDate,2020-11-15T14:28:19+09:00*
G04 #@! TF.ProjectId,adapter-panel,61646170-7465-4722-9d70-616e656c2e6b,rev?*
G04 #@! TF.SameCoordinates,Original*
G04 #@! TF.FileFunction,Copper,L1,Top*
G04 #@! TF.FilePolarity,Positive*
%FSLAX46Y46*%
G04 Gerber Fmt 4.6, Leading zero omitted, Abs format (unit mm)*
G04 Created by KiCad (PCBNEW 5.1.7-a382d34a8~87~ubuntu20.04.1) date 2020-11-15 14:28:19*
%MOMM*%
%LPD*%
G01*
G04 APERTURE LIST*
G04 #@! TA.AperFunction,ComponentPad*
%ADD10C,1.700000*%
G04 #@! TD*
G04 #@! TA.AperFunction,ComponentPad*
%ADD11C,3.200000*%
G04 #@! TD*
G04 #@! TA.AperFunction,ComponentPad*
%ADD12R,1.600000X1.600000*%
G04 #@! TD*
G04 #@! TA.AperFunction,ComponentPad*
%ADD13C,1.600000*%
G04 #@! TD*
G04 #@! TA.AperFunction,Conductor*
%ADD14C,0.508000*%
G04 #@! TD*
G04 APERTURE END LIST*
D10*
G04 #@! TO.P,J1,1*
G04 #@! TO.N,Board_4-/DIO1*
X101420000Y-150775033D03*
D11*
G04 #@! TO.P,J1,25*
G04 #@! TO.N,N/C*
X112940000Y-148630033D03*
G04 #@! TO.P,J1,26*
X66140000Y-148630033D03*
D10*
G04 #@! TO.P,J1,2*
G04 #@! TO.N,Board_4-/DIO2*
X99260000Y-150775033D03*
G04 #@! TO.P,J1,3*
G04 #@! TO.N,Board_4-/DIO3*
X97100000Y-150775033D03*
G04 #@! TO.P,J1,4*
G04 #@! TO.N,Board_4-/DIO4*
X94940000Y-150775033D03*
G04 #@! TO.P,J1,5*
G04 #@! TO.N,Board_4-/EOI*
X92780000Y-150775033D03*
G04 #@! TO.P,J1,6*
G04 #@! TO.N,Board_4-/DAV*
X90620000Y-150775033D03*
G04 #@! TO.P,J1,7*
G04 #@! TO.N,Board_4-/NRFD*
X88460000Y-150775033D03*
G04 #@! TO.P,J1,8*
G04 #@! TO.N,Board_4-/NDAC*
X86300000Y-150775033D03*
G04 #@! TO.P,J1,9*
G04 #@! TO.N,Board_4-/IFC*
X84140000Y-150775033D03*
G04 #@! TO.P,J1,10*
G04 #@! TO.N,Board_4-/SRQ*
X81980000Y-150775033D03*
G04 #@! TO.P,J1,11*
G04 #@! TO.N,Board_4-/ATN*
X79820000Y-150775033D03*
G04 #@! TO.P,J1,12*
G04 #@! TO.N,Board_4-GND*
X77660000Y-150775033D03*
G04 #@! TO.P,J1,13*
G04 #@! TO.N,Board_4-/DIO5*
X101420000Y-146485033D03*
G04 #@! TO.P,J1,14*
G04 #@! TO.N,Board_4-/DIO6*
X99260000Y-146485033D03*
G04 #@! TO.P,J1,15*
G04 #@! TO.N,Board_4-/DIO7*
X97100000Y-146485033D03*
G04 #@! TO.P,J1,16*
G04 #@! TO.N,Board_4-/DIO8*
X94940000Y-146485033D03*
G04 #@! TO.P,J1,17*
G04 #@! TO.N,Board_4-/REN*
X92780000Y-146485033D03*
G04 #@! TO.P,J1,18*
G04 #@! TO.N,Board_4-GND*
X90620000Y-146485033D03*
G04 #@! TO.P,J1,19*
X88460000Y-146485033D03*
G04 #@! TO.P,J1,20*
X86300000Y-146485033D03*
G04 #@! TO.P,J1,21*
X84140000Y-146485033D03*
G04 #@! TO.P,J1,22*
X81980000Y-146485033D03*
G04 #@! TO.P,J1,23*
X79820000Y-146485033D03*
G04 #@! TO.P,J1,24*
X77660000Y-146485033D03*
G04 #@! TD*
D12*
G04 #@! TO.P,U1,1*
G04 #@! TO.N,Board_4-Net-(U1-Pad1)*
X81093200Y-142172833D03*
D13*
G04 #@! TO.P,U1,2*
G04 #@! TO.N,Board_4-Net-(U1-Pad2)*
X83633200Y-142172833D03*
G04 #@! TO.P,U1,3*
G04 #@! TO.N,Board_4-GND*
X86173200Y-142172833D03*
G04 #@! TO.P,U1,4*
X88713200Y-142172833D03*
G04 #@! TO.P,U1,5*
G04 #@! TO.N,Board_4-/ATN*
X91253200Y-142172833D03*
G04 #@! TO.P,U1,6*
G04 #@! TO.N,Board_4-/DIO1*
X93793200Y-142172833D03*
G04 #@! TO.P,U1,7*
G04 #@! TO.N,Board_4-/IFC*
X96333200Y-142172833D03*
G04 #@! TO.P,U1,8*
G04 #@! TO.N,Board_4-/REN*
X98873200Y-142172833D03*
G04 #@! TO.P,U1,9*
G04 #@! TO.N,Board_4-/DIO8*
X101413200Y-142172833D03*
G04 #@! TO.P,U1,10*
G04 #@! TO.N,Board_4-/SRQ*
X103953200Y-142172833D03*
G04 #@! TO.P,U1,11*
G04 #@! TO.N,Board_4-/DIO5*
X106493200Y-142172833D03*
G04 #@! TO.P,U1,12*
G04 #@! TO.N,Board_4-/DIO6*
X109033200Y-142172833D03*
G04 #@! TO.P,U1,13*
G04 #@! TO.N,Board_4-/DIO7*
X109033200Y-157412833D03*
G04 #@! TO.P,U1,14*
G04 #@! TO.N,Board_4-/DIO3*
X106493200Y-157412833D03*
G04 #@! TO.P,U1,15*
G04 #@! TO.N,Board_4-/DIO4*
X103953200Y-157412833D03*
G04 #@! TO.P,U1,16*
G04 #@! TO.N,Board_4-/DIO2*
X101413200Y-157412833D03*
G04 #@! TO.P,U1,17*
G04 #@! TO.N,Board_4-/EOI*
X98873200Y-157412833D03*
G04 #@! TO.P,U1,18*
G04 #@! TO.N,Board_4-/DAV*
X96333200Y-157412833D03*
G04 #@! TO.P,U1,19*
G04 #@! TO.N,Board_4-/NRFD*
X93793200Y-157412833D03*
G04 #@! TO.P,U1,20*
G04 #@! TO.N,Board_4-/NDAC*
X91253200Y-157412833D03*
G04 #@! TO.P,U1,21*
G04 #@! TO.N,Board_4-Net-(U1-Pad21)*
X88713200Y-157412833D03*
G04 #@! TO.P,U1,22*
G04 #@! TO.N,Board_4-Net-(U1-Pad22)*
X86173200Y-157412833D03*
G04 #@! TO.P,U1,23*
G04 #@! TO.N,Board_4-GND*
X83633200Y-157412833D03*
G04 #@! TO.P,U1,24*
G04 #@! TO.N,Board_4-Net-(U1-Pad24)*
X81093200Y-157412833D03*
G04 #@! TD*
D10*
G04 #@! TO.P,J1,1*
G04 #@! TO.N,Board_3-/DIO1*
X101420000Y-125415022D03*
D11*
G04 #@! TO.P,J1,25*
G04 #@! TO.N,N/C*
X112940000Y-123270022D03*
G04 #@! TO.P,J1,26*
X66140000Y-123270022D03*
D10*
G04 #@! TO.P,J1,2*
G04 #@! TO.N,Board_3-/DIO2*
X99260000Y-125415022D03*
G04 #@! TO.P,J1,3*
G04 #@! TO.N,Board_3-/DIO3*
X97100000Y-125415022D03*
G04 #@! TO.P,J1,4*
G04 #@! TO.N,Board_3-/DIO4*
X94940000Y-125415022D03*
G04 #@! TO.P,J1,5*
G04 #@! TO.N,Board_3-/EOI*
X92780000Y-125415022D03*
G04 #@! TO.P,J1,6*
G04 #@! TO.N,Board_3-/DAV*
X90620000Y-125415022D03*
G04 #@! TO.P,J1,7*
G04 #@! TO.N,Board_3-/NRFD*
X88460000Y-125415022D03*
G04 #@! TO.P,J1,8*
G04 #@! TO.N,Board_3-/NDAC*
X86300000Y-125415022D03*
G04 #@! TO.P,J1,9*
G04 #@! TO.N,Board_3-/IFC*
X84140000Y-125415022D03*
G04 #@! TO.P,J1,10*
G04 #@! TO.N,Board_3-/SRQ*
X81980000Y-125415022D03*
G04 #@! TO.P,J1,11*
G04 #@! TO.N,Board_3-/ATN*
X79820000Y-125415022D03*
G04 #@! TO.P,J1,12*
G04 #@! TO.N,Board_3-GND*
X77660000Y-125415022D03*
G04 #@! TO.P,J1,13*
G04 #@! TO.N,Board_3-/DIO5*
X101420000Y-121125022D03*
G04 #@! TO.P,J1,14*
G04 #@! TO.N,Board_3-/DIO6*
X99260000Y-121125022D03*
G04 #@! TO.P,J1,15*
G04 #@! TO.N,Board_3-/DIO7*
X97100000Y-121125022D03*
G04 #@! TO.P,J1,16*
G04 #@! TO.N,Board_3-/DIO8*
X94940000Y-121125022D03*
G04 #@! TO.P,J1,17*
G04 #@! TO.N,Board_3-/REN*
X92780000Y-121125022D03*
G04 #@! TO.P,J1,18*
G04 #@! TO.N,Board_3-GND*
X90620000Y-121125022D03*
G04 #@! TO.P,J1,19*
X88460000Y-121125022D03*
G04 #@! TO.P,J1,20*
X86300000Y-121125022D03*
G04 #@! TO.P,J1,21*
X84140000Y-121125022D03*
G04 #@! TO.P,J1,22*
X81980000Y-121125022D03*
G04 #@! TO.P,J1,23*
X79820000Y-121125022D03*
G04 #@! TO.P,J1,24*
X77660000Y-121125022D03*
G04 #@! TD*
D12*
G04 #@! TO.P,U1,1*
G04 #@! TO.N,Board_3-Net-(U1-Pad1)*
X81093200Y-116812822D03*
D13*
G04 #@! TO.P,U1,2*
G04 #@! TO.N,Board_3-Net-(U1-Pad2)*
X83633200Y-116812822D03*
G04 #@! TO.P,U1,3*
G04 #@! TO.N,Board_3-GND*
X86173200Y-116812822D03*
G04 #@! TO.P,U1,4*
X88713200Y-116812822D03*
G04 #@! TO.P,U1,5*
G04 #@! TO.N,Board_3-/ATN*
X91253200Y-116812822D03*
G04 #@! TO.P,U1,6*
G04 #@! TO.N,Board_3-/DIO1*
X93793200Y-116812822D03*
G04 #@! TO.P,U1,7*
G04 #@! TO.N,Board_3-/IFC*
X96333200Y-116812822D03*
G04 #@! TO.P,U1,8*
G04 #@! TO.N,Board_3-/REN*
X98873200Y-116812822D03*
G04 #@! TO.P,U1,9*
G04 #@! TO.N,Board_3-/DIO8*
X101413200Y-116812822D03*
G04 #@! TO.P,U1,10*
G04 #@! TO.N,Board_3-/SRQ*
X103953200Y-116812822D03*
G04 #@! TO.P,U1,11*
G04 #@! TO.N,Board_3-/DIO5*
X106493200Y-116812822D03*
G04 #@! TO.P,U1,12*
G04 #@! TO.N,Board_3-/DIO6*
X109033200Y-116812822D03*
G04 #@! TO.P,U1,13*
G04 #@! TO.N,Board_3-/DIO7*
X109033200Y-132052822D03*
G04 #@! TO.P,U1,14*
G04 #@! TO.N,Board_3-/DIO3*
X106493200Y-132052822D03*
G04 #@! TO.P,U1,15*
G04 #@! TO.N,Board_3-/DIO4*
X103953200Y-132052822D03*
G04 #@! TO.P,U1,16*
G04 #@! TO.N,Board_3-/DIO2*
X101413200Y-132052822D03*
G04 #@! TO.P,U1,17*
G04 #@! TO.N,Board_3-/EOI*
X98873200Y-132052822D03*
G04 #@! TO.P,U1,18*
G04 #@! TO.N,Board_3-/DAV*
X96333200Y-132052822D03*
G04 #@! TO.P,U1,19*
G04 #@! TO.N,Board_3-/NRFD*
X93793200Y-132052822D03*
G04 #@! TO.P,U1,20*
G04 #@! TO.N,Board_3-/NDAC*
X91253200Y-132052822D03*
G04 #@! TO.P,U1,21*
G04 #@! TO.N,Board_3-Net-(U1-Pad21)*
X88713200Y-132052822D03*
G04 #@! TO.P,U1,22*
G04 #@! TO.N,Board_3-Net-(U1-Pad22)*
X86173200Y-132052822D03*
G04 #@! TO.P,U1,23*
G04 #@! TO.N,Board_3-GND*
X83633200Y-132052822D03*
G04 #@! TO.P,U1,24*
G04 #@! TO.N,Board_3-Net-(U1-Pad24)*
X81093200Y-132052822D03*
G04 #@! TD*
D10*
G04 #@! TO.P,J1,1*
G04 #@! TO.N,Board_2-/DIO1*
X101420000Y-100055011D03*
D11*
G04 #@! TO.P,J1,25*
G04 #@! TO.N,N/C*
X112940000Y-97910011D03*
G04 #@! TO.P,J1,26*
X66140000Y-97910011D03*
D10*
G04 #@! TO.P,J1,2*
G04 #@! TO.N,Board_2-/DIO2*
X99260000Y-100055011D03*
G04 #@! TO.P,J1,3*
G04 #@! TO.N,Board_2-/DIO3*
X97100000Y-100055011D03*
G04 #@! TO.P,J1,4*
G04 #@! TO.N,Board_2-/DIO4*
X94940000Y-100055011D03*
G04 #@! TO.P,J1,5*
G04 #@! TO.N,Board_2-/EOI*
X92780000Y-100055011D03*
G04 #@! TO.P,J1,6*
G04 #@! TO.N,Board_2-/DAV*
X90620000Y-100055011D03*
G04 #@! TO.P,J1,7*
G04 #@! TO.N,Board_2-/NRFD*
X88460000Y-100055011D03*
G04 #@! TO.P,J1,8*
G04 #@! TO.N,Board_2-/NDAC*
X86300000Y-100055011D03*
G04 #@! TO.P,J1,9*
G04 #@! TO.N,Board_2-/IFC*
X84140000Y-100055011D03*
G04 #@! TO.P,J1,10*
G04 #@! TO.N,Board_2-/SRQ*
X81980000Y-100055011D03*
G04 #@! TO.P,J1,11*
G04 #@! TO.N,Board_2-/ATN*
X79820000Y-100055011D03*
G04 #@! TO.P,J1,12*
G04 #@! TO.N,Board_2-GND*
X77660000Y-100055011D03*
G04 #@! TO.P,J1,13*
G04 #@! TO.N,Board_2-/DIO5*
X101420000Y-95765011D03*
G04 #@! TO.P,J1,14*
G04 #@! TO.N,Board_2-/DIO6*
X99260000Y-95765011D03*
G04 #@! TO.P,J1,15*
G04 #@! TO.N,Board_2-/DIO7*
X97100000Y-95765011D03*
G04 #@! TO.P,J1,16*
G04 #@! TO.N,Board_2-/DIO8*
X94940000Y-95765011D03*
G04 #@! TO.P,J1,17*
G04 #@! TO.N,Board_2-/REN*
X92780000Y-95765011D03*
G04 #@! TO.P,J1,18*
G04 #@! TO.N,Board_2-GND*
X90620000Y-95765011D03*
G04 #@! TO.P,J1,19*
X88460000Y-95765011D03*
G04 #@! TO.P,J1,20*
X86300000Y-95765011D03*
G04 #@! TO.P,J1,21*
X84140000Y-95765011D03*
G04 #@! TO.P,J1,22*
X81980000Y-95765011D03*
G04 #@! TO.P,J1,23*
X79820000Y-95765011D03*
G04 #@! TO.P,J1,24*
X77660000Y-95765011D03*
G04 #@! TD*
D12*
G04 #@! TO.P,U1,1*
G04 #@! TO.N,Board_2-Net-(U1-Pad1)*
X81093200Y-91452811D03*
D13*
G04 #@! TO.P,U1,2*
G04 #@! TO.N,Board_2-Net-(U1-Pad2)*
X83633200Y-91452811D03*
G04 #@! TO.P,U1,3*
G04 #@! TO.N,Board_2-GND*
X86173200Y-91452811D03*
G04 #@! TO.P,U1,4*
X88713200Y-91452811D03*
G04 #@! TO.P,U1,5*
G04 #@! TO.N,Board_2-/ATN*
X91253200Y-91452811D03*
G04 #@! TO.P,U1,6*
G04 #@! TO.N,Board_2-/DIO1*
X93793200Y-91452811D03*
G04 #@! TO.P,U1,7*
G04 #@! TO.N,Board_2-/IFC*
X96333200Y-91452811D03*
G04 #@! TO.P,U1,8*
G04 #@! TO.N,Board_2-/REN*
X98873200Y-91452811D03*
G04 #@! TO.P,U1,9*
G04 #@! TO.N,Board_2-/DIO8*
X101413200Y-91452811D03*
G04 #@! TO.P,U1,10*
G04 #@! TO.N,Board_2-/SRQ*
X103953200Y-91452811D03*
G04 #@! TO.P,U1,11*
G04 #@! TO.N,Board_2-/DIO5*
X106493200Y-91452811D03*
G04 #@! TO.P,U1,12*
G04 #@! TO.N,Board_2-/DIO6*
X109033200Y-91452811D03*
G04 #@! TO.P,U1,13*
G04 #@! TO.N,Board_2-/DIO7*
X109033200Y-106692811D03*
G04 #@! TO.P,U1,14*
G04 #@! TO.N,Board_2-/DIO3*
X106493200Y-106692811D03*
G04 #@! TO.P,U1,15*
G04 #@! TO.N,Board_2-/DIO4*
X103953200Y-106692811D03*
G04 #@! TO.P,U1,16*
G04 #@! TO.N,Board_2-/DIO2*
X101413200Y-106692811D03*
G04 #@! TO.P,U1,17*
G04 #@! TO.N,Board_2-/EOI*
X98873200Y-106692811D03*
G04 #@! TO.P,U1,18*
G04 #@! TO.N,Board_2-/DAV*
X96333200Y-106692811D03*
G04 #@! TO.P,U1,19*
G04 #@! TO.N,Board_2-/NRFD*
X93793200Y-106692811D03*
G04 #@! TO.P,U1,20*
G04 #@! TO.N,Board_2-/NDAC*
X91253200Y-106692811D03*
G04 #@! TO.P,U1,21*
G04 #@! TO.N,Board_2-Net-(U1-Pad21)*
X88713200Y-106692811D03*
G04 #@! TO.P,U1,22*
G04 #@! TO.N,Board_2-Net-(U1-Pad22)*
X86173200Y-106692811D03*
G04 #@! TO.P,U1,23*
G04 #@! TO.N,Board_2-GND*
X83633200Y-106692811D03*
G04 #@! TO.P,U1,24*
G04 #@! TO.N,Board_2-Net-(U1-Pad24)*
X81093200Y-106692811D03*
G04 #@! TD*
D10*
G04 #@! TO.P,J1,1*
G04 #@! TO.N,Board_1-/DIO1*
X101420000Y-74695000D03*
D11*
G04 #@! TO.P,J1,25*
G04 #@! TO.N,N/C*
X112940000Y-72550000D03*
G04 #@! TO.P,J1,26*
X66140000Y-72550000D03*
D10*
G04 #@! TO.P,J1,2*
G04 #@! TO.N,Board_1-/DIO2*
X99260000Y-74695000D03*
G04 #@! TO.P,J1,3*
G04 #@! TO.N,Board_1-/DIO3*
X97100000Y-74695000D03*
G04 #@! TO.P,J1,4*
G04 #@! TO.N,Board_1-/DIO4*
X94940000Y-74695000D03*
G04 #@! TO.P,J1,5*
G04 #@! TO.N,Board_1-/EOI*
X92780000Y-74695000D03*
G04 #@! TO.P,J1,6*
G04 #@! TO.N,Board_1-/DAV*
X90620000Y-74695000D03*
G04 #@! TO.P,J1,7*
G04 #@! TO.N,Board_1-/NRFD*
X88460000Y-74695000D03*
G04 #@! TO.P,J1,8*
G04 #@! TO.N,Board_1-/NDAC*
X86300000Y-74695000D03*
G04 #@! TO.P,J1,9*
G04 #@! TO.N,Board_1-/IFC*
X84140000Y-74695000D03*
G04 #@! TO.P,J1,10*
G04 #@! TO.N,Board_1-/SRQ*
X81980000Y-74695000D03*
G04 #@! TO.P,J1,11*
G04 #@! TO.N,Board_1-/ATN*
X79820000Y-74695000D03*
G04 #@! TO.P,J1,12*
G04 #@! TO.N,Board_1-GND*
X77660000Y-74695000D03*
G04 #@! TO.P,J1,13*
G04 #@! TO.N,Board_1-/DIO5*
X101420000Y-70405000D03*
G04 #@! TO.P,J1,14*
G04 #@! TO.N,Board_1-/DIO6*
X99260000Y-70405000D03*
G04 #@! TO.P,J1,15*
G04 #@! TO.N,Board_1-/DIO7*
X97100000Y-70405000D03*
G04 #@! TO.P,J1,16*
G04 #@! TO.N,Board_1-/DIO8*
X94940000Y-70405000D03*
G04 #@! TO.P,J1,17*
G04 #@! TO.N,Board_1-/REN*
X92780000Y-70405000D03*
G04 #@! TO.P,J1,18*
G04 #@! TO.N,Board_1-GND*
X90620000Y-70405000D03*
G04 #@! TO.P,J1,19*
X88460000Y-70405000D03*
G04 #@! TO.P,J1,20*
X86300000Y-70405000D03*
G04 #@! TO.P,J1,21*
X84140000Y-70405000D03*
G04 #@! TO.P,J1,22*
X81980000Y-70405000D03*
G04 #@! TO.P,J1,23*
X79820000Y-70405000D03*
G04 #@! TO.P,J1,24*
X77660000Y-70405000D03*
G04 #@! TD*
D12*
G04 #@! TO.P,U1,1*
G04 #@! TO.N,Board_1-Net-(U1-Pad1)*
X81093200Y-66092800D03*
D13*
G04 #@! TO.P,U1,2*
G04 #@! TO.N,Board_1-Net-(U1-Pad2)*
X83633200Y-66092800D03*
G04 #@! TO.P,U1,3*
G04 #@! TO.N,Board_1-GND*
X86173200Y-66092800D03*
G04 #@! TO.P,U1,4*
X88713200Y-66092800D03*
G04 #@! TO.P,U1,5*
G04 #@! TO.N,Board_1-/ATN*
X91253200Y-66092800D03*
G04 #@! TO.P,U1,6*
G04 #@! TO.N,Board_1-/DIO1*
X93793200Y-66092800D03*
G04 #@! TO.P,U1,7*
G04 #@! TO.N,Board_1-/IFC*
X96333200Y-66092800D03*
G04 #@! TO.P,U1,8*
G04 #@! TO.N,Board_1-/REN*
X98873200Y-66092800D03*
G04 #@! TO.P,U1,9*
G04 #@! TO.N,Board_1-/DIO8*
X101413200Y-66092800D03*
G04 #@! TO.P,U1,10*
G04 #@! TO.N,Board_1-/SRQ*
X103953200Y-66092800D03*
G04 #@! TO.P,U1,11*
G04 #@! TO.N,Board_1-/DIO5*
X106493200Y-66092800D03*
G04 #@! TO.P,U1,12*
G04 #@! TO.N,Board_1-/DIO6*
X109033200Y-66092800D03*
G04 #@! TO.P,U1,13*
G04 #@! TO.N,Board_1-/DIO7*
X109033200Y-81332800D03*
G04 #@! TO.P,U1,14*
G04 #@! TO.N,Board_1-/DIO3*
X106493200Y-81332800D03*
G04 #@! TO.P,U1,15*
G04 #@! TO.N,Board_1-/DIO4*
X103953200Y-81332800D03*
G04 #@! TO.P,U1,16*
G04 #@! TO.N,Board_1-/DIO2*
X101413200Y-81332800D03*
G04 #@! TO.P,U1,17*
G04 #@! TO.N,Board_1-/EOI*
X98873200Y-81332800D03*
G04 #@! TO.P,U1,18*
G04 #@! TO.N,Board_1-/DAV*
X96333200Y-81332800D03*
G04 #@! TO.P,U1,19*
G04 #@! TO.N,Board_1-/NRFD*
X93793200Y-81332800D03*
G04 #@! TO.P,U1,20*
G04 #@! TO.N,Board_1-/NDAC*
X91253200Y-81332800D03*
G04 #@! TO.P,U1,21*
G04 #@! TO.N,Board_1-Net-(U1-Pad21)*
X88713200Y-81332800D03*
G04 #@! TO.P,U1,22*
G04 #@! TO.N,Board_1-Net-(U1-Pad22)*
X86173200Y-81332800D03*
G04 #@! TO.P,U1,23*
G04 #@! TO.N,Board_1-GND*
X83633200Y-81332800D03*
G04 #@! TO.P,U1,24*
G04 #@! TO.N,Board_1-Net-(U1-Pad24)*
X81093200Y-81332800D03*
G04 #@! TD*
D14*
G04 #@! TO.N,Board_1-/ATN*
X79820000Y-74695000D02*
X79820000Y-76002000D01*
X79820000Y-76002000D02*
X78680200Y-77141800D01*
X78680200Y-77141800D02*
X76394200Y-77141800D01*
X76394200Y-77141800D02*
X75632200Y-76379800D01*
X75632200Y-76379800D02*
X75632200Y-69267800D01*
X75632200Y-69267800D02*
X76521200Y-68378800D01*
X76521200Y-68378800D02*
X90491200Y-68378800D01*
X91253200Y-67616800D02*
X91253200Y-66092800D01*
X90491200Y-68378800D02*
X91253200Y-67616800D01*
G04 #@! TO.N,Board_1-/DAV*
X96206200Y-81332800D02*
X96333200Y-81332800D01*
X90620000Y-75746600D02*
X96206200Y-81332800D01*
X90620000Y-74695000D02*
X90620000Y-75746600D01*
G04 #@! TO.N,Board_1-/DIO3*
X106493200Y-79808800D02*
X106493200Y-81332800D01*
X104842200Y-78157800D02*
X106493200Y-79808800D01*
X99127200Y-78157800D02*
X104842200Y-78157800D01*
X97100000Y-76130600D02*
X99127200Y-78157800D01*
X97100000Y-74695000D02*
X97100000Y-76130600D01*
G04 #@! TO.N,Board_1-/DIO4*
X98619200Y-79173800D02*
X103064200Y-79173800D01*
X103064200Y-79173800D02*
X103953200Y-80062800D01*
X94940000Y-75494600D02*
X98619200Y-79173800D01*
X103953200Y-80062800D02*
X103953200Y-81332800D01*
X94940000Y-74695000D02*
X94940000Y-75494600D01*
G04 #@! TO.N,Board_1-/DIO5*
X101420000Y-70405000D02*
X103959000Y-70405000D01*
X106493200Y-67870800D02*
X106493200Y-66092800D01*
X103959000Y-70405000D02*
X106493200Y-67870800D01*
G04 #@! TO.N,Board_1-/DIO6*
X99260000Y-70405000D02*
X99260000Y-71432600D01*
X99260000Y-71432600D02*
X99762200Y-71934800D01*
X99762200Y-71934800D02*
X104842200Y-71934800D01*
X109033200Y-67743800D02*
X109033200Y-66092800D01*
X104842200Y-71934800D02*
X109033200Y-67743800D01*
G04 #@! TO.N,Board_1-/DIO7*
X109033200Y-77141800D02*
X109033200Y-81332800D01*
X109033200Y-75744800D02*
X109033200Y-81332800D01*
X106239200Y-72950800D02*
X109033200Y-75744800D01*
X97485800Y-72950800D02*
X106239200Y-72950800D01*
X97100000Y-72565000D02*
X97485800Y-72950800D01*
X97100000Y-70405000D02*
X97100000Y-72565000D01*
G04 #@! TO.N,Board_1-/DIO8*
X98546190Y-68959810D02*
X101413200Y-66092800D01*
X96385190Y-68959810D02*
X98546190Y-68959810D01*
X94940000Y-70405000D02*
X96385190Y-68959810D01*
G04 #@! TO.N,Board_1-/EOI*
X98873200Y-80788200D02*
X98873200Y-81332800D01*
X92780000Y-74695000D02*
X98873200Y-80788200D01*
G04 #@! TO.N,Board_1-/IFC*
X96333200Y-66092800D02*
X96333200Y-64822800D01*
X96333200Y-64822800D02*
X95444200Y-63933800D01*
X95444200Y-63933800D02*
X78807200Y-63933800D01*
X78807200Y-63933800D02*
X74616200Y-68124800D01*
X74616200Y-68124800D02*
X74616200Y-76887800D01*
X74616200Y-76887800D02*
X75759200Y-78030800D01*
X75759200Y-78030800D02*
X82998200Y-78030800D01*
X84140000Y-76889000D02*
X84140000Y-74695000D01*
X82998200Y-78030800D02*
X84140000Y-76889000D01*
G04 #@! TO.N,Board_1-/NDAC*
X86300000Y-74695000D02*
X86300000Y-76633600D01*
X86300000Y-76633600D02*
X87824200Y-78157800D01*
X87824200Y-78157800D02*
X89856200Y-78157800D01*
X91253200Y-79554800D02*
X91253200Y-81332800D01*
X89856200Y-78157800D02*
X91253200Y-79554800D01*
G04 #@! TO.N,Board_1-/NRFD*
X88460000Y-74695000D02*
X88460000Y-76126600D01*
X88460000Y-76126600D02*
X89475200Y-77141800D01*
X89475200Y-77141800D02*
X90745200Y-77141800D01*
X93793200Y-80189800D02*
X93793200Y-81332800D01*
X90745200Y-77141800D02*
X93793200Y-80189800D01*
G04 #@! TO.N,Board_1-/REN*
X93666200Y-68251800D02*
X96714200Y-68251800D01*
X92780000Y-69138000D02*
X93666200Y-68251800D01*
X96714200Y-68251800D02*
X98873200Y-66092800D01*
X92780000Y-70405000D02*
X92780000Y-69138000D01*
G04 #@! TO.N,Board_1-GND*
X77660000Y-74695000D02*
X77660000Y-70405000D01*
X77660000Y-70405000D02*
X90620000Y-70405000D01*
X86300000Y-66219600D02*
X86173200Y-66092800D01*
X86173200Y-66092800D02*
X88713200Y-66092800D01*
G04 #@! TO.N,Board_2-/ATN*
X79820000Y-100055011D02*
X79820000Y-101362011D01*
X79820000Y-101362011D02*
X78680200Y-102501811D01*
X78680200Y-102501811D02*
X76394200Y-102501811D01*
X76394200Y-102501811D02*
X75632200Y-101739811D01*
X75632200Y-101739811D02*
X75632200Y-94627811D01*
X75632200Y-94627811D02*
X76521200Y-93738811D01*
X76521200Y-93738811D02*
X90491200Y-93738811D01*
X91253200Y-92976811D02*
X91253200Y-91452811D01*
X90491200Y-93738811D02*
X91253200Y-92976811D01*
G04 #@! TO.N,Board_2-/DAV*
X96206200Y-106692811D02*
X96333200Y-106692811D01*
X90620000Y-101106611D02*
X96206200Y-106692811D01*
X90620000Y-100055011D02*
X90620000Y-101106611D01*
G04 #@! TO.N,Board_2-/DIO3*
X106493200Y-105168811D02*
X106493200Y-106692811D01*
X104842200Y-103517811D02*
X106493200Y-105168811D01*
X99127200Y-103517811D02*
X104842200Y-103517811D01*
X97100000Y-101490611D02*
X99127200Y-103517811D01*
X97100000Y-100055011D02*
X97100000Y-101490611D01*
G04 #@! TO.N,Board_2-/DIO4*
X98619200Y-104533811D02*
X103064200Y-104533811D01*
X103064200Y-104533811D02*
X103953200Y-105422811D01*
X94940000Y-100854611D02*
X98619200Y-104533811D01*
X103953200Y-105422811D02*
X103953200Y-106692811D01*
X94940000Y-100055011D02*
X94940000Y-100854611D01*
G04 #@! TO.N,Board_2-/DIO5*
X101420000Y-95765011D02*
X103959000Y-95765011D01*
X106493200Y-93230811D02*
X106493200Y-91452811D01*
X103959000Y-95765011D02*
X106493200Y-93230811D01*
G04 #@! TO.N,Board_2-/DIO6*
X99260000Y-95765011D02*
X99260000Y-96792611D01*
X99260000Y-96792611D02*
X99762200Y-97294811D01*
X99762200Y-97294811D02*
X104842200Y-97294811D01*
X109033200Y-93103811D02*
X109033200Y-91452811D01*
X104842200Y-97294811D02*
X109033200Y-93103811D01*
G04 #@! TO.N,Board_2-/DIO7*
X109033200Y-102501811D02*
X109033200Y-106692811D01*
X109033200Y-101104811D02*
X109033200Y-106692811D01*
X106239200Y-98310811D02*
X109033200Y-101104811D01*
X97485800Y-98310811D02*
X106239200Y-98310811D01*
X97100000Y-97925011D02*
X97485800Y-98310811D01*
X97100000Y-95765011D02*
X97100000Y-97925011D01*
G04 #@! TO.N,Board_2-/DIO8*
X98546190Y-94319821D02*
X101413200Y-91452811D01*
X96385190Y-94319821D02*
X98546190Y-94319821D01*
X94940000Y-95765011D02*
X96385190Y-94319821D01*
G04 #@! TO.N,Board_2-/EOI*
X98873200Y-106148211D02*
X98873200Y-106692811D01*
X92780000Y-100055011D02*
X98873200Y-106148211D01*
G04 #@! TO.N,Board_2-/IFC*
X96333200Y-91452811D02*
X96333200Y-90182811D01*
X96333200Y-90182811D02*
X95444200Y-89293811D01*
X95444200Y-89293811D02*
X78807200Y-89293811D01*
X78807200Y-89293811D02*
X74616200Y-93484811D01*
X74616200Y-93484811D02*
X74616200Y-102247811D01*
X74616200Y-102247811D02*
X75759200Y-103390811D01*
X75759200Y-103390811D02*
X82998200Y-103390811D01*
X84140000Y-102249011D02*
X84140000Y-100055011D01*
X82998200Y-103390811D02*
X84140000Y-102249011D01*
G04 #@! TO.N,Board_2-/NDAC*
X86300000Y-100055011D02*
X86300000Y-101993611D01*
X86300000Y-101993611D02*
X87824200Y-103517811D01*
X87824200Y-103517811D02*
X89856200Y-103517811D01*
X91253200Y-104914811D02*
X91253200Y-106692811D01*
X89856200Y-103517811D02*
X91253200Y-104914811D01*
G04 #@! TO.N,Board_2-/NRFD*
X88460000Y-100055011D02*
X88460000Y-101486611D01*
X88460000Y-101486611D02*
X89475200Y-102501811D01*
X89475200Y-102501811D02*
X90745200Y-102501811D01*
X93793200Y-105549811D02*
X93793200Y-106692811D01*
X90745200Y-102501811D02*
X93793200Y-105549811D01*
G04 #@! TO.N,Board_2-/REN*
X93666200Y-93611811D02*
X96714200Y-93611811D01*
X92780000Y-94498011D02*
X93666200Y-93611811D01*
X96714200Y-93611811D02*
X98873200Y-91452811D01*
X92780000Y-95765011D02*
X92780000Y-94498011D01*
G04 #@! TO.N,Board_2-GND*
X77660000Y-100055011D02*
X77660000Y-95765011D01*
X77660000Y-95765011D02*
X90620000Y-95765011D01*
X86300000Y-91579611D02*
X86173200Y-91452811D01*
X86173200Y-91452811D02*
X88713200Y-91452811D01*
G04 #@! TO.N,Board_3-/ATN*
X79820000Y-125415022D02*
X79820000Y-126722022D01*
X79820000Y-126722022D02*
X78680200Y-127861822D01*
X78680200Y-127861822D02*
X76394200Y-127861822D01*
X76394200Y-127861822D02*
X75632200Y-127099822D01*
X75632200Y-127099822D02*
X75632200Y-119987822D01*
X75632200Y-119987822D02*
X76521200Y-119098822D01*
X76521200Y-119098822D02*
X90491200Y-119098822D01*
X91253200Y-118336822D02*
X91253200Y-116812822D01*
X90491200Y-119098822D02*
X91253200Y-118336822D01*
G04 #@! TO.N,Board_3-/DAV*
X96206200Y-132052822D02*
X96333200Y-132052822D01*
X90620000Y-126466622D02*
X96206200Y-132052822D01*
X90620000Y-125415022D02*
X90620000Y-126466622D01*
G04 #@! TO.N,Board_3-/DIO3*
X106493200Y-130528822D02*
X106493200Y-132052822D01*
X104842200Y-128877822D02*
X106493200Y-130528822D01*
X99127200Y-128877822D02*
X104842200Y-128877822D01*
X97100000Y-126850622D02*
X99127200Y-128877822D01*
X97100000Y-125415022D02*
X97100000Y-126850622D01*
G04 #@! TO.N,Board_3-/DIO4*
X98619200Y-129893822D02*
X103064200Y-129893822D01*
X103064200Y-129893822D02*
X103953200Y-130782822D01*
X94940000Y-126214622D02*
X98619200Y-129893822D01*
X103953200Y-130782822D02*
X103953200Y-132052822D01*
X94940000Y-125415022D02*
X94940000Y-126214622D01*
G04 #@! TO.N,Board_3-/DIO5*
X101420000Y-121125022D02*
X103959000Y-121125022D01*
X106493200Y-118590822D02*
X106493200Y-116812822D01*
X103959000Y-121125022D02*
X106493200Y-118590822D01*
G04 #@! TO.N,Board_3-/DIO6*
X99260000Y-121125022D02*
X99260000Y-122152622D01*
X99260000Y-122152622D02*
X99762200Y-122654822D01*
X99762200Y-122654822D02*
X104842200Y-122654822D01*
X109033200Y-118463822D02*
X109033200Y-116812822D01*
X104842200Y-122654822D02*
X109033200Y-118463822D01*
G04 #@! TO.N,Board_3-/DIO7*
X109033200Y-127861822D02*
X109033200Y-132052822D01*
X109033200Y-126464822D02*
X109033200Y-132052822D01*
X106239200Y-123670822D02*
X109033200Y-126464822D01*
X97485800Y-123670822D02*
X106239200Y-123670822D01*
X97100000Y-123285022D02*
X97485800Y-123670822D01*
X97100000Y-121125022D02*
X97100000Y-123285022D01*
G04 #@! TO.N,Board_3-/DIO8*
X98546190Y-119679832D02*
X101413200Y-116812822D01*
X96385190Y-119679832D02*
X98546190Y-119679832D01*
X94940000Y-121125022D02*
X96385190Y-119679832D01*
G04 #@! TO.N,Board_3-/EOI*
X98873200Y-131508222D02*
X98873200Y-132052822D01*
X92780000Y-125415022D02*
X98873200Y-131508222D01*
G04 #@! TO.N,Board_3-/IFC*
X96333200Y-116812822D02*
X96333200Y-115542822D01*
X96333200Y-115542822D02*
X95444200Y-114653822D01*
X95444200Y-114653822D02*
X78807200Y-114653822D01*
X78807200Y-114653822D02*
X74616200Y-118844822D01*
X74616200Y-118844822D02*
X74616200Y-127607822D01*
X74616200Y-127607822D02*
X75759200Y-128750822D01*
X75759200Y-128750822D02*
X82998200Y-128750822D01*
X84140000Y-127609022D02*
X84140000Y-125415022D01*
X82998200Y-128750822D02*
X84140000Y-127609022D01*
G04 #@! TO.N,Board_3-/NDAC*
X86300000Y-125415022D02*
X86300000Y-127353622D01*
X86300000Y-127353622D02*
X87824200Y-128877822D01*
X87824200Y-128877822D02*
X89856200Y-128877822D01*
X91253200Y-130274822D02*
X91253200Y-132052822D01*
X89856200Y-128877822D02*
X91253200Y-130274822D01*
G04 #@! TO.N,Board_3-/NRFD*
X88460000Y-125415022D02*
X88460000Y-126846622D01*
X88460000Y-126846622D02*
X89475200Y-127861822D01*
X89475200Y-127861822D02*
X90745200Y-127861822D01*
X93793200Y-130909822D02*
X93793200Y-132052822D01*
X90745200Y-127861822D02*
X93793200Y-130909822D01*
G04 #@! TO.N,Board_3-/REN*
X93666200Y-118971822D02*
X96714200Y-118971822D01*
X92780000Y-119858022D02*
X93666200Y-118971822D01*
X96714200Y-118971822D02*
X98873200Y-116812822D01*
X92780000Y-121125022D02*
X92780000Y-119858022D01*
G04 #@! TO.N,Board_3-GND*
X77660000Y-125415022D02*
X77660000Y-121125022D01*
X77660000Y-121125022D02*
X90620000Y-121125022D01*
X86300000Y-116939622D02*
X86173200Y-116812822D01*
X86173200Y-116812822D02*
X88713200Y-116812822D01*
G04 #@! TO.N,Board_4-/ATN*
X79820000Y-150775033D02*
X79820000Y-152082033D01*
X79820000Y-152082033D02*
X78680200Y-153221833D01*
X78680200Y-153221833D02*
X76394200Y-153221833D01*
X76394200Y-153221833D02*
X75632200Y-152459833D01*
X75632200Y-152459833D02*
X75632200Y-145347833D01*
X75632200Y-145347833D02*
X76521200Y-144458833D01*
X76521200Y-144458833D02*
X90491200Y-144458833D01*
X91253200Y-143696833D02*
X91253200Y-142172833D01*
X90491200Y-144458833D02*
X91253200Y-143696833D01*
G04 #@! TO.N,Board_4-/DAV*
X96206200Y-157412833D02*
X96333200Y-157412833D01*
X90620000Y-151826633D02*
X96206200Y-157412833D01*
X90620000Y-150775033D02*
X90620000Y-151826633D01*
G04 #@! TO.N,Board_4-/DIO3*
X106493200Y-155888833D02*
X106493200Y-157412833D01*
X104842200Y-154237833D02*
X106493200Y-155888833D01*
X99127200Y-154237833D02*
X104842200Y-154237833D01*
X97100000Y-152210633D02*
X99127200Y-154237833D01*
X97100000Y-150775033D02*
X97100000Y-152210633D01*
G04 #@! TO.N,Board_4-/DIO4*
X98619200Y-155253833D02*
X103064200Y-155253833D01*
X103064200Y-155253833D02*
X103953200Y-156142833D01*
X94940000Y-151574633D02*
X98619200Y-155253833D01*
X103953200Y-156142833D02*
X103953200Y-157412833D01*
X94940000Y-150775033D02*
X94940000Y-151574633D01*
G04 #@! TO.N,Board_4-/DIO5*
X101420000Y-146485033D02*
X103959000Y-146485033D01*
X106493200Y-143950833D02*
X106493200Y-142172833D01*
X103959000Y-146485033D02*
X106493200Y-143950833D01*
G04 #@! TO.N,Board_4-/DIO6*
X99260000Y-146485033D02*
X99260000Y-147512633D01*
X99260000Y-147512633D02*
X99762200Y-148014833D01*
X99762200Y-148014833D02*
X104842200Y-148014833D01*
X109033200Y-143823833D02*
X109033200Y-142172833D01*
X104842200Y-148014833D02*
X109033200Y-143823833D01*
G04 #@! TO.N,Board_4-/DIO7*
X109033200Y-153221833D02*
X109033200Y-157412833D01*
X109033200Y-151824833D02*
X109033200Y-157412833D01*
X106239200Y-149030833D02*
X109033200Y-151824833D01*
X97485800Y-149030833D02*
X106239200Y-149030833D01*
X97100000Y-148645033D02*
X97485800Y-149030833D01*
X97100000Y-146485033D02*
X97100000Y-148645033D01*
G04 #@! TO.N,Board_4-/DIO8*
X98546190Y-145039843D02*
X101413200Y-142172833D01*
X96385190Y-145039843D02*
X98546190Y-145039843D01*
X94940000Y-146485033D02*
X96385190Y-145039843D01*
G04 #@! TO.N,Board_4-/EOI*
X98873200Y-156868233D02*
X98873200Y-157412833D01*
X92780000Y-150775033D02*
X98873200Y-156868233D01*
G04 #@! TO.N,Board_4-/IFC*
X96333200Y-142172833D02*
X96333200Y-140902833D01*
X96333200Y-140902833D02*
X95444200Y-140013833D01*
X95444200Y-140013833D02*
X78807200Y-140013833D01*
X78807200Y-140013833D02*
X74616200Y-144204833D01*
X74616200Y-144204833D02*
X74616200Y-152967833D01*
X74616200Y-152967833D02*
X75759200Y-154110833D01*
X75759200Y-154110833D02*
X82998200Y-154110833D01*
X84140000Y-152969033D02*
X84140000Y-150775033D01*
X82998200Y-154110833D02*
X84140000Y-152969033D01*
G04 #@! TO.N,Board_4-/NDAC*
X86300000Y-150775033D02*
X86300000Y-152713633D01*
X86300000Y-152713633D02*
X87824200Y-154237833D01*
X87824200Y-154237833D02*
X89856200Y-154237833D01*
X91253200Y-155634833D02*
X91253200Y-157412833D01*
X89856200Y-154237833D02*
X91253200Y-155634833D01*
G04 #@! TO.N,Board_4-/NRFD*
X88460000Y-150775033D02*
X88460000Y-152206633D01*
X88460000Y-152206633D02*
X89475200Y-153221833D01*
X89475200Y-153221833D02*
X90745200Y-153221833D01*
X93793200Y-156269833D02*
X93793200Y-157412833D01*
X90745200Y-153221833D02*
X93793200Y-156269833D01*
G04 #@! TO.N,Board_4-/REN*
X93666200Y-144331833D02*
X96714200Y-144331833D01*
X92780000Y-145218033D02*
X93666200Y-144331833D01*
X96714200Y-144331833D02*
X98873200Y-142172833D01*
X92780000Y-146485033D02*
X92780000Y-145218033D01*
G04 #@! TO.N,Board_4-GND*
X77660000Y-150775033D02*
X77660000Y-146485033D01*
X77660000Y-146485033D02*
X90620000Y-146485033D01*
X86300000Y-142299633D02*
X86173200Y-142172833D01*
X86173200Y-142172833D02*
X88713200Y-142172833D01*
G04 #@! TD*
M02*
