G04 #@! TF.GenerationSoftware,KiCad,Pcbnew,5.1.7-a382d34a8~87~ubuntu20.04.1*
G04 #@! TF.CreationDate,2020-11-15T14:28:19+09:00*
G04 #@! TF.ProjectId,adapter-panel,61646170-7465-4722-9d70-616e656c2e6b,rev?*
G04 #@! TF.SameCoordinates,Original*
G04 #@! TF.FileFunction,Legend,Bot*
G04 #@! TF.FilePolarity,Positive*
%FSLAX46Y46*%
G04 Gerber Fmt 4.6, Leading zero omitted, Abs format (unit mm)*
G04 Created by KiCad (PCBNEW 5.1.7-a382d34a8~87~ubuntu20.04.1) date 2020-11-15 14:28:19*
%MOMM*%
%LPD*%
G01*
G04 APERTURE LIST*
%ADD10C,0.203200*%
%ADD11C,0.152400*%
%ADD12C,0.150000*%
G04 APERTURE END LIST*
D10*
X118058666Y-145847366D02*
X118058666Y-146814985D01*
X118639238Y-145653842D02*
X116607238Y-146331175D01*
X118639238Y-147008509D01*
X118639238Y-148846985D02*
X117671619Y-148169652D01*
X118639238Y-147685842D02*
X116607238Y-147685842D01*
X116607238Y-148459937D01*
X116704000Y-148653461D01*
X116800761Y-148750223D01*
X116994285Y-148846985D01*
X117284571Y-148846985D01*
X117478095Y-148750223D01*
X117574857Y-148653461D01*
X117671619Y-148459937D01*
X117671619Y-147685842D01*
X117284571Y-150588699D02*
X118639238Y-150588699D01*
X116510476Y-150104890D02*
X117961904Y-149621080D01*
X117961904Y-150878985D01*
X117478095Y-151943366D02*
X117381333Y-151749842D01*
X117284571Y-151653080D01*
X117091047Y-151556318D01*
X116994285Y-151556318D01*
X116800761Y-151653080D01*
X116704000Y-151749842D01*
X116607238Y-151943366D01*
X116607238Y-152330413D01*
X116704000Y-152523937D01*
X116800761Y-152620699D01*
X116994285Y-152717461D01*
X117091047Y-152717461D01*
X117284571Y-152620699D01*
X117381333Y-152523937D01*
X117478095Y-152330413D01*
X117478095Y-151943366D01*
X117574857Y-151749842D01*
X117671619Y-151653080D01*
X117865142Y-151556318D01*
X118252190Y-151556318D01*
X118445714Y-151653080D01*
X118542476Y-151749842D01*
X118639238Y-151943366D01*
X118639238Y-152330413D01*
X118542476Y-152523937D01*
X118445714Y-152620699D01*
X118252190Y-152717461D01*
X117865142Y-152717461D01*
X117671619Y-152620699D01*
X117574857Y-152523937D01*
X117478095Y-152330413D01*
X117478095Y-153878604D02*
X117381333Y-153685080D01*
X117284571Y-153588318D01*
X117091047Y-153491556D01*
X116994285Y-153491556D01*
X116800761Y-153588318D01*
X116704000Y-153685080D01*
X116607238Y-153878604D01*
X116607238Y-154265652D01*
X116704000Y-154459175D01*
X116800761Y-154555937D01*
X116994285Y-154652699D01*
X117091047Y-154652699D01*
X117284571Y-154555937D01*
X117381333Y-154459175D01*
X117478095Y-154265652D01*
X117478095Y-153878604D01*
X117574857Y-153685080D01*
X117671619Y-153588318D01*
X117865142Y-153491556D01*
X118252190Y-153491556D01*
X118445714Y-153588318D01*
X118542476Y-153685080D01*
X118639238Y-153878604D01*
X118639238Y-154265652D01*
X118542476Y-154459175D01*
X118445714Y-154555937D01*
X118252190Y-154652699D01*
X117865142Y-154652699D01*
X117671619Y-154555937D01*
X117574857Y-154459175D01*
X117478095Y-154265652D01*
D11*
X105174819Y-152081252D02*
X104932914Y-153097252D01*
X104739390Y-152371537D01*
X104545866Y-153097252D01*
X104303961Y-152081252D01*
X103916914Y-153097252D02*
X103916914Y-152081252D01*
X103336342Y-153097252D01*
X103336342Y-152081252D01*
X102320342Y-152129633D02*
X102417104Y-152081252D01*
X102562247Y-152081252D01*
X102707390Y-152129633D01*
X102804152Y-152226394D01*
X102852533Y-152323156D01*
X102900914Y-152516680D01*
X102900914Y-152661823D01*
X102852533Y-152855347D01*
X102804152Y-152952109D01*
X102707390Y-153048871D01*
X102562247Y-153097252D01*
X102465485Y-153097252D01*
X102320342Y-153048871D01*
X102271961Y-153000490D01*
X102271961Y-152661823D01*
X102465485Y-152661823D01*
X107956723Y-154773652D02*
X107956723Y-154096318D01*
X107956723Y-154289842D02*
X107908342Y-154193080D01*
X107859961Y-154144699D01*
X107763200Y-154096318D01*
X107666438Y-154096318D01*
X106795580Y-154773652D02*
X107376152Y-154773652D01*
X107085866Y-154773652D02*
X107085866Y-153757652D01*
X107182628Y-153902794D01*
X107279390Y-153999556D01*
X107376152Y-154047937D01*
X105586057Y-154773652D02*
X105586057Y-153757652D01*
X105005485Y-154773652D01*
X105005485Y-153757652D01*
X104376533Y-154773652D02*
X104473295Y-154725271D01*
X104521676Y-154676890D01*
X104570057Y-154580128D01*
X104570057Y-154289842D01*
X104521676Y-154193080D01*
X104473295Y-154144699D01*
X104376533Y-154096318D01*
X104231390Y-154096318D01*
X104134628Y-154144699D01*
X104086247Y-154193080D01*
X104037866Y-154289842D01*
X104037866Y-154580128D01*
X104086247Y-154676890D01*
X104134628Y-154725271D01*
X104231390Y-154773652D01*
X104376533Y-154773652D01*
X103699200Y-154096318D02*
X103457295Y-154773652D01*
X103215390Y-154096318D01*
X102876723Y-153854413D02*
X102828342Y-153806033D01*
X102731580Y-153757652D01*
X102489676Y-153757652D01*
X102392914Y-153806033D01*
X102344533Y-153854413D01*
X102296152Y-153951175D01*
X102296152Y-154047937D01*
X102344533Y-154193080D01*
X102925104Y-154773652D01*
X102296152Y-154773652D01*
X101667200Y-153757652D02*
X101570438Y-153757652D01*
X101473676Y-153806033D01*
X101425295Y-153854413D01*
X101376914Y-153951175D01*
X101328533Y-154144699D01*
X101328533Y-154386604D01*
X101376914Y-154580128D01*
X101425295Y-154676890D01*
X101473676Y-154725271D01*
X101570438Y-154773652D01*
X101667200Y-154773652D01*
X101763961Y-154725271D01*
X101812342Y-154676890D01*
X101860723Y-154580128D01*
X101909104Y-154386604D01*
X101909104Y-154144699D01*
X101860723Y-153951175D01*
X101812342Y-153854413D01*
X101763961Y-153806033D01*
X101667200Y-153757652D01*
X100941485Y-153854413D02*
X100893104Y-153806033D01*
X100796342Y-153757652D01*
X100554438Y-153757652D01*
X100457676Y-153806033D01*
X100409295Y-153854413D01*
X100360914Y-153951175D01*
X100360914Y-154047937D01*
X100409295Y-154193080D01*
X100989866Y-154773652D01*
X100360914Y-154773652D01*
X99731961Y-153757652D02*
X99635200Y-153757652D01*
X99538438Y-153806033D01*
X99490057Y-153854413D01*
X99441676Y-153951175D01*
X99393295Y-154144699D01*
X99393295Y-154386604D01*
X99441676Y-154580128D01*
X99490057Y-154676890D01*
X99538438Y-154725271D01*
X99635200Y-154773652D01*
X99731961Y-154773652D01*
X99828723Y-154725271D01*
X99877104Y-154676890D01*
X99925485Y-154580128D01*
X99973866Y-154386604D01*
X99973866Y-154144699D01*
X99925485Y-153951175D01*
X99877104Y-153854413D01*
X99828723Y-153806033D01*
X99731961Y-153757652D01*
D10*
X118058666Y-120487355D02*
X118058666Y-121454974D01*
X118639238Y-120293831D02*
X116607238Y-120971164D01*
X118639238Y-121648498D01*
X118639238Y-123486974D02*
X117671619Y-122809641D01*
X118639238Y-122325831D02*
X116607238Y-122325831D01*
X116607238Y-123099926D01*
X116704000Y-123293450D01*
X116800761Y-123390212D01*
X116994285Y-123486974D01*
X117284571Y-123486974D01*
X117478095Y-123390212D01*
X117574857Y-123293450D01*
X117671619Y-123099926D01*
X117671619Y-122325831D01*
X117284571Y-125228688D02*
X118639238Y-125228688D01*
X116510476Y-124744879D02*
X117961904Y-124261069D01*
X117961904Y-125518974D01*
X117478095Y-126583355D02*
X117381333Y-126389831D01*
X117284571Y-126293069D01*
X117091047Y-126196307D01*
X116994285Y-126196307D01*
X116800761Y-126293069D01*
X116704000Y-126389831D01*
X116607238Y-126583355D01*
X116607238Y-126970402D01*
X116704000Y-127163926D01*
X116800761Y-127260688D01*
X116994285Y-127357450D01*
X117091047Y-127357450D01*
X117284571Y-127260688D01*
X117381333Y-127163926D01*
X117478095Y-126970402D01*
X117478095Y-126583355D01*
X117574857Y-126389831D01*
X117671619Y-126293069D01*
X117865142Y-126196307D01*
X118252190Y-126196307D01*
X118445714Y-126293069D01*
X118542476Y-126389831D01*
X118639238Y-126583355D01*
X118639238Y-126970402D01*
X118542476Y-127163926D01*
X118445714Y-127260688D01*
X118252190Y-127357450D01*
X117865142Y-127357450D01*
X117671619Y-127260688D01*
X117574857Y-127163926D01*
X117478095Y-126970402D01*
X117478095Y-128518593D02*
X117381333Y-128325069D01*
X117284571Y-128228307D01*
X117091047Y-128131545D01*
X116994285Y-128131545D01*
X116800761Y-128228307D01*
X116704000Y-128325069D01*
X116607238Y-128518593D01*
X116607238Y-128905641D01*
X116704000Y-129099164D01*
X116800761Y-129195926D01*
X116994285Y-129292688D01*
X117091047Y-129292688D01*
X117284571Y-129195926D01*
X117381333Y-129099164D01*
X117478095Y-128905641D01*
X117478095Y-128518593D01*
X117574857Y-128325069D01*
X117671619Y-128228307D01*
X117865142Y-128131545D01*
X118252190Y-128131545D01*
X118445714Y-128228307D01*
X118542476Y-128325069D01*
X118639238Y-128518593D01*
X118639238Y-128905641D01*
X118542476Y-129099164D01*
X118445714Y-129195926D01*
X118252190Y-129292688D01*
X117865142Y-129292688D01*
X117671619Y-129195926D01*
X117574857Y-129099164D01*
X117478095Y-128905641D01*
D11*
X105174819Y-126721241D02*
X104932914Y-127737241D01*
X104739390Y-127011526D01*
X104545866Y-127737241D01*
X104303961Y-126721241D01*
X103916914Y-127737241D02*
X103916914Y-126721241D01*
X103336342Y-127737241D01*
X103336342Y-126721241D01*
X102320342Y-126769622D02*
X102417104Y-126721241D01*
X102562247Y-126721241D01*
X102707390Y-126769622D01*
X102804152Y-126866383D01*
X102852533Y-126963145D01*
X102900914Y-127156669D01*
X102900914Y-127301812D01*
X102852533Y-127495336D01*
X102804152Y-127592098D01*
X102707390Y-127688860D01*
X102562247Y-127737241D01*
X102465485Y-127737241D01*
X102320342Y-127688860D01*
X102271961Y-127640479D01*
X102271961Y-127301812D01*
X102465485Y-127301812D01*
X107956723Y-129413641D02*
X107956723Y-128736307D01*
X107956723Y-128929831D02*
X107908342Y-128833069D01*
X107859961Y-128784688D01*
X107763200Y-128736307D01*
X107666438Y-128736307D01*
X106795580Y-129413641D02*
X107376152Y-129413641D01*
X107085866Y-129413641D02*
X107085866Y-128397641D01*
X107182628Y-128542783D01*
X107279390Y-128639545D01*
X107376152Y-128687926D01*
X105586057Y-129413641D02*
X105586057Y-128397641D01*
X105005485Y-129413641D01*
X105005485Y-128397641D01*
X104376533Y-129413641D02*
X104473295Y-129365260D01*
X104521676Y-129316879D01*
X104570057Y-129220117D01*
X104570057Y-128929831D01*
X104521676Y-128833069D01*
X104473295Y-128784688D01*
X104376533Y-128736307D01*
X104231390Y-128736307D01*
X104134628Y-128784688D01*
X104086247Y-128833069D01*
X104037866Y-128929831D01*
X104037866Y-129220117D01*
X104086247Y-129316879D01*
X104134628Y-129365260D01*
X104231390Y-129413641D01*
X104376533Y-129413641D01*
X103699200Y-128736307D02*
X103457295Y-129413641D01*
X103215390Y-128736307D01*
X102876723Y-128494402D02*
X102828342Y-128446022D01*
X102731580Y-128397641D01*
X102489676Y-128397641D01*
X102392914Y-128446022D01*
X102344533Y-128494402D01*
X102296152Y-128591164D01*
X102296152Y-128687926D01*
X102344533Y-128833069D01*
X102925104Y-129413641D01*
X102296152Y-129413641D01*
X101667200Y-128397641D02*
X101570438Y-128397641D01*
X101473676Y-128446022D01*
X101425295Y-128494402D01*
X101376914Y-128591164D01*
X101328533Y-128784688D01*
X101328533Y-129026593D01*
X101376914Y-129220117D01*
X101425295Y-129316879D01*
X101473676Y-129365260D01*
X101570438Y-129413641D01*
X101667200Y-129413641D01*
X101763961Y-129365260D01*
X101812342Y-129316879D01*
X101860723Y-129220117D01*
X101909104Y-129026593D01*
X101909104Y-128784688D01*
X101860723Y-128591164D01*
X101812342Y-128494402D01*
X101763961Y-128446022D01*
X101667200Y-128397641D01*
X100941485Y-128494402D02*
X100893104Y-128446022D01*
X100796342Y-128397641D01*
X100554438Y-128397641D01*
X100457676Y-128446022D01*
X100409295Y-128494402D01*
X100360914Y-128591164D01*
X100360914Y-128687926D01*
X100409295Y-128833069D01*
X100989866Y-129413641D01*
X100360914Y-129413641D01*
X99731961Y-128397641D02*
X99635200Y-128397641D01*
X99538438Y-128446022D01*
X99490057Y-128494402D01*
X99441676Y-128591164D01*
X99393295Y-128784688D01*
X99393295Y-129026593D01*
X99441676Y-129220117D01*
X99490057Y-129316879D01*
X99538438Y-129365260D01*
X99635200Y-129413641D01*
X99731961Y-129413641D01*
X99828723Y-129365260D01*
X99877104Y-129316879D01*
X99925485Y-129220117D01*
X99973866Y-129026593D01*
X99973866Y-128784688D01*
X99925485Y-128591164D01*
X99877104Y-128494402D01*
X99828723Y-128446022D01*
X99731961Y-128397641D01*
D10*
X118058666Y-95127344D02*
X118058666Y-96094963D01*
X118639238Y-94933820D02*
X116607238Y-95611153D01*
X118639238Y-96288487D01*
X118639238Y-98126963D02*
X117671619Y-97449630D01*
X118639238Y-96965820D02*
X116607238Y-96965820D01*
X116607238Y-97739915D01*
X116704000Y-97933439D01*
X116800761Y-98030201D01*
X116994285Y-98126963D01*
X117284571Y-98126963D01*
X117478095Y-98030201D01*
X117574857Y-97933439D01*
X117671619Y-97739915D01*
X117671619Y-96965820D01*
X117284571Y-99868677D02*
X118639238Y-99868677D01*
X116510476Y-99384868D02*
X117961904Y-98901058D01*
X117961904Y-100158963D01*
X117478095Y-101223344D02*
X117381333Y-101029820D01*
X117284571Y-100933058D01*
X117091047Y-100836296D01*
X116994285Y-100836296D01*
X116800761Y-100933058D01*
X116704000Y-101029820D01*
X116607238Y-101223344D01*
X116607238Y-101610391D01*
X116704000Y-101803915D01*
X116800761Y-101900677D01*
X116994285Y-101997439D01*
X117091047Y-101997439D01*
X117284571Y-101900677D01*
X117381333Y-101803915D01*
X117478095Y-101610391D01*
X117478095Y-101223344D01*
X117574857Y-101029820D01*
X117671619Y-100933058D01*
X117865142Y-100836296D01*
X118252190Y-100836296D01*
X118445714Y-100933058D01*
X118542476Y-101029820D01*
X118639238Y-101223344D01*
X118639238Y-101610391D01*
X118542476Y-101803915D01*
X118445714Y-101900677D01*
X118252190Y-101997439D01*
X117865142Y-101997439D01*
X117671619Y-101900677D01*
X117574857Y-101803915D01*
X117478095Y-101610391D01*
X117478095Y-103158582D02*
X117381333Y-102965058D01*
X117284571Y-102868296D01*
X117091047Y-102771534D01*
X116994285Y-102771534D01*
X116800761Y-102868296D01*
X116704000Y-102965058D01*
X116607238Y-103158582D01*
X116607238Y-103545630D01*
X116704000Y-103739153D01*
X116800761Y-103835915D01*
X116994285Y-103932677D01*
X117091047Y-103932677D01*
X117284571Y-103835915D01*
X117381333Y-103739153D01*
X117478095Y-103545630D01*
X117478095Y-103158582D01*
X117574857Y-102965058D01*
X117671619Y-102868296D01*
X117865142Y-102771534D01*
X118252190Y-102771534D01*
X118445714Y-102868296D01*
X118542476Y-102965058D01*
X118639238Y-103158582D01*
X118639238Y-103545630D01*
X118542476Y-103739153D01*
X118445714Y-103835915D01*
X118252190Y-103932677D01*
X117865142Y-103932677D01*
X117671619Y-103835915D01*
X117574857Y-103739153D01*
X117478095Y-103545630D01*
D11*
X105174819Y-101361230D02*
X104932914Y-102377230D01*
X104739390Y-101651515D01*
X104545866Y-102377230D01*
X104303961Y-101361230D01*
X103916914Y-102377230D02*
X103916914Y-101361230D01*
X103336342Y-102377230D01*
X103336342Y-101361230D01*
X102320342Y-101409611D02*
X102417104Y-101361230D01*
X102562247Y-101361230D01*
X102707390Y-101409611D01*
X102804152Y-101506372D01*
X102852533Y-101603134D01*
X102900914Y-101796658D01*
X102900914Y-101941801D01*
X102852533Y-102135325D01*
X102804152Y-102232087D01*
X102707390Y-102328849D01*
X102562247Y-102377230D01*
X102465485Y-102377230D01*
X102320342Y-102328849D01*
X102271961Y-102280468D01*
X102271961Y-101941801D01*
X102465485Y-101941801D01*
X107956723Y-104053630D02*
X107956723Y-103376296D01*
X107956723Y-103569820D02*
X107908342Y-103473058D01*
X107859961Y-103424677D01*
X107763200Y-103376296D01*
X107666438Y-103376296D01*
X106795580Y-104053630D02*
X107376152Y-104053630D01*
X107085866Y-104053630D02*
X107085866Y-103037630D01*
X107182628Y-103182772D01*
X107279390Y-103279534D01*
X107376152Y-103327915D01*
X105586057Y-104053630D02*
X105586057Y-103037630D01*
X105005485Y-104053630D01*
X105005485Y-103037630D01*
X104376533Y-104053630D02*
X104473295Y-104005249D01*
X104521676Y-103956868D01*
X104570057Y-103860106D01*
X104570057Y-103569820D01*
X104521676Y-103473058D01*
X104473295Y-103424677D01*
X104376533Y-103376296D01*
X104231390Y-103376296D01*
X104134628Y-103424677D01*
X104086247Y-103473058D01*
X104037866Y-103569820D01*
X104037866Y-103860106D01*
X104086247Y-103956868D01*
X104134628Y-104005249D01*
X104231390Y-104053630D01*
X104376533Y-104053630D01*
X103699200Y-103376296D02*
X103457295Y-104053630D01*
X103215390Y-103376296D01*
X102876723Y-103134391D02*
X102828342Y-103086011D01*
X102731580Y-103037630D01*
X102489676Y-103037630D01*
X102392914Y-103086011D01*
X102344533Y-103134391D01*
X102296152Y-103231153D01*
X102296152Y-103327915D01*
X102344533Y-103473058D01*
X102925104Y-104053630D01*
X102296152Y-104053630D01*
X101667200Y-103037630D02*
X101570438Y-103037630D01*
X101473676Y-103086011D01*
X101425295Y-103134391D01*
X101376914Y-103231153D01*
X101328533Y-103424677D01*
X101328533Y-103666582D01*
X101376914Y-103860106D01*
X101425295Y-103956868D01*
X101473676Y-104005249D01*
X101570438Y-104053630D01*
X101667200Y-104053630D01*
X101763961Y-104005249D01*
X101812342Y-103956868D01*
X101860723Y-103860106D01*
X101909104Y-103666582D01*
X101909104Y-103424677D01*
X101860723Y-103231153D01*
X101812342Y-103134391D01*
X101763961Y-103086011D01*
X101667200Y-103037630D01*
X100941485Y-103134391D02*
X100893104Y-103086011D01*
X100796342Y-103037630D01*
X100554438Y-103037630D01*
X100457676Y-103086011D01*
X100409295Y-103134391D01*
X100360914Y-103231153D01*
X100360914Y-103327915D01*
X100409295Y-103473058D01*
X100989866Y-104053630D01*
X100360914Y-104053630D01*
X99731961Y-103037630D02*
X99635200Y-103037630D01*
X99538438Y-103086011D01*
X99490057Y-103134391D01*
X99441676Y-103231153D01*
X99393295Y-103424677D01*
X99393295Y-103666582D01*
X99441676Y-103860106D01*
X99490057Y-103956868D01*
X99538438Y-104005249D01*
X99635200Y-104053630D01*
X99731961Y-104053630D01*
X99828723Y-104005249D01*
X99877104Y-103956868D01*
X99925485Y-103860106D01*
X99973866Y-103666582D01*
X99973866Y-103424677D01*
X99925485Y-103231153D01*
X99877104Y-103134391D01*
X99828723Y-103086011D01*
X99731961Y-103037630D01*
D10*
X118058666Y-69767333D02*
X118058666Y-70734952D01*
X118639238Y-69573809D02*
X116607238Y-70251142D01*
X118639238Y-70928476D01*
X118639238Y-72766952D02*
X117671619Y-72089619D01*
X118639238Y-71605809D02*
X116607238Y-71605809D01*
X116607238Y-72379904D01*
X116704000Y-72573428D01*
X116800761Y-72670190D01*
X116994285Y-72766952D01*
X117284571Y-72766952D01*
X117478095Y-72670190D01*
X117574857Y-72573428D01*
X117671619Y-72379904D01*
X117671619Y-71605809D01*
X117284571Y-74508666D02*
X118639238Y-74508666D01*
X116510476Y-74024857D02*
X117961904Y-73541047D01*
X117961904Y-74798952D01*
X117478095Y-75863333D02*
X117381333Y-75669809D01*
X117284571Y-75573047D01*
X117091047Y-75476285D01*
X116994285Y-75476285D01*
X116800761Y-75573047D01*
X116704000Y-75669809D01*
X116607238Y-75863333D01*
X116607238Y-76250380D01*
X116704000Y-76443904D01*
X116800761Y-76540666D01*
X116994285Y-76637428D01*
X117091047Y-76637428D01*
X117284571Y-76540666D01*
X117381333Y-76443904D01*
X117478095Y-76250380D01*
X117478095Y-75863333D01*
X117574857Y-75669809D01*
X117671619Y-75573047D01*
X117865142Y-75476285D01*
X118252190Y-75476285D01*
X118445714Y-75573047D01*
X118542476Y-75669809D01*
X118639238Y-75863333D01*
X118639238Y-76250380D01*
X118542476Y-76443904D01*
X118445714Y-76540666D01*
X118252190Y-76637428D01*
X117865142Y-76637428D01*
X117671619Y-76540666D01*
X117574857Y-76443904D01*
X117478095Y-76250380D01*
X117478095Y-77798571D02*
X117381333Y-77605047D01*
X117284571Y-77508285D01*
X117091047Y-77411523D01*
X116994285Y-77411523D01*
X116800761Y-77508285D01*
X116704000Y-77605047D01*
X116607238Y-77798571D01*
X116607238Y-78185619D01*
X116704000Y-78379142D01*
X116800761Y-78475904D01*
X116994285Y-78572666D01*
X117091047Y-78572666D01*
X117284571Y-78475904D01*
X117381333Y-78379142D01*
X117478095Y-78185619D01*
X117478095Y-77798571D01*
X117574857Y-77605047D01*
X117671619Y-77508285D01*
X117865142Y-77411523D01*
X118252190Y-77411523D01*
X118445714Y-77508285D01*
X118542476Y-77605047D01*
X118639238Y-77798571D01*
X118639238Y-78185619D01*
X118542476Y-78379142D01*
X118445714Y-78475904D01*
X118252190Y-78572666D01*
X117865142Y-78572666D01*
X117671619Y-78475904D01*
X117574857Y-78379142D01*
X117478095Y-78185619D01*
D11*
X105174819Y-76001219D02*
X104932914Y-77017219D01*
X104739390Y-76291504D01*
X104545866Y-77017219D01*
X104303961Y-76001219D01*
X103916914Y-77017219D02*
X103916914Y-76001219D01*
X103336342Y-77017219D01*
X103336342Y-76001219D01*
X102320342Y-76049600D02*
X102417104Y-76001219D01*
X102562247Y-76001219D01*
X102707390Y-76049600D01*
X102804152Y-76146361D01*
X102852533Y-76243123D01*
X102900914Y-76436647D01*
X102900914Y-76581790D01*
X102852533Y-76775314D01*
X102804152Y-76872076D01*
X102707390Y-76968838D01*
X102562247Y-77017219D01*
X102465485Y-77017219D01*
X102320342Y-76968838D01*
X102271961Y-76920457D01*
X102271961Y-76581790D01*
X102465485Y-76581790D01*
X107956723Y-78693619D02*
X107956723Y-78016285D01*
X107956723Y-78209809D02*
X107908342Y-78113047D01*
X107859961Y-78064666D01*
X107763200Y-78016285D01*
X107666438Y-78016285D01*
X106795580Y-78693619D02*
X107376152Y-78693619D01*
X107085866Y-78693619D02*
X107085866Y-77677619D01*
X107182628Y-77822761D01*
X107279390Y-77919523D01*
X107376152Y-77967904D01*
X105586057Y-78693619D02*
X105586057Y-77677619D01*
X105005485Y-78693619D01*
X105005485Y-77677619D01*
X104376533Y-78693619D02*
X104473295Y-78645238D01*
X104521676Y-78596857D01*
X104570057Y-78500095D01*
X104570057Y-78209809D01*
X104521676Y-78113047D01*
X104473295Y-78064666D01*
X104376533Y-78016285D01*
X104231390Y-78016285D01*
X104134628Y-78064666D01*
X104086247Y-78113047D01*
X104037866Y-78209809D01*
X104037866Y-78500095D01*
X104086247Y-78596857D01*
X104134628Y-78645238D01*
X104231390Y-78693619D01*
X104376533Y-78693619D01*
X103699200Y-78016285D02*
X103457295Y-78693619D01*
X103215390Y-78016285D01*
X102876723Y-77774380D02*
X102828342Y-77726000D01*
X102731580Y-77677619D01*
X102489676Y-77677619D01*
X102392914Y-77726000D01*
X102344533Y-77774380D01*
X102296152Y-77871142D01*
X102296152Y-77967904D01*
X102344533Y-78113047D01*
X102925104Y-78693619D01*
X102296152Y-78693619D01*
X101667200Y-77677619D02*
X101570438Y-77677619D01*
X101473676Y-77726000D01*
X101425295Y-77774380D01*
X101376914Y-77871142D01*
X101328533Y-78064666D01*
X101328533Y-78306571D01*
X101376914Y-78500095D01*
X101425295Y-78596857D01*
X101473676Y-78645238D01*
X101570438Y-78693619D01*
X101667200Y-78693619D01*
X101763961Y-78645238D01*
X101812342Y-78596857D01*
X101860723Y-78500095D01*
X101909104Y-78306571D01*
X101909104Y-78064666D01*
X101860723Y-77871142D01*
X101812342Y-77774380D01*
X101763961Y-77726000D01*
X101667200Y-77677619D01*
X100941485Y-77774380D02*
X100893104Y-77726000D01*
X100796342Y-77677619D01*
X100554438Y-77677619D01*
X100457676Y-77726000D01*
X100409295Y-77774380D01*
X100360914Y-77871142D01*
X100360914Y-77967904D01*
X100409295Y-78113047D01*
X100989866Y-78693619D01*
X100360914Y-78693619D01*
X99731961Y-77677619D02*
X99635200Y-77677619D01*
X99538438Y-77726000D01*
X99490057Y-77774380D01*
X99441676Y-77871142D01*
X99393295Y-78064666D01*
X99393295Y-78306571D01*
X99441676Y-78500095D01*
X99490057Y-78596857D01*
X99538438Y-78645238D01*
X99635200Y-78693619D01*
X99731961Y-78693619D01*
X99828723Y-78645238D01*
X99877104Y-78596857D01*
X99925485Y-78500095D01*
X99973866Y-78306571D01*
X99973866Y-78064666D01*
X99925485Y-77871142D01*
X99877104Y-77774380D01*
X99828723Y-77726000D01*
X99731961Y-77677619D01*
D12*
G04 #@! TO.C,U1*
X77283200Y-140902833D02*
X110303200Y-140902833D01*
X77283200Y-140902833D02*
X77283200Y-158682833D01*
X77283200Y-158682833D02*
X110303200Y-158682833D01*
X110303200Y-158682833D02*
X110303200Y-140902833D01*
X77283200Y-115542822D02*
X110303200Y-115542822D01*
X77283200Y-115542822D02*
X77283200Y-133322822D01*
X77283200Y-133322822D02*
X110303200Y-133322822D01*
X110303200Y-133322822D02*
X110303200Y-115542822D01*
X77283200Y-90182811D02*
X110303200Y-90182811D01*
X77283200Y-90182811D02*
X77283200Y-107962811D01*
X77283200Y-107962811D02*
X110303200Y-107962811D01*
X110303200Y-107962811D02*
X110303200Y-90182811D01*
X77283200Y-64822800D02*
X110303200Y-64822800D01*
X77283200Y-64822800D02*
X77283200Y-82602800D01*
X77283200Y-82602800D02*
X110303200Y-82602800D01*
X110303200Y-82602800D02*
X110303200Y-64822800D01*
G04 #@! TD*
M02*
