G04 #@! TF.GenerationSoftware,KiCad,Pcbnew,5.1.7-a382d34a8~87~ubuntu20.04.1*
G04 #@! TF.CreationDate,2020-11-15T14:28:19+09:00*
G04 #@! TF.ProjectId,adapter-panel,61646170-7465-4722-9d70-616e656c2e6b,rev?*
G04 #@! TF.SameCoordinates,Original*
G04 #@! TF.FileFunction,Soldermask,Top*
G04 #@! TF.FilePolarity,Negative*
%FSLAX46Y46*%
G04 Gerber Fmt 4.6, Leading zero omitted, Abs format (unit mm)*
G04 Created by KiCad (PCBNEW 5.1.7-a382d34a8~87~ubuntu20.04.1) date 2020-11-15 14:28:19*
%MOMM*%
%LPD*%
G01*
G04 APERTURE LIST*
%ADD10C,0.500000*%
%ADD11C,1.700000*%
%ADD12C,3.200000*%
%ADD13R,1.600000X1.600000*%
%ADD14C,1.600000*%
G04 APERTURE END LIST*
D10*
G04 #@! TO.C,REF\u002A\u002A*
X106520006Y-138819026D03*
G04 #@! TD*
G04 #@! TO.C,REF\u002A\u002A*
X105520006Y-138819025D03*
G04 #@! TD*
G04 #@! TO.C,REF\u002A\u002A*
X104520006Y-138819025D03*
G04 #@! TD*
G04 #@! TO.C,REF\u002A\u002A*
X103520006Y-138819024D03*
G04 #@! TD*
G04 #@! TO.C,REF\u002A\u002A*
X91280004Y-138819017D03*
G04 #@! TD*
G04 #@! TO.C,REF\u002A\u002A*
X90280004Y-138819016D03*
G04 #@! TD*
G04 #@! TO.C,REF\u002A\u002A*
X89280004Y-138819016D03*
G04 #@! TD*
G04 #@! TO.C,REF\u002A\u002A*
X88280004Y-138819015D03*
G04 #@! TD*
G04 #@! TO.C,REF\u002A\u002A*
X76040001Y-138819008D03*
G04 #@! TD*
G04 #@! TO.C,REF\u002A\u002A*
X75040001Y-138819007D03*
G04 #@! TD*
G04 #@! TO.C,REF\u002A\u002A*
X74040001Y-138819007D03*
G04 #@! TD*
G04 #@! TO.C,REF\u002A\u002A*
X73040001Y-138819006D03*
G04 #@! TD*
G04 #@! TO.C,REF\u002A\u002A*
X103520006Y-136321005D03*
G04 #@! TD*
G04 #@! TO.C,REF\u002A\u002A*
X104520006Y-136321005D03*
G04 #@! TD*
G04 #@! TO.C,REF\u002A\u002A*
X105520006Y-136321004D03*
G04 #@! TD*
G04 #@! TO.C,REF\u002A\u002A*
X106520006Y-136321004D03*
G04 #@! TD*
G04 #@! TO.C,REF\u002A\u002A*
X88280004Y-136321011D03*
G04 #@! TD*
G04 #@! TO.C,REF\u002A\u002A*
X89280004Y-136321011D03*
G04 #@! TD*
G04 #@! TO.C,REF\u002A\u002A*
X90280004Y-136321010D03*
G04 #@! TD*
G04 #@! TO.C,REF\u002A\u002A*
X91280004Y-136321010D03*
G04 #@! TD*
G04 #@! TO.C,REF\u002A\u002A*
X73040001Y-136321017D03*
G04 #@! TD*
G04 #@! TO.C,REF\u002A\u002A*
X74040001Y-136321017D03*
G04 #@! TD*
G04 #@! TO.C,REF\u002A\u002A*
X75040001Y-136321016D03*
G04 #@! TD*
G04 #@! TO.C,REF\u002A\u002A*
X76040001Y-136321016D03*
G04 #@! TD*
G04 #@! TO.C,REF\u002A\u002A*
X106520006Y-113459017D03*
G04 #@! TD*
G04 #@! TO.C,REF\u002A\u002A*
X105520006Y-113459017D03*
G04 #@! TD*
G04 #@! TO.C,REF\u002A\u002A*
X104520006Y-113459016D03*
G04 #@! TD*
G04 #@! TO.C,REF\u002A\u002A*
X103520006Y-113459016D03*
G04 #@! TD*
G04 #@! TO.C,REF\u002A\u002A*
X91280004Y-113459011D03*
G04 #@! TD*
G04 #@! TO.C,REF\u002A\u002A*
X90280004Y-113459011D03*
G04 #@! TD*
G04 #@! TO.C,REF\u002A\u002A*
X89280004Y-113459010D03*
G04 #@! TD*
G04 #@! TO.C,REF\u002A\u002A*
X88280004Y-113459010D03*
G04 #@! TD*
G04 #@! TO.C,REF\u002A\u002A*
X76040001Y-113459005D03*
G04 #@! TD*
G04 #@! TO.C,REF\u002A\u002A*
X75040001Y-113459005D03*
G04 #@! TD*
G04 #@! TO.C,REF\u002A\u002A*
X74040001Y-113459004D03*
G04 #@! TD*
G04 #@! TO.C,REF\u002A\u002A*
X73040001Y-113459004D03*
G04 #@! TD*
G04 #@! TO.C,REF\u002A\u002A*
X103520006Y-110961002D03*
G04 #@! TD*
G04 #@! TO.C,REF\u002A\u002A*
X104520006Y-110961002D03*
G04 #@! TD*
G04 #@! TO.C,REF\u002A\u002A*
X105520006Y-110961002D03*
G04 #@! TD*
G04 #@! TO.C,REF\u002A\u002A*
X106520006Y-110961002D03*
G04 #@! TD*
G04 #@! TO.C,REF\u002A\u002A*
X88280004Y-110961005D03*
G04 #@! TD*
G04 #@! TO.C,REF\u002A\u002A*
X89280004Y-110961005D03*
G04 #@! TD*
G04 #@! TO.C,REF\u002A\u002A*
X90280004Y-110961005D03*
G04 #@! TD*
G04 #@! TO.C,REF\u002A\u002A*
X91280004Y-110961005D03*
G04 #@! TD*
G04 #@! TO.C,REF\u002A\u002A*
X73040001Y-110961008D03*
G04 #@! TD*
G04 #@! TO.C,REF\u002A\u002A*
X74040001Y-110961008D03*
G04 #@! TD*
G04 #@! TO.C,REF\u002A\u002A*
X75040001Y-110961008D03*
G04 #@! TD*
G04 #@! TO.C,REF\u002A\u002A*
X76040001Y-110961008D03*
G04 #@! TD*
G04 #@! TO.C,REF\u002A\u002A*
X106520006Y-88099008D03*
G04 #@! TD*
G04 #@! TO.C,REF\u002A\u002A*
X105520006Y-88099008D03*
G04 #@! TD*
G04 #@! TO.C,REF\u002A\u002A*
X104520006Y-88099008D03*
G04 #@! TD*
G04 #@! TO.C,REF\u002A\u002A*
X103520006Y-88099008D03*
G04 #@! TD*
G04 #@! TO.C,REF\u002A\u002A*
X91280004Y-88099005D03*
G04 #@! TD*
G04 #@! TO.C,REF\u002A\u002A*
X90280004Y-88099005D03*
G04 #@! TD*
G04 #@! TO.C,REF\u002A\u002A*
X89280004Y-88099005D03*
G04 #@! TD*
G04 #@! TO.C,REF\u002A\u002A*
X88280004Y-88099005D03*
G04 #@! TD*
G04 #@! TO.C,REF\u002A\u002A*
X76040001Y-88099002D03*
G04 #@! TD*
G04 #@! TO.C,REF\u002A\u002A*
X75040001Y-88099002D03*
G04 #@! TD*
G04 #@! TO.C,REF\u002A\u002A*
X74040001Y-88099002D03*
G04 #@! TD*
G04 #@! TO.C,REF\u002A\u002A*
X73040001Y-88099002D03*
G04 #@! TD*
G04 #@! TO.C,REF\u002A\u002A*
X103520006Y-85601000D03*
G04 #@! TD*
G04 #@! TO.C,REF\u002A\u002A*
X104520006Y-85601000D03*
G04 #@! TD*
G04 #@! TO.C,REF\u002A\u002A*
X105520006Y-85601000D03*
G04 #@! TD*
G04 #@! TO.C,REF\u002A\u002A*
X106520006Y-85601000D03*
G04 #@! TD*
G04 #@! TO.C,REF\u002A\u002A*
X88280004Y-85601000D03*
G04 #@! TD*
G04 #@! TO.C,REF\u002A\u002A*
X89280004Y-85601000D03*
G04 #@! TD*
G04 #@! TO.C,REF\u002A\u002A*
X90280004Y-85601000D03*
G04 #@! TD*
G04 #@! TO.C,REF\u002A\u002A*
X91280004Y-85601000D03*
G04 #@! TD*
G04 #@! TO.C,REF\u002A\u002A*
X73040001Y-85601000D03*
G04 #@! TD*
G04 #@! TO.C,REF\u002A\u002A*
X74040001Y-85601000D03*
G04 #@! TD*
G04 #@! TO.C,REF\u002A\u002A*
X75040001Y-85601000D03*
G04 #@! TD*
G04 #@! TO.C,REF\u002A\u002A*
X76040001Y-85601000D03*
G04 #@! TD*
D11*
G04 #@! TO.C,J1*
X101420000Y-150775033D03*
D12*
X112940000Y-148630033D03*
X66140000Y-148630033D03*
D11*
X99260000Y-150775033D03*
X97100000Y-150775033D03*
X94940000Y-150775033D03*
X92780000Y-150775033D03*
X90620000Y-150775033D03*
X88460000Y-150775033D03*
X86300000Y-150775033D03*
X84140000Y-150775033D03*
X81980000Y-150775033D03*
X79820000Y-150775033D03*
X77660000Y-150775033D03*
X101420000Y-146485033D03*
X99260000Y-146485033D03*
X97100000Y-146485033D03*
X94940000Y-146485033D03*
X92780000Y-146485033D03*
X90620000Y-146485033D03*
X88460000Y-146485033D03*
X86300000Y-146485033D03*
X84140000Y-146485033D03*
X81980000Y-146485033D03*
X79820000Y-146485033D03*
X77660000Y-146485033D03*
G04 #@! TD*
D13*
G04 #@! TO.C,U1*
X81093200Y-142172833D03*
D14*
X83633200Y-142172833D03*
X86173200Y-142172833D03*
X88713200Y-142172833D03*
X91253200Y-142172833D03*
X93793200Y-142172833D03*
X96333200Y-142172833D03*
X98873200Y-142172833D03*
X101413200Y-142172833D03*
X103953200Y-142172833D03*
X106493200Y-142172833D03*
X109033200Y-142172833D03*
X109033200Y-157412833D03*
X106493200Y-157412833D03*
X103953200Y-157412833D03*
X101413200Y-157412833D03*
X98873200Y-157412833D03*
X96333200Y-157412833D03*
X93793200Y-157412833D03*
X91253200Y-157412833D03*
X88713200Y-157412833D03*
X86173200Y-157412833D03*
X83633200Y-157412833D03*
X81093200Y-157412833D03*
G04 #@! TD*
D11*
G04 #@! TO.C,J1*
X101420000Y-125415022D03*
D12*
X112940000Y-123270022D03*
X66140000Y-123270022D03*
D11*
X99260000Y-125415022D03*
X97100000Y-125415022D03*
X94940000Y-125415022D03*
X92780000Y-125415022D03*
X90620000Y-125415022D03*
X88460000Y-125415022D03*
X86300000Y-125415022D03*
X84140000Y-125415022D03*
X81980000Y-125415022D03*
X79820000Y-125415022D03*
X77660000Y-125415022D03*
X101420000Y-121125022D03*
X99260000Y-121125022D03*
X97100000Y-121125022D03*
X94940000Y-121125022D03*
X92780000Y-121125022D03*
X90620000Y-121125022D03*
X88460000Y-121125022D03*
X86300000Y-121125022D03*
X84140000Y-121125022D03*
X81980000Y-121125022D03*
X79820000Y-121125022D03*
X77660000Y-121125022D03*
G04 #@! TD*
D13*
G04 #@! TO.C,U1*
X81093200Y-116812822D03*
D14*
X83633200Y-116812822D03*
X86173200Y-116812822D03*
X88713200Y-116812822D03*
X91253200Y-116812822D03*
X93793200Y-116812822D03*
X96333200Y-116812822D03*
X98873200Y-116812822D03*
X101413200Y-116812822D03*
X103953200Y-116812822D03*
X106493200Y-116812822D03*
X109033200Y-116812822D03*
X109033200Y-132052822D03*
X106493200Y-132052822D03*
X103953200Y-132052822D03*
X101413200Y-132052822D03*
X98873200Y-132052822D03*
X96333200Y-132052822D03*
X93793200Y-132052822D03*
X91253200Y-132052822D03*
X88713200Y-132052822D03*
X86173200Y-132052822D03*
X83633200Y-132052822D03*
X81093200Y-132052822D03*
G04 #@! TD*
D11*
G04 #@! TO.C,J1*
X101420000Y-100055011D03*
D12*
X112940000Y-97910011D03*
X66140000Y-97910011D03*
D11*
X99260000Y-100055011D03*
X97100000Y-100055011D03*
X94940000Y-100055011D03*
X92780000Y-100055011D03*
X90620000Y-100055011D03*
X88460000Y-100055011D03*
X86300000Y-100055011D03*
X84140000Y-100055011D03*
X81980000Y-100055011D03*
X79820000Y-100055011D03*
X77660000Y-100055011D03*
X101420000Y-95765011D03*
X99260000Y-95765011D03*
X97100000Y-95765011D03*
X94940000Y-95765011D03*
X92780000Y-95765011D03*
X90620000Y-95765011D03*
X88460000Y-95765011D03*
X86300000Y-95765011D03*
X84140000Y-95765011D03*
X81980000Y-95765011D03*
X79820000Y-95765011D03*
X77660000Y-95765011D03*
G04 #@! TD*
D13*
G04 #@! TO.C,U1*
X81093200Y-91452811D03*
D14*
X83633200Y-91452811D03*
X86173200Y-91452811D03*
X88713200Y-91452811D03*
X91253200Y-91452811D03*
X93793200Y-91452811D03*
X96333200Y-91452811D03*
X98873200Y-91452811D03*
X101413200Y-91452811D03*
X103953200Y-91452811D03*
X106493200Y-91452811D03*
X109033200Y-91452811D03*
X109033200Y-106692811D03*
X106493200Y-106692811D03*
X103953200Y-106692811D03*
X101413200Y-106692811D03*
X98873200Y-106692811D03*
X96333200Y-106692811D03*
X93793200Y-106692811D03*
X91253200Y-106692811D03*
X88713200Y-106692811D03*
X86173200Y-106692811D03*
X83633200Y-106692811D03*
X81093200Y-106692811D03*
G04 #@! TD*
D11*
G04 #@! TO.C,J1*
X101420000Y-74695000D03*
D12*
X112940000Y-72550000D03*
X66140000Y-72550000D03*
D11*
X99260000Y-74695000D03*
X97100000Y-74695000D03*
X94940000Y-74695000D03*
X92780000Y-74695000D03*
X90620000Y-74695000D03*
X88460000Y-74695000D03*
X86300000Y-74695000D03*
X84140000Y-74695000D03*
X81980000Y-74695000D03*
X79820000Y-74695000D03*
X77660000Y-74695000D03*
X101420000Y-70405000D03*
X99260000Y-70405000D03*
X97100000Y-70405000D03*
X94940000Y-70405000D03*
X92780000Y-70405000D03*
X90620000Y-70405000D03*
X88460000Y-70405000D03*
X86300000Y-70405000D03*
X84140000Y-70405000D03*
X81980000Y-70405000D03*
X79820000Y-70405000D03*
X77660000Y-70405000D03*
G04 #@! TD*
D13*
G04 #@! TO.C,U1*
X81093200Y-66092800D03*
D14*
X83633200Y-66092800D03*
X86173200Y-66092800D03*
X88713200Y-66092800D03*
X91253200Y-66092800D03*
X93793200Y-66092800D03*
X96333200Y-66092800D03*
X98873200Y-66092800D03*
X101413200Y-66092800D03*
X103953200Y-66092800D03*
X106493200Y-66092800D03*
X109033200Y-66092800D03*
X109033200Y-81332800D03*
X106493200Y-81332800D03*
X103953200Y-81332800D03*
X101413200Y-81332800D03*
X98873200Y-81332800D03*
X96333200Y-81332800D03*
X93793200Y-81332800D03*
X91253200Y-81332800D03*
X88713200Y-81332800D03*
X86173200Y-81332800D03*
X83633200Y-81332800D03*
X81093200Y-81332800D03*
G04 #@! TD*
M02*
