G04 #@! TF.GenerationSoftware,KiCad,Pcbnew,5.1.7-a382d34a8~87~ubuntu20.04.1*
G04 #@! TF.CreationDate,2020-11-15T14:17:37+09:00*
G04 #@! TF.ProjectId,adapter-panel,61646170-7465-4722-9d70-616e656c2e6b,rev?*
G04 #@! TF.SameCoordinates,Original*
G04 #@! TF.FileFunction,Other,Comment*
%FSLAX46Y46*%
G04 Gerber Fmt 4.6, Leading zero omitted, Abs format (unit mm)*
G04 Created by KiCad (PCBNEW 5.1.7-a382d34a8~87~ubuntu20.04.1) date 2020-11-15 14:17:37*
%MOMM*%
%LPD*%
G01*
G04 APERTURE LIST*
%ADD10C,0.400000*%
G04 APERTURE END LIST*
D10*
X126711476Y-137724761D02*
X127378142Y-139724761D01*
X128044809Y-137724761D01*
X128711476Y-138962857D02*
X130235285Y-138962857D01*
X132330523Y-139534285D02*
X132235285Y-139629523D01*
X131949571Y-139724761D01*
X131759095Y-139724761D01*
X131473380Y-139629523D01*
X131282904Y-139439047D01*
X131187666Y-139248571D01*
X131092428Y-138867619D01*
X131092428Y-138581904D01*
X131187666Y-138200952D01*
X131282904Y-138010476D01*
X131473380Y-137820000D01*
X131759095Y-137724761D01*
X131949571Y-137724761D01*
X132235285Y-137820000D01*
X132330523Y-137915238D01*
X133187666Y-137724761D02*
X133187666Y-139343809D01*
X133282904Y-139534285D01*
X133378142Y-139629523D01*
X133568619Y-139724761D01*
X133949571Y-139724761D01*
X134140047Y-139629523D01*
X134235285Y-139534285D01*
X134330523Y-139343809D01*
X134330523Y-137724761D01*
X134997190Y-137724761D02*
X136140047Y-137724761D01*
X135568619Y-139724761D02*
X135568619Y-137724761D01*
X56299000Y-138820000D02*
X123261000Y-138820000D01*
X126711476Y-87004761D02*
X127378142Y-89004761D01*
X128044809Y-87004761D01*
X128711476Y-88242857D02*
X130235285Y-88242857D01*
X132330523Y-88814285D02*
X132235285Y-88909523D01*
X131949571Y-89004761D01*
X131759095Y-89004761D01*
X131473380Y-88909523D01*
X131282904Y-88719047D01*
X131187666Y-88528571D01*
X131092428Y-88147619D01*
X131092428Y-87861904D01*
X131187666Y-87480952D01*
X131282904Y-87290476D01*
X131473380Y-87100000D01*
X131759095Y-87004761D01*
X131949571Y-87004761D01*
X132235285Y-87100000D01*
X132330523Y-87195238D01*
X133187666Y-87004761D02*
X133187666Y-88623809D01*
X133282904Y-88814285D01*
X133378142Y-88909523D01*
X133568619Y-89004761D01*
X133949571Y-89004761D01*
X134140047Y-88909523D01*
X134235285Y-88814285D01*
X134330523Y-88623809D01*
X134330523Y-87004761D01*
X134997190Y-87004761D02*
X136140047Y-87004761D01*
X135568619Y-89004761D02*
X135568619Y-87004761D01*
X56299000Y-88100000D02*
X123261000Y-88100000D01*
X126711476Y-109864761D02*
X127378142Y-111864761D01*
X128044809Y-109864761D01*
X128711476Y-111102857D02*
X130235285Y-111102857D01*
X132330523Y-111674285D02*
X132235285Y-111769523D01*
X131949571Y-111864761D01*
X131759095Y-111864761D01*
X131473380Y-111769523D01*
X131282904Y-111579047D01*
X131187666Y-111388571D01*
X131092428Y-111007619D01*
X131092428Y-110721904D01*
X131187666Y-110340952D01*
X131282904Y-110150476D01*
X131473380Y-109960000D01*
X131759095Y-109864761D01*
X131949571Y-109864761D01*
X132235285Y-109960000D01*
X132330523Y-110055238D01*
X133187666Y-109864761D02*
X133187666Y-111483809D01*
X133282904Y-111674285D01*
X133378142Y-111769523D01*
X133568619Y-111864761D01*
X133949571Y-111864761D01*
X134140047Y-111769523D01*
X134235285Y-111674285D01*
X134330523Y-111483809D01*
X134330523Y-109864761D01*
X134997190Y-109864761D02*
X136140047Y-109864761D01*
X135568619Y-111864761D02*
X135568619Y-109864761D01*
X56299000Y-110960000D02*
X123261000Y-110960000D01*
X126711476Y-112364761D02*
X127378142Y-114364761D01*
X128044809Y-112364761D01*
X128711476Y-113602857D02*
X130235285Y-113602857D01*
X132330523Y-114174285D02*
X132235285Y-114269523D01*
X131949571Y-114364761D01*
X131759095Y-114364761D01*
X131473380Y-114269523D01*
X131282904Y-114079047D01*
X131187666Y-113888571D01*
X131092428Y-113507619D01*
X131092428Y-113221904D01*
X131187666Y-112840952D01*
X131282904Y-112650476D01*
X131473380Y-112460000D01*
X131759095Y-112364761D01*
X131949571Y-112364761D01*
X132235285Y-112460000D01*
X132330523Y-112555238D01*
X133187666Y-112364761D02*
X133187666Y-113983809D01*
X133282904Y-114174285D01*
X133378142Y-114269523D01*
X133568619Y-114364761D01*
X133949571Y-114364761D01*
X134140047Y-114269523D01*
X134235285Y-114174285D01*
X134330523Y-113983809D01*
X134330523Y-112364761D01*
X134997190Y-112364761D02*
X136140047Y-112364761D01*
X135568619Y-114364761D02*
X135568619Y-112364761D01*
X56299000Y-113460000D02*
X123261000Y-113460000D01*
X126711476Y-135224761D02*
X127378142Y-137224761D01*
X128044809Y-135224761D01*
X128711476Y-136462857D02*
X130235285Y-136462857D01*
X132330523Y-137034285D02*
X132235285Y-137129523D01*
X131949571Y-137224761D01*
X131759095Y-137224761D01*
X131473380Y-137129523D01*
X131282904Y-136939047D01*
X131187666Y-136748571D01*
X131092428Y-136367619D01*
X131092428Y-136081904D01*
X131187666Y-135700952D01*
X131282904Y-135510476D01*
X131473380Y-135320000D01*
X131759095Y-135224761D01*
X131949571Y-135224761D01*
X132235285Y-135320000D01*
X132330523Y-135415238D01*
X133187666Y-135224761D02*
X133187666Y-136843809D01*
X133282904Y-137034285D01*
X133378142Y-137129523D01*
X133568619Y-137224761D01*
X133949571Y-137224761D01*
X134140047Y-137129523D01*
X134235285Y-137034285D01*
X134330523Y-136843809D01*
X134330523Y-135224761D01*
X134997190Y-135224761D02*
X136140047Y-135224761D01*
X135568619Y-137224761D02*
X135568619Y-135224761D01*
X56299000Y-136320000D02*
X123261000Y-136320000D01*
X126711476Y-84504761D02*
X127378142Y-86504761D01*
X128044809Y-84504761D01*
X128711476Y-85742857D02*
X130235285Y-85742857D01*
X132330523Y-86314285D02*
X132235285Y-86409523D01*
X131949571Y-86504761D01*
X131759095Y-86504761D01*
X131473380Y-86409523D01*
X131282904Y-86219047D01*
X131187666Y-86028571D01*
X131092428Y-85647619D01*
X131092428Y-85361904D01*
X131187666Y-84980952D01*
X131282904Y-84790476D01*
X131473380Y-84600000D01*
X131759095Y-84504761D01*
X131949571Y-84504761D01*
X132235285Y-84600000D01*
X132330523Y-84695238D01*
X133187666Y-84504761D02*
X133187666Y-86123809D01*
X133282904Y-86314285D01*
X133378142Y-86409523D01*
X133568619Y-86504761D01*
X133949571Y-86504761D01*
X134140047Y-86409523D01*
X134235285Y-86314285D01*
X134330523Y-86123809D01*
X134330523Y-84504761D01*
X134997190Y-84504761D02*
X136140047Y-84504761D01*
X135568619Y-86504761D02*
X135568619Y-84504761D01*
X56299000Y-85600000D02*
X123261000Y-85600000D01*
M02*
