M48
; DRILL file {KiCad 5.1.7-a382d34a8~87~ubuntu20.04.1} date Sun Nov 15 14:17:37 2020
; FORMAT={-:-/ absolute / metric / decimal}
; #@! TF.CreationDate,2020-11-15T14:17:37+09:00
; #@! TF.GenerationSoftware,Kicad,Pcbnew,5.1.7-a382d34a8~87~ubuntu20.04.1
FMAT,2
METRIC
T1C1.100
T2C1.200
T3C3.200
%
G90
G05
T1
X81.093Y-91.453
X81.093Y-106.693
X83.633Y-91.453
X83.633Y-106.693
X86.173Y-91.453
X86.173Y-106.693
X88.713Y-91.453
X88.713Y-106.693
X91.253Y-91.453
X91.253Y-106.693
X93.793Y-91.453
X93.793Y-106.693
X96.333Y-91.453
X96.333Y-106.693
X98.873Y-91.453
X98.873Y-106.693
X101.413Y-91.453
X101.413Y-106.693
X103.953Y-91.453
X103.953Y-106.693
X106.493Y-91.453
X106.493Y-106.693
X109.033Y-91.453
X109.033Y-106.693
X81.093Y-142.173
X81.093Y-157.413
X83.633Y-142.173
X83.633Y-157.413
X86.173Y-142.173
X86.173Y-157.413
X88.713Y-142.173
X88.713Y-157.413
X91.253Y-142.173
X91.253Y-157.413
X93.793Y-142.173
X93.793Y-157.413
X96.333Y-142.173
X96.333Y-157.413
X98.873Y-142.173
X98.873Y-157.413
X101.413Y-142.173
X101.413Y-157.413
X103.953Y-142.173
X103.953Y-157.413
X106.493Y-142.173
X106.493Y-157.413
X109.033Y-142.173
X109.033Y-157.413
X81.093Y-66.093
X81.093Y-81.333
X83.633Y-66.093
X83.633Y-81.333
X86.173Y-66.093
X86.173Y-81.333
X88.713Y-66.093
X88.713Y-81.333
X91.253Y-66.093
X91.253Y-81.333
X93.793Y-66.093
X93.793Y-81.333
X96.333Y-66.093
X96.333Y-81.333
X98.873Y-66.093
X98.873Y-81.333
X101.413Y-66.093
X101.413Y-81.333
X103.953Y-66.093
X103.953Y-81.333
X106.493Y-66.093
X106.493Y-81.333
X109.033Y-66.093
X109.033Y-81.333
X81.093Y-116.813
X81.093Y-132.053
X83.633Y-116.813
X83.633Y-132.053
X86.173Y-116.813
X86.173Y-132.053
X88.713Y-116.813
X88.713Y-132.053
X91.253Y-116.813
X91.253Y-132.053
X93.793Y-116.813
X93.793Y-132.053
X96.333Y-116.813
X96.333Y-132.053
X98.873Y-116.813
X98.873Y-132.053
X101.413Y-116.813
X101.413Y-132.053
X103.953Y-116.813
X103.953Y-132.053
X106.493Y-116.813
X106.493Y-132.053
X109.033Y-116.813
X109.033Y-132.053
T2
X77.66Y-146.485
X77.66Y-150.775
X79.82Y-146.485
X79.82Y-150.775
X81.98Y-146.485
X81.98Y-150.775
X84.14Y-146.485
X84.14Y-150.775
X86.3Y-146.485
X86.3Y-150.775
X88.46Y-146.485
X88.46Y-150.775
X90.62Y-146.485
X90.62Y-150.775
X92.78Y-146.485
X92.78Y-150.775
X94.94Y-146.485
X94.94Y-150.775
X97.1Y-146.485
X97.1Y-150.775
X99.26Y-146.485
X99.26Y-150.775
X101.42Y-146.485
X101.42Y-150.775
X77.66Y-121.125
X77.66Y-125.415
X79.82Y-121.125
X79.82Y-125.415
X81.98Y-121.125
X81.98Y-125.415
X84.14Y-121.125
X84.14Y-125.415
X86.3Y-121.125
X86.3Y-125.415
X88.46Y-121.125
X88.46Y-125.415
X90.62Y-121.125
X90.62Y-125.415
X92.78Y-121.125
X92.78Y-125.415
X94.94Y-121.125
X94.94Y-125.415
X97.1Y-121.125
X97.1Y-125.415
X99.26Y-121.125
X99.26Y-125.415
X101.42Y-121.125
X101.42Y-125.415
X77.66Y-95.765
X77.66Y-100.055
X79.82Y-95.765
X79.82Y-100.055
X81.98Y-95.765
X81.98Y-100.055
X84.14Y-95.765
X84.14Y-100.055
X86.3Y-95.765
X86.3Y-100.055
X88.46Y-95.765
X88.46Y-100.055
X90.62Y-95.765
X90.62Y-100.055
X92.78Y-95.765
X92.78Y-100.055
X94.94Y-95.765
X94.94Y-100.055
X97.1Y-95.765
X97.1Y-100.055
X99.26Y-95.765
X99.26Y-100.055
X101.42Y-95.765
X101.42Y-100.055
X77.66Y-70.405
X77.66Y-74.695
X79.82Y-70.405
X79.82Y-74.695
X81.98Y-70.405
X81.98Y-74.695
X84.14Y-70.405
X84.14Y-74.695
X86.3Y-70.405
X86.3Y-74.695
X88.46Y-70.405
X88.46Y-74.695
X90.62Y-70.405
X90.62Y-74.695
X92.78Y-70.405
X92.78Y-74.695
X94.94Y-70.405
X94.94Y-74.695
X97.1Y-70.405
X97.1Y-74.695
X99.26Y-70.405
X99.26Y-74.695
X101.42Y-70.405
X101.42Y-74.695
T3
X66.14Y-123.27
X112.94Y-123.27
X66.14Y-97.91
X112.94Y-97.91
X66.14Y-72.55
X112.94Y-72.55
X66.14Y-148.63
X112.94Y-148.63
T0
M30
