G04 #@! TF.GenerationSoftware,KiCad,Pcbnew,5.1.7-a382d34a8~87~ubuntu20.04.1*
G04 #@! TF.CreationDate,2020-11-15T14:28:19+09:00*
G04 #@! TF.ProjectId,adapter-panel,61646170-7465-4722-9d70-616e656c2e6b,rev?*
G04 #@! TF.SameCoordinates,Original*
G04 #@! TF.FileFunction,Profile,NP*
%FSLAX46Y46*%
G04 Gerber Fmt 4.6, Leading zero omitted, Abs format (unit mm)*
G04 Created by KiCad (PCBNEW 5.1.7-a382d34a8~87~ubuntu20.04.1) date 2020-11-15 14:28:19*
%MOMM*%
%LPD*%
G01*
G04 APERTURE LIST*
G04 #@! TA.AperFunction,Profile*
%ADD10C,0.100000*%
G04 #@! TD*
G04 APERTURE END LIST*
D10*
X73596500Y-133380400D02*
X73595500Y-133499800D01*
X73595500Y-133360200D02*
X73596500Y-133380400D01*
X73582600Y-133241500D02*
X73595500Y-133360200D01*
X73558000Y-133124700D02*
X73582600Y-133241500D01*
X73521800Y-133011000D02*
X73558000Y-133124700D01*
X73474500Y-132901300D02*
X73521800Y-133011000D01*
X73416600Y-132797000D02*
X73474500Y-132901300D01*
X73348500Y-132698900D02*
X73416600Y-132797000D01*
X73271000Y-132608100D02*
X73348500Y-132698900D01*
X73184800Y-132525500D02*
X73271000Y-132608100D01*
X73090800Y-132451800D02*
X73184800Y-132525500D01*
X72990000Y-132387900D02*
X73090800Y-132451800D01*
X72883300Y-132334300D02*
X72990000Y-132387900D01*
X72771800Y-132291700D02*
X72883300Y-132334300D01*
X72656600Y-132260300D02*
X72771800Y-132291700D01*
X72538900Y-132240600D02*
X72656600Y-132260300D01*
X72419800Y-132232600D02*
X72538900Y-132240600D01*
X72300400Y-132236600D02*
X72419800Y-132232600D01*
X72182100Y-132252500D02*
X72300400Y-132236600D01*
X72065900Y-132280000D02*
X72182100Y-132252500D01*
X71953100Y-132319000D02*
X72065900Y-132280000D01*
X71844700Y-132369000D02*
X71953100Y-132319000D01*
X71741800Y-132429600D02*
X71844700Y-132369000D01*
X71645500Y-132500100D02*
X71741800Y-132429600D01*
X71556600Y-132579800D02*
X71645500Y-132500100D01*
X71476200Y-132668000D02*
X71556600Y-132579800D01*
X71404900Y-132763800D02*
X71476200Y-132668000D01*
X71343500Y-132866200D02*
X71404900Y-132763800D01*
X71292600Y-132974200D02*
X71343500Y-132866200D01*
X71252700Y-133086700D02*
X71292600Y-132974200D01*
X71224200Y-133202600D02*
X71252700Y-133086700D01*
X71207400Y-133320800D02*
X71224200Y-133202600D01*
X71202500Y-133440100D02*
X71207400Y-133320800D01*
X71209400Y-133559300D02*
X71202500Y-133440100D01*
X71228200Y-133677200D02*
X71209400Y-133559300D01*
X71258700Y-133792700D02*
X71228200Y-133677200D01*
X71300500Y-133904500D02*
X71258700Y-133792700D01*
X71353200Y-134011600D02*
X71300500Y-133904500D01*
X71416300Y-134113000D02*
X71353200Y-134011600D01*
X71489200Y-134207500D02*
X71416300Y-134113000D01*
X71571100Y-134294300D02*
X71489200Y-134207500D01*
X71661300Y-134372600D02*
X71571100Y-134294300D01*
X71758800Y-134441400D02*
X71661300Y-134372600D01*
X71862700Y-134500300D02*
X71758800Y-134441400D01*
X71971900Y-134548400D02*
X71862700Y-134500300D01*
X72085400Y-134585500D02*
X71971900Y-134548400D01*
X72202000Y-134611100D02*
X72085400Y-134585500D01*
X72320600Y-134624900D02*
X72202000Y-134611100D01*
X72440000Y-134626900D02*
X72320600Y-134624900D01*
X72558900Y-134617000D02*
X72440000Y-134626900D01*
X72676300Y-134595300D02*
X72558900Y-134617000D01*
X72791000Y-134562000D02*
X72676300Y-134595300D01*
X72901700Y-134517400D02*
X72791000Y-134562000D01*
X73007500Y-134462000D02*
X72901700Y-134517400D01*
X73107200Y-134396400D02*
X73007500Y-134462000D01*
X73200000Y-134321200D02*
X73107200Y-134396400D01*
X73284700Y-134237100D02*
X73200000Y-134321200D01*
X73360700Y-134145000D02*
X73284700Y-134237100D01*
X73416600Y-134063100D02*
X73360700Y-134145000D01*
X73474500Y-133958700D02*
X73416600Y-134063100D01*
X73521800Y-133849100D02*
X73474500Y-133958700D01*
X73558000Y-133735300D02*
X73521800Y-133849100D01*
X73582600Y-133618500D02*
X73558000Y-133735300D01*
X73595500Y-133499800D02*
X73582600Y-133618500D01*
X73596500Y-108020400D02*
X73595500Y-108139800D01*
X73595500Y-108000200D02*
X73596500Y-108020400D01*
X73582600Y-107881500D02*
X73595500Y-108000200D01*
X73558000Y-107764700D02*
X73582600Y-107881500D01*
X73521800Y-107650900D02*
X73558000Y-107764700D01*
X73474500Y-107541300D02*
X73521800Y-107650900D01*
X73416600Y-107437000D02*
X73474500Y-107541300D01*
X73348500Y-107338900D02*
X73416600Y-107437000D01*
X73271000Y-107248100D02*
X73348500Y-107338900D01*
X73184800Y-107165500D02*
X73271000Y-107248100D01*
X73090800Y-107091800D02*
X73184800Y-107165500D01*
X72990000Y-107027900D02*
X73090800Y-107091800D01*
X72883300Y-106974300D02*
X72990000Y-107027900D01*
X72771800Y-106931600D02*
X72883300Y-106974300D01*
X72656600Y-106900300D02*
X72771800Y-106931600D01*
X72538900Y-106880500D02*
X72656600Y-106900300D01*
X72419800Y-106872600D02*
X72538900Y-106880500D01*
X72300400Y-106876600D02*
X72419800Y-106872600D01*
X72182100Y-106892500D02*
X72300400Y-106876600D01*
X72065900Y-106920000D02*
X72182100Y-106892500D01*
X71953100Y-106959000D02*
X72065900Y-106920000D01*
X71844700Y-107009000D02*
X71953100Y-106959000D01*
X71741800Y-107069600D02*
X71844700Y-107009000D01*
X71645500Y-107140100D02*
X71741800Y-107069600D01*
X71556600Y-107219800D02*
X71645500Y-107140100D01*
X71476200Y-107308000D02*
X71556600Y-107219800D01*
X71404900Y-107403800D02*
X71476200Y-107308000D01*
X71343500Y-107506200D02*
X71404900Y-107403800D01*
X71292600Y-107614200D02*
X71343500Y-107506200D01*
X71252700Y-107726700D02*
X71292600Y-107614200D01*
X71224200Y-107842600D02*
X71252700Y-107726700D01*
X71207400Y-107960800D02*
X71224200Y-107842600D01*
X71202500Y-108080100D02*
X71207400Y-107960800D01*
X71209400Y-108199300D02*
X71202500Y-108080100D01*
X71228200Y-108317200D02*
X71209400Y-108199300D01*
X71258700Y-108432600D02*
X71228200Y-108317200D01*
X71300500Y-108544500D02*
X71258700Y-108432600D01*
X71353200Y-108651600D02*
X71300500Y-108544500D01*
X71416300Y-108752900D02*
X71353200Y-108651600D01*
X71489200Y-108847500D02*
X71416300Y-108752900D01*
X71571100Y-108934300D02*
X71489200Y-108847500D01*
X71661300Y-109012600D02*
X71571100Y-108934300D01*
X71758800Y-109081400D02*
X71661300Y-109012600D01*
X71862700Y-109140300D02*
X71758800Y-109081400D01*
X71971900Y-109188400D02*
X71862700Y-109140300D01*
X72085400Y-109225500D02*
X71971900Y-109188400D01*
X72202000Y-109251100D02*
X72085400Y-109225500D01*
X72320600Y-109264900D02*
X72202000Y-109251100D01*
X72419800Y-109267400D02*
X72320600Y-109264900D01*
X72538900Y-109259500D02*
X72419800Y-109267400D01*
X72656600Y-109239700D02*
X72538900Y-109259500D01*
X72771800Y-109208400D02*
X72656600Y-109239700D01*
X72883300Y-109165700D02*
X72771800Y-109208400D01*
X72990000Y-109112100D02*
X72883300Y-109165700D01*
X73090800Y-109048200D02*
X72990000Y-109112100D01*
X73184800Y-108974600D02*
X73090800Y-109048200D01*
X73271000Y-108891900D02*
X73184800Y-108974600D01*
X73348500Y-108801100D02*
X73271000Y-108891900D01*
X73416600Y-108703100D02*
X73348500Y-108801100D01*
X73474500Y-108598700D02*
X73416600Y-108703100D01*
X73521800Y-108489100D02*
X73474500Y-108598700D01*
X73558000Y-108375300D02*
X73521800Y-108489100D01*
X73582600Y-108258500D02*
X73558000Y-108375300D01*
X73595500Y-108139800D02*
X73582600Y-108258500D01*
X73596500Y-82660400D02*
X73595500Y-82779800D01*
X73595500Y-82640200D02*
X73596500Y-82660400D01*
X73582600Y-82521500D02*
X73595500Y-82640200D01*
X73558000Y-82404700D02*
X73582600Y-82521500D01*
X73521800Y-82290900D02*
X73558000Y-82404700D01*
X73474500Y-82181300D02*
X73521800Y-82290900D01*
X73416600Y-82077000D02*
X73474500Y-82181300D01*
X73348500Y-81978900D02*
X73416600Y-82077000D01*
X73271000Y-81888100D02*
X73348500Y-81978900D01*
X73184800Y-81805400D02*
X73271000Y-81888100D01*
X73090800Y-81731800D02*
X73184800Y-81805400D01*
X72990000Y-81667900D02*
X73090800Y-81731800D01*
X72883300Y-81614300D02*
X72990000Y-81667900D01*
X72771800Y-81571600D02*
X72883300Y-81614300D01*
X72656600Y-81540300D02*
X72771800Y-81571600D01*
X72538900Y-81520500D02*
X72656600Y-81540300D01*
X72419800Y-81512600D02*
X72538900Y-81520500D01*
X72300400Y-81516600D02*
X72419800Y-81512600D01*
X72182100Y-81532400D02*
X72300400Y-81516600D01*
X72065900Y-81560000D02*
X72182100Y-81532400D01*
X71953100Y-81599000D02*
X72065900Y-81560000D01*
X71844700Y-81649000D02*
X71953100Y-81599000D01*
X71741800Y-81709500D02*
X71844700Y-81649000D01*
X71645500Y-81780100D02*
X71741800Y-81709500D01*
X71556600Y-81859800D02*
X71645500Y-81780100D01*
X71476200Y-81948000D02*
X71556600Y-81859800D01*
X71404900Y-82043800D02*
X71476200Y-81948000D01*
X71343500Y-82146200D02*
X71404900Y-82043800D01*
X71292600Y-82254200D02*
X71343500Y-82146200D01*
X71252700Y-82366700D02*
X71292600Y-82254200D01*
X71224200Y-82482600D02*
X71252700Y-82366700D01*
X71207400Y-82600800D02*
X71224200Y-82482600D01*
X71202500Y-82720100D02*
X71207400Y-82600800D01*
X71209400Y-82839300D02*
X71202500Y-82720100D01*
X71228200Y-82957200D02*
X71209400Y-82839300D01*
X71258700Y-83072600D02*
X71228200Y-82957200D01*
X71300500Y-83184500D02*
X71258700Y-83072600D01*
X71353200Y-83291600D02*
X71300500Y-83184500D01*
X71416300Y-83392900D02*
X71353200Y-83291600D01*
X71489200Y-83487500D02*
X71416300Y-83392900D01*
X71571100Y-83574300D02*
X71489200Y-83487500D01*
X71661300Y-83652600D02*
X71571100Y-83574300D01*
X71758800Y-83721400D02*
X71661300Y-83652600D01*
X71862700Y-83780200D02*
X71758800Y-83721400D01*
X71971900Y-83828400D02*
X71862700Y-83780200D01*
X72085400Y-83865500D02*
X71971900Y-83828400D01*
X72202000Y-83891100D02*
X72085400Y-83865500D01*
X72320600Y-83904900D02*
X72202000Y-83891100D01*
X72419800Y-83907400D02*
X72320600Y-83904900D01*
X72538900Y-83899500D02*
X72419800Y-83907400D01*
X72656600Y-83879700D02*
X72538900Y-83899500D01*
X72771800Y-83848400D02*
X72656600Y-83879700D01*
X72883300Y-83805700D02*
X72771800Y-83848400D01*
X72990000Y-83752100D02*
X72883300Y-83805700D01*
X73090800Y-83688200D02*
X72990000Y-83752100D01*
X73184800Y-83614600D02*
X73090800Y-83688200D01*
X73271000Y-83531900D02*
X73184800Y-83614600D01*
X73348500Y-83441100D02*
X73271000Y-83531900D01*
X73416600Y-83343000D02*
X73348500Y-83441100D01*
X73474500Y-83238700D02*
X73416600Y-83343000D01*
X73521800Y-83129100D02*
X73474500Y-83238700D01*
X73558000Y-83015300D02*
X73521800Y-83129100D01*
X73582600Y-82898500D02*
X73558000Y-83015300D01*
X73595500Y-82779800D02*
X73582600Y-82898500D01*
X73596500Y-158740400D02*
X73595500Y-158859800D01*
X73595500Y-158720200D02*
X73596500Y-158740400D01*
X73582600Y-158601600D02*
X73595500Y-158720200D01*
X73558000Y-158484700D02*
X73582600Y-158601600D01*
X73521800Y-158371000D02*
X73558000Y-158484700D01*
X73474500Y-158261300D02*
X73521800Y-158371000D01*
X73416600Y-158157000D02*
X73474500Y-158261300D01*
X73348500Y-158058900D02*
X73416600Y-158157000D01*
X73271000Y-157968100D02*
X73348500Y-158058900D01*
X73184800Y-157885500D02*
X73271000Y-157968100D01*
X73090800Y-157811800D02*
X73184800Y-157885500D01*
X72990000Y-157747900D02*
X73090800Y-157811800D01*
X72883300Y-157694300D02*
X72990000Y-157747900D01*
X72771800Y-157651700D02*
X72883300Y-157694300D01*
X72656600Y-157620300D02*
X72771800Y-157651700D01*
X72538900Y-157600600D02*
X72656600Y-157620300D01*
X72419800Y-157592600D02*
X72538900Y-157600600D01*
X72300400Y-157596600D02*
X72419800Y-157592600D01*
X72182100Y-157612500D02*
X72300400Y-157596600D01*
X72065900Y-157640000D02*
X72182100Y-157612500D01*
X71953100Y-157679000D02*
X72065900Y-157640000D01*
X71844700Y-157729000D02*
X71953100Y-157679000D01*
X71741800Y-157789600D02*
X71844700Y-157729000D01*
X71645500Y-157860100D02*
X71741800Y-157789600D01*
X71556600Y-157939800D02*
X71645500Y-157860100D01*
X71476200Y-158028000D02*
X71556600Y-157939800D01*
X71404900Y-158123800D02*
X71476200Y-158028000D01*
X71343500Y-158226200D02*
X71404900Y-158123800D01*
X71292600Y-158334200D02*
X71343500Y-158226200D01*
X71252700Y-158446700D02*
X71292600Y-158334200D01*
X71224200Y-158562700D02*
X71252700Y-158446700D01*
X71207400Y-158680900D02*
X71224200Y-158562700D01*
X71202500Y-158800100D02*
X71207400Y-158680900D01*
X71209400Y-158919300D02*
X71202500Y-158800100D01*
X71228200Y-159037200D02*
X71209400Y-158919300D01*
X71258700Y-159152700D02*
X71228200Y-159037200D01*
X71300500Y-159264500D02*
X71258700Y-159152700D01*
X71353200Y-159371600D02*
X71300500Y-159264500D01*
X71416300Y-159473000D02*
X71353200Y-159371600D01*
X71489200Y-159567500D02*
X71416300Y-159473000D01*
X71571100Y-159654300D02*
X71489200Y-159567500D01*
X71661300Y-159732600D02*
X71571100Y-159654300D01*
X71758800Y-159801500D02*
X71661300Y-159732600D01*
X71862700Y-159860300D02*
X71758800Y-159801500D01*
X71971900Y-159908500D02*
X71862700Y-159860300D01*
X72085400Y-159945500D02*
X71971900Y-159908500D01*
X72202000Y-159971100D02*
X72085400Y-159945500D01*
X72300400Y-159983400D02*
X72202000Y-159971100D01*
X72419800Y-159987400D02*
X72300400Y-159983400D01*
X72538900Y-159979500D02*
X72419800Y-159987400D01*
X72656600Y-159959800D02*
X72538900Y-159979500D01*
X72771800Y-159928400D02*
X72656600Y-159959800D01*
X72883300Y-159885700D02*
X72771800Y-159928400D01*
X72990000Y-159832200D02*
X72883300Y-159885700D01*
X73090800Y-159768200D02*
X72990000Y-159832200D01*
X73184800Y-159694600D02*
X73090800Y-159768200D01*
X73271000Y-159612000D02*
X73184800Y-159694600D01*
X73348500Y-159521200D02*
X73271000Y-159612000D01*
X73416600Y-159423100D02*
X73348500Y-159521200D01*
X73474500Y-159318700D02*
X73416600Y-159423100D01*
X73521800Y-159209100D02*
X73474500Y-159318700D01*
X73558000Y-159095300D02*
X73521800Y-159209100D01*
X73582600Y-158978500D02*
X73558000Y-159095300D01*
X73595500Y-158859800D02*
X73582600Y-158978500D01*
X87288800Y-113459000D02*
X77031200Y-113459000D01*
X87386000Y-113454200D02*
X87288800Y-113459000D01*
X87482100Y-113440000D02*
X87386000Y-113454200D01*
X87576400Y-113416400D02*
X87482100Y-113440000D01*
X87667900Y-113383600D02*
X87576400Y-113416400D01*
X87755700Y-113342100D02*
X87667900Y-113383600D01*
X87839000Y-113292200D02*
X87755700Y-113342100D01*
X87917000Y-113234300D02*
X87839000Y-113292200D01*
X87989000Y-113169000D02*
X87917000Y-113234300D01*
X88054300Y-113097100D02*
X87989000Y-113169000D01*
X88112100Y-113019000D02*
X88054300Y-113097100D01*
X88162100Y-112935700D02*
X88112100Y-113019000D01*
X88203600Y-112847900D02*
X88162100Y-112935700D01*
X88236400Y-112756400D02*
X88203600Y-112847900D01*
X88260000Y-112662100D02*
X88236400Y-112756400D01*
X88274200Y-112566000D02*
X88260000Y-112662100D01*
X88279000Y-112468800D02*
X88274200Y-112566000D01*
X88279000Y-111951300D02*
X88279000Y-112468800D01*
X88274200Y-111854000D02*
X88279000Y-111951300D01*
X88260000Y-111757900D02*
X88274200Y-111854000D01*
X88236400Y-111663600D02*
X88260000Y-111757900D01*
X88203600Y-111572200D02*
X88236400Y-111663600D01*
X88162100Y-111484300D02*
X88203600Y-111572200D01*
X88112100Y-111401000D02*
X88162100Y-111484300D01*
X88054300Y-111323000D02*
X88112100Y-111401000D01*
X87989000Y-111251000D02*
X88054300Y-111323000D01*
X87917000Y-111185700D02*
X87989000Y-111251000D01*
X87839000Y-111127900D02*
X87917000Y-111185700D01*
X87755700Y-111077900D02*
X87839000Y-111127900D01*
X87667900Y-111036400D02*
X87755700Y-111077900D01*
X87576400Y-111003600D02*
X87667900Y-111036400D01*
X87482100Y-110980000D02*
X87576400Y-111003600D01*
X87386000Y-110965800D02*
X87482100Y-110980000D01*
X87288800Y-110961000D02*
X87386000Y-110965800D01*
X77031200Y-110961000D02*
X87288800Y-110961000D01*
X76934000Y-110965800D02*
X77031200Y-110961000D01*
X76837900Y-110980000D02*
X76934000Y-110965800D01*
X76743600Y-111003600D02*
X76837900Y-110980000D01*
X76652100Y-111036400D02*
X76743600Y-111003600D01*
X76564300Y-111077900D02*
X76652100Y-111036400D01*
X76481000Y-111127900D02*
X76564300Y-111077900D01*
X76403000Y-111185700D02*
X76481000Y-111127900D01*
X76331000Y-111251000D02*
X76403000Y-111185700D01*
X76265700Y-111323000D02*
X76331000Y-111251000D01*
X76207900Y-111401000D02*
X76265700Y-111323000D01*
X76157900Y-111484300D02*
X76207900Y-111401000D01*
X76116400Y-111572200D02*
X76157900Y-111484300D01*
X76083600Y-111663600D02*
X76116400Y-111572200D01*
X76060000Y-111757900D02*
X76083600Y-111663600D01*
X76045800Y-111854000D02*
X76060000Y-111757900D01*
X76041000Y-111951300D02*
X76045800Y-111854000D01*
X76041000Y-112468800D02*
X76041000Y-111951300D01*
X76045800Y-112566000D02*
X76041000Y-112468800D01*
X76060000Y-112662100D02*
X76045800Y-112566000D01*
X76083600Y-112756400D02*
X76060000Y-112662100D01*
X76116400Y-112847900D02*
X76083600Y-112756400D01*
X76157900Y-112935700D02*
X76116400Y-112847900D01*
X76207900Y-113019000D02*
X76157900Y-112935700D01*
X76265700Y-113097000D02*
X76207900Y-113019000D01*
X76331000Y-113169000D02*
X76265700Y-113097000D01*
X76403000Y-113234300D02*
X76331000Y-113169000D01*
X76481000Y-113292200D02*
X76403000Y-113234300D01*
X76564300Y-113342100D02*
X76481000Y-113292200D01*
X76652100Y-113383600D02*
X76564300Y-113342100D01*
X76743600Y-113416400D02*
X76652100Y-113383600D01*
X76837900Y-113440000D02*
X76743600Y-113416400D01*
X76934000Y-113454200D02*
X76837900Y-113440000D01*
X77031200Y-113459000D02*
X76934000Y-113454200D01*
X76041000Y-137828800D02*
X76041000Y-137311300D01*
X76045800Y-137926000D02*
X76041000Y-137828800D01*
X76060000Y-138022100D02*
X76045800Y-137926000D01*
X76083600Y-138116400D02*
X76060000Y-138022100D01*
X76116400Y-138207900D02*
X76083600Y-138116400D01*
X76157900Y-138295700D02*
X76116400Y-138207900D01*
X76207900Y-138379000D02*
X76157900Y-138295700D01*
X76265700Y-138457100D02*
X76207900Y-138379000D01*
X76331000Y-138529000D02*
X76265700Y-138457100D01*
X76403000Y-138594300D02*
X76331000Y-138529000D01*
X76481000Y-138652200D02*
X76403000Y-138594300D01*
X76564300Y-138702100D02*
X76481000Y-138652200D01*
X76652100Y-138743600D02*
X76564300Y-138702100D01*
X76743600Y-138776400D02*
X76652100Y-138743600D01*
X76837900Y-138800000D02*
X76743600Y-138776400D01*
X76934000Y-138814200D02*
X76837900Y-138800000D01*
X77031200Y-138819000D02*
X76934000Y-138814200D01*
X87288800Y-138819000D02*
X77031200Y-138819000D01*
X87386000Y-138814200D02*
X87288800Y-138819000D01*
X87482100Y-138800000D02*
X87386000Y-138814200D01*
X87576400Y-138776400D02*
X87482100Y-138800000D01*
X87667900Y-138743600D02*
X87576400Y-138776400D01*
X87755700Y-138702100D02*
X87667900Y-138743600D01*
X87839000Y-138652200D02*
X87755700Y-138702100D01*
X87917000Y-138594300D02*
X87839000Y-138652200D01*
X87989000Y-138529000D02*
X87917000Y-138594300D01*
X88054300Y-138457100D02*
X87989000Y-138529000D01*
X88112100Y-138379000D02*
X88054300Y-138457100D01*
X88162100Y-138295700D02*
X88112100Y-138379000D01*
X88203600Y-138207900D02*
X88162100Y-138295700D01*
X88236400Y-138116400D02*
X88203600Y-138207900D01*
X88260000Y-138022200D02*
X88236400Y-138116400D01*
X88274200Y-137926100D02*
X88260000Y-138022200D01*
X88279000Y-137828800D02*
X88274200Y-137926100D01*
X88279000Y-137311300D02*
X88279000Y-137828800D01*
X88274200Y-137214000D02*
X88279000Y-137311300D01*
X88260000Y-137117900D02*
X88274200Y-137214000D01*
X88236400Y-137023600D02*
X88260000Y-137117900D01*
X88203600Y-136932200D02*
X88236400Y-137023600D01*
X88162100Y-136844300D02*
X88203600Y-136932200D01*
X88112100Y-136761000D02*
X88162100Y-136844300D01*
X88054300Y-136683000D02*
X88112100Y-136761000D01*
X87989000Y-136611000D02*
X88054300Y-136683000D01*
X87917000Y-136545700D02*
X87989000Y-136611000D01*
X87839000Y-136487900D02*
X87917000Y-136545700D01*
X87755700Y-136437900D02*
X87839000Y-136487900D01*
X87667900Y-136396400D02*
X87755700Y-136437900D01*
X87576400Y-136363700D02*
X87667900Y-136396400D01*
X87482100Y-136340000D02*
X87576400Y-136363700D01*
X87386000Y-136325800D02*
X87482100Y-136340000D01*
X87288800Y-136321000D02*
X87386000Y-136325800D01*
X77031200Y-136321000D02*
X87288800Y-136321000D01*
X76934000Y-136325800D02*
X77031200Y-136321000D01*
X76837900Y-136340100D02*
X76934000Y-136325800D01*
X76743600Y-136363700D02*
X76837900Y-136340100D01*
X76652100Y-136396400D02*
X76743600Y-136363700D01*
X76564300Y-136437900D02*
X76652100Y-136396400D01*
X76481000Y-136487900D02*
X76564300Y-136437900D01*
X76403000Y-136545700D02*
X76481000Y-136487900D01*
X76331000Y-136611000D02*
X76403000Y-136545700D01*
X76265700Y-136683000D02*
X76331000Y-136611000D01*
X76207900Y-136761000D02*
X76265700Y-136683000D01*
X76157900Y-136844300D02*
X76207900Y-136761000D01*
X76116400Y-136932200D02*
X76157900Y-136844300D01*
X76083600Y-137023600D02*
X76116400Y-136932200D01*
X76060000Y-137117900D02*
X76083600Y-137023600D01*
X76045800Y-137214000D02*
X76060000Y-137117900D01*
X76041000Y-137311300D02*
X76045800Y-137214000D01*
X76041000Y-87108800D02*
X76041000Y-86591200D01*
X76045800Y-87206000D02*
X76041000Y-87108800D01*
X76060000Y-87302100D02*
X76045800Y-87206000D01*
X76083600Y-87396400D02*
X76060000Y-87302100D01*
X76116400Y-87487900D02*
X76083600Y-87396400D01*
X76157900Y-87575700D02*
X76116400Y-87487900D01*
X76207900Y-87659000D02*
X76157900Y-87575700D01*
X76265700Y-87737000D02*
X76207900Y-87659000D01*
X76331000Y-87809000D02*
X76265700Y-87737000D01*
X76403000Y-87874300D02*
X76331000Y-87809000D01*
X76481000Y-87932100D02*
X76403000Y-87874300D01*
X76564300Y-87982100D02*
X76481000Y-87932100D01*
X76652100Y-88023600D02*
X76564300Y-87982100D01*
X76743600Y-88056400D02*
X76652100Y-88023600D01*
X76837900Y-88080000D02*
X76743600Y-88056400D01*
X76934000Y-88094200D02*
X76837900Y-88080000D01*
X77031200Y-88099000D02*
X76934000Y-88094200D01*
X87288800Y-88099000D02*
X77031200Y-88099000D01*
X87386000Y-88094200D02*
X87288800Y-88099000D01*
X87482100Y-88080000D02*
X87386000Y-88094200D01*
X87576400Y-88056400D02*
X87482100Y-88080000D01*
X87667900Y-88023600D02*
X87576400Y-88056400D01*
X87755700Y-87982100D02*
X87667900Y-88023600D01*
X87839000Y-87932100D02*
X87755700Y-87982100D01*
X87917000Y-87874300D02*
X87839000Y-87932100D01*
X87989000Y-87809000D02*
X87917000Y-87874300D01*
X88054300Y-87737000D02*
X87989000Y-87809000D01*
X88112100Y-87659000D02*
X88054300Y-87737000D01*
X88162100Y-87575700D02*
X88112100Y-87659000D01*
X88203600Y-87487900D02*
X88162100Y-87575700D01*
X88236400Y-87396400D02*
X88203600Y-87487900D01*
X88260000Y-87302100D02*
X88236400Y-87396400D01*
X88274200Y-87206000D02*
X88260000Y-87302100D01*
X88279000Y-87108800D02*
X88274200Y-87206000D01*
X88279000Y-86591200D02*
X88279000Y-87108800D01*
X88274200Y-86494000D02*
X88279000Y-86591200D01*
X88260000Y-86397900D02*
X88274200Y-86494000D01*
X88236400Y-86303600D02*
X88260000Y-86397900D01*
X88203600Y-86212100D02*
X88236400Y-86303600D01*
X88162100Y-86124300D02*
X88203600Y-86212100D01*
X88112100Y-86041000D02*
X88162100Y-86124300D01*
X88054300Y-85963000D02*
X88112100Y-86041000D01*
X87989000Y-85891000D02*
X88054300Y-85963000D01*
X87917000Y-85825700D02*
X87989000Y-85891000D01*
X87839000Y-85767900D02*
X87917000Y-85825700D01*
X87755700Y-85717900D02*
X87839000Y-85767900D01*
X87667900Y-85676400D02*
X87755700Y-85717900D01*
X87576400Y-85643600D02*
X87667900Y-85676400D01*
X87482100Y-85620000D02*
X87576400Y-85643600D01*
X87386000Y-85605800D02*
X87482100Y-85620000D01*
X87288800Y-85601000D02*
X87386000Y-85605800D01*
X77031200Y-85601000D02*
X87288800Y-85601000D01*
X76934000Y-85605800D02*
X77031200Y-85601000D01*
X76837900Y-85620000D02*
X76934000Y-85605800D01*
X76743600Y-85643600D02*
X76837900Y-85620000D01*
X76652100Y-85676400D02*
X76743600Y-85643600D01*
X76564300Y-85717900D02*
X76652100Y-85676400D01*
X76481000Y-85767900D02*
X76564300Y-85717900D01*
X76403000Y-85825700D02*
X76481000Y-85767900D01*
X76331000Y-85891000D02*
X76403000Y-85825700D01*
X76265700Y-85963000D02*
X76331000Y-85891000D01*
X76207900Y-86041000D02*
X76265700Y-85963000D01*
X76157900Y-86124300D02*
X76207900Y-86041000D01*
X76116400Y-86212100D02*
X76157900Y-86124300D01*
X76083600Y-86303600D02*
X76116400Y-86212100D01*
X76060000Y-86397900D02*
X76083600Y-86303600D01*
X76045800Y-86494000D02*
X76060000Y-86397900D01*
X76041000Y-86591200D02*
X76045800Y-86494000D01*
X102528800Y-88099000D02*
X92271200Y-88099000D01*
X102626000Y-88094200D02*
X102528800Y-88099000D01*
X102722100Y-88080000D02*
X102626000Y-88094200D01*
X102816400Y-88056400D02*
X102722100Y-88080000D01*
X102907900Y-88023600D02*
X102816400Y-88056400D01*
X102995700Y-87982100D02*
X102907900Y-88023600D01*
X103079000Y-87932200D02*
X102995700Y-87982100D01*
X103157000Y-87874300D02*
X103079000Y-87932200D01*
X103229000Y-87809000D02*
X103157000Y-87874300D01*
X103294300Y-87737000D02*
X103229000Y-87809000D01*
X103352200Y-87659000D02*
X103294300Y-87737000D01*
X103402100Y-87575700D02*
X103352200Y-87659000D01*
X103443600Y-87487900D02*
X103402100Y-87575700D01*
X103476400Y-87396400D02*
X103443600Y-87487900D01*
X103500000Y-87302100D02*
X103476400Y-87396400D01*
X103514200Y-87206000D02*
X103500000Y-87302100D01*
X103519000Y-87108800D02*
X103514200Y-87206000D01*
X103519000Y-86591200D02*
X103519000Y-87108800D01*
X103514200Y-86494000D02*
X103519000Y-86591200D01*
X103500000Y-86397900D02*
X103514200Y-86494000D01*
X103476400Y-86303600D02*
X103500000Y-86397900D01*
X103443600Y-86212100D02*
X103476400Y-86303600D01*
X103402100Y-86124300D02*
X103443600Y-86212100D01*
X103352200Y-86041000D02*
X103402100Y-86124300D01*
X103294300Y-85963000D02*
X103352200Y-86041000D01*
X103229000Y-85891000D02*
X103294300Y-85963000D01*
X103157000Y-85825700D02*
X103229000Y-85891000D01*
X103079000Y-85767900D02*
X103157000Y-85825700D01*
X102995700Y-85717900D02*
X103079000Y-85767900D01*
X102907900Y-85676400D02*
X102995700Y-85717900D01*
X102816400Y-85643600D02*
X102907900Y-85676400D01*
X102722100Y-85620000D02*
X102816400Y-85643600D01*
X102626000Y-85605800D02*
X102722100Y-85620000D01*
X102528800Y-85601000D02*
X102626000Y-85605800D01*
X92271200Y-85601000D02*
X102528800Y-85601000D01*
X92174000Y-85605800D02*
X92271200Y-85601000D01*
X92077900Y-85620000D02*
X92174000Y-85605800D01*
X91983600Y-85643600D02*
X92077900Y-85620000D01*
X91892200Y-85676400D02*
X91983600Y-85643600D01*
X91804300Y-85717900D02*
X91892200Y-85676400D01*
X91721000Y-85767900D02*
X91804300Y-85717900D01*
X91643000Y-85825700D02*
X91721000Y-85767900D01*
X91571000Y-85891000D02*
X91643000Y-85825700D01*
X91505700Y-85963000D02*
X91571000Y-85891000D01*
X91447900Y-86041000D02*
X91505700Y-85963000D01*
X91397900Y-86124300D02*
X91447900Y-86041000D01*
X91356400Y-86212100D02*
X91397900Y-86124300D01*
X91323600Y-86303600D02*
X91356400Y-86212100D01*
X91300000Y-86397900D02*
X91323600Y-86303600D01*
X91285800Y-86494000D02*
X91300000Y-86397900D01*
X91281000Y-86591200D02*
X91285800Y-86494000D01*
X91281000Y-87108800D02*
X91281000Y-86591200D01*
X91285800Y-87206000D02*
X91281000Y-87108800D01*
X91300000Y-87302100D02*
X91285800Y-87206000D01*
X91323600Y-87396400D02*
X91300000Y-87302100D01*
X91356400Y-87487900D02*
X91323600Y-87396400D01*
X91397900Y-87575700D02*
X91356400Y-87487900D01*
X91447900Y-87659000D02*
X91397900Y-87575700D01*
X91505700Y-87737000D02*
X91447900Y-87659000D01*
X91571000Y-87809000D02*
X91505700Y-87737000D01*
X91643000Y-87874300D02*
X91571000Y-87809000D01*
X91721000Y-87932200D02*
X91643000Y-87874300D01*
X91804300Y-87982100D02*
X91721000Y-87932200D01*
X91892200Y-88023600D02*
X91804300Y-87982100D01*
X91983600Y-88056400D02*
X91892200Y-88023600D01*
X92077900Y-88080000D02*
X91983600Y-88056400D01*
X92174000Y-88094200D02*
X92077900Y-88080000D01*
X92271200Y-88099000D02*
X92174000Y-88094200D01*
X102528800Y-113459000D02*
X92271200Y-113459000D01*
X102626000Y-113454200D02*
X102528800Y-113459000D01*
X102722100Y-113440000D02*
X102626000Y-113454200D01*
X102816400Y-113416400D02*
X102722100Y-113440000D01*
X102907900Y-113383600D02*
X102816400Y-113416400D01*
X102995700Y-113342100D02*
X102907900Y-113383600D01*
X103079000Y-113292200D02*
X102995700Y-113342100D01*
X103157000Y-113234300D02*
X103079000Y-113292200D01*
X103229000Y-113169000D02*
X103157000Y-113234300D01*
X103294300Y-113097100D02*
X103229000Y-113169000D01*
X103352200Y-113019000D02*
X103294300Y-113097100D01*
X103402100Y-112935700D02*
X103352200Y-113019000D01*
X103443600Y-112847900D02*
X103402100Y-112935700D01*
X103476400Y-112756400D02*
X103443600Y-112847900D01*
X103500000Y-112662200D02*
X103476400Y-112756400D01*
X103514200Y-112566100D02*
X103500000Y-112662200D01*
X103519000Y-112468800D02*
X103514200Y-112566100D01*
X103519000Y-111951200D02*
X103519000Y-112468800D01*
X103514200Y-111854000D02*
X103519000Y-111951200D01*
X103500000Y-111757900D02*
X103514200Y-111854000D01*
X103476400Y-111663600D02*
X103500000Y-111757900D01*
X103443600Y-111572200D02*
X103476400Y-111663600D01*
X103402100Y-111484300D02*
X103443600Y-111572200D01*
X103352200Y-111401000D02*
X103402100Y-111484300D01*
X103294300Y-111323000D02*
X103352200Y-111401000D01*
X103229000Y-111251000D02*
X103294300Y-111323000D01*
X103157000Y-111185700D02*
X103229000Y-111251000D01*
X103079000Y-111127900D02*
X103157000Y-111185700D01*
X102995700Y-111077900D02*
X103079000Y-111127900D01*
X102907900Y-111036400D02*
X102995700Y-111077900D01*
X102816400Y-111003600D02*
X102907900Y-111036400D01*
X102722100Y-110980000D02*
X102816400Y-111003600D01*
X102626000Y-110965800D02*
X102722100Y-110980000D01*
X102528800Y-110961000D02*
X102626000Y-110965800D01*
X92271200Y-110961000D02*
X102528800Y-110961000D01*
X92174000Y-110965800D02*
X92271200Y-110961000D01*
X92077900Y-110980000D02*
X92174000Y-110965800D01*
X91983600Y-111003600D02*
X92077900Y-110980000D01*
X91892200Y-111036400D02*
X91983600Y-111003600D01*
X91804300Y-111077900D02*
X91892200Y-111036400D01*
X91721000Y-111127900D02*
X91804300Y-111077900D01*
X91643000Y-111185700D02*
X91721000Y-111127900D01*
X91571000Y-111251000D02*
X91643000Y-111185700D01*
X91505700Y-111323000D02*
X91571000Y-111251000D01*
X91447900Y-111401000D02*
X91505700Y-111323000D01*
X91397900Y-111484300D02*
X91447900Y-111401000D01*
X91356400Y-111572200D02*
X91397900Y-111484300D01*
X91323600Y-111663600D02*
X91356400Y-111572200D01*
X91300000Y-111757900D02*
X91323600Y-111663600D01*
X91285800Y-111854000D02*
X91300000Y-111757900D01*
X91281000Y-111951300D02*
X91285800Y-111854000D01*
X91281000Y-112468800D02*
X91281000Y-111951300D01*
X91285800Y-112566000D02*
X91281000Y-112468800D01*
X91300000Y-112662100D02*
X91285800Y-112566000D01*
X91323600Y-112756400D02*
X91300000Y-112662100D01*
X91356400Y-112847900D02*
X91323600Y-112756400D01*
X91397900Y-112935700D02*
X91356400Y-112847900D01*
X91447900Y-113019000D02*
X91397900Y-112935700D01*
X91505700Y-113097100D02*
X91447900Y-113019000D01*
X91571000Y-113169000D02*
X91505700Y-113097100D01*
X91643000Y-113234300D02*
X91571000Y-113169000D01*
X91721000Y-113292200D02*
X91643000Y-113234300D01*
X91804300Y-113342100D02*
X91721000Y-113292200D01*
X91892200Y-113383600D02*
X91804300Y-113342100D01*
X91983600Y-113416400D02*
X91892200Y-113383600D01*
X92077900Y-113440000D02*
X91983600Y-113416400D01*
X92174000Y-113454200D02*
X92077900Y-113440000D01*
X92271200Y-113459000D02*
X92174000Y-113454200D01*
X91281000Y-137828800D02*
X91281000Y-137311300D01*
X91285800Y-137926100D02*
X91281000Y-137828800D01*
X91300000Y-138022200D02*
X91285800Y-137926100D01*
X91323600Y-138116400D02*
X91300000Y-138022200D01*
X91356400Y-138207900D02*
X91323600Y-138116400D01*
X91397900Y-138295700D02*
X91356400Y-138207900D01*
X91447900Y-138379000D02*
X91397900Y-138295700D01*
X91505700Y-138457100D02*
X91447900Y-138379000D01*
X91571000Y-138529000D02*
X91505700Y-138457100D01*
X91643000Y-138594300D02*
X91571000Y-138529000D01*
X91721000Y-138652200D02*
X91643000Y-138594300D01*
X91804300Y-138702100D02*
X91721000Y-138652200D01*
X91892200Y-138743600D02*
X91804300Y-138702100D01*
X91983600Y-138776400D02*
X91892200Y-138743600D01*
X92077900Y-138800000D02*
X91983600Y-138776400D01*
X92174000Y-138814200D02*
X92077900Y-138800000D01*
X92271200Y-138819000D02*
X92174000Y-138814200D01*
X102528800Y-138819000D02*
X92271200Y-138819000D01*
X102626000Y-138814200D02*
X102528800Y-138819000D01*
X102722100Y-138800000D02*
X102626000Y-138814200D01*
X102816400Y-138776400D02*
X102722100Y-138800000D01*
X102907900Y-138743700D02*
X102816400Y-138776400D01*
X102995700Y-138702100D02*
X102907900Y-138743700D01*
X103079000Y-138652200D02*
X102995700Y-138702100D01*
X103157000Y-138594300D02*
X103079000Y-138652200D01*
X103229000Y-138529100D02*
X103157000Y-138594300D01*
X103294300Y-138457100D02*
X103229000Y-138529100D01*
X103352200Y-138379000D02*
X103294300Y-138457100D01*
X103402100Y-138295700D02*
X103352200Y-138379000D01*
X103443600Y-138207900D02*
X103402100Y-138295700D01*
X103476400Y-138116400D02*
X103443600Y-138207900D01*
X103500000Y-138022200D02*
X103476400Y-138116400D01*
X103514200Y-137926100D02*
X103500000Y-138022200D01*
X103519000Y-137828800D02*
X103514200Y-137926100D01*
X103519000Y-137311300D02*
X103519000Y-137828800D01*
X103514200Y-137214000D02*
X103519000Y-137311300D01*
X103500000Y-137117900D02*
X103514200Y-137214000D01*
X103476400Y-137023600D02*
X103500000Y-137117900D01*
X103443600Y-136932200D02*
X103476400Y-137023600D01*
X103402100Y-136844300D02*
X103443600Y-136932200D01*
X103352200Y-136761000D02*
X103402100Y-136844300D01*
X103294300Y-136683000D02*
X103352200Y-136761000D01*
X103229000Y-136611000D02*
X103294300Y-136683000D01*
X103157000Y-136545700D02*
X103229000Y-136611000D01*
X103079000Y-136487900D02*
X103157000Y-136545700D01*
X102995700Y-136437900D02*
X103079000Y-136487900D01*
X102907900Y-136396400D02*
X102995700Y-136437900D01*
X102816400Y-136363600D02*
X102907900Y-136396400D01*
X102722100Y-136340000D02*
X102816400Y-136363600D01*
X102626000Y-136325800D02*
X102722100Y-136340000D01*
X102528800Y-136321000D02*
X102626000Y-136325800D01*
X92271200Y-136321000D02*
X102528800Y-136321000D01*
X92174000Y-136325800D02*
X92271200Y-136321000D01*
X92077900Y-136340000D02*
X92174000Y-136325800D01*
X91983600Y-136363700D02*
X92077900Y-136340000D01*
X91892200Y-136396400D02*
X91983600Y-136363700D01*
X91804300Y-136437900D02*
X91892200Y-136396400D01*
X91721000Y-136487900D02*
X91804300Y-136437900D01*
X91643000Y-136545700D02*
X91721000Y-136487900D01*
X91571000Y-136611000D02*
X91643000Y-136545700D01*
X91505700Y-136683000D02*
X91571000Y-136611000D01*
X91447900Y-136761000D02*
X91505700Y-136683000D01*
X91397900Y-136844300D02*
X91447900Y-136761000D01*
X91356400Y-136932200D02*
X91397900Y-136844300D01*
X91323600Y-137023600D02*
X91356400Y-136932200D01*
X91300000Y-137117900D02*
X91323600Y-137023600D01*
X91285800Y-137214000D02*
X91300000Y-137117900D01*
X91281000Y-137311300D02*
X91285800Y-137214000D01*
X116452700Y-133380400D02*
X116451700Y-133499800D01*
X116451700Y-133360200D02*
X116452700Y-133380400D01*
X116438800Y-133241500D02*
X116451700Y-133360200D01*
X116414200Y-133124700D02*
X116438800Y-133241500D01*
X116378000Y-133011000D02*
X116414200Y-133124700D01*
X116330700Y-132901300D02*
X116378000Y-133011000D01*
X116272800Y-132797000D02*
X116330700Y-132901300D01*
X116204700Y-132698900D02*
X116272800Y-132797000D01*
X116127200Y-132608100D02*
X116204700Y-132698900D01*
X116041000Y-132525500D02*
X116127200Y-132608100D01*
X115947000Y-132451800D02*
X116041000Y-132525500D01*
X115846200Y-132387900D02*
X115947000Y-132451800D01*
X115739500Y-132334300D02*
X115846200Y-132387900D01*
X115628000Y-132291700D02*
X115739500Y-132334300D01*
X115512800Y-132260300D02*
X115628000Y-132291700D01*
X115395100Y-132240600D02*
X115512800Y-132260300D01*
X115276000Y-132232600D02*
X115395100Y-132240600D01*
X115156600Y-132236600D02*
X115276000Y-132232600D01*
X115038300Y-132252500D02*
X115156600Y-132236600D01*
X114922100Y-132280000D02*
X115038300Y-132252500D01*
X114809300Y-132319000D02*
X114922100Y-132280000D01*
X114700900Y-132369000D02*
X114809300Y-132319000D01*
X114598000Y-132429600D02*
X114700900Y-132369000D01*
X114501700Y-132500100D02*
X114598000Y-132429600D01*
X114412800Y-132579800D02*
X114501700Y-132500100D01*
X114332400Y-132668000D02*
X114412800Y-132579800D01*
X114261100Y-132763800D02*
X114332400Y-132668000D01*
X114199700Y-132866200D02*
X114261100Y-132763800D01*
X114148800Y-132974200D02*
X114199700Y-132866200D01*
X114108900Y-133086700D02*
X114148800Y-132974200D01*
X114080400Y-133202600D02*
X114108900Y-133086700D01*
X114063600Y-133320800D02*
X114080400Y-133202600D01*
X114058700Y-133440100D02*
X114063600Y-133320800D01*
X114065600Y-133559300D02*
X114058700Y-133440100D01*
X114084400Y-133677200D02*
X114065600Y-133559300D01*
X114114900Y-133792700D02*
X114084400Y-133677200D01*
X114156700Y-133904500D02*
X114114900Y-133792700D01*
X114209400Y-134011600D02*
X114156700Y-133904500D01*
X114272500Y-134113000D02*
X114209400Y-134011600D01*
X114345400Y-134207500D02*
X114272500Y-134113000D01*
X114427300Y-134294300D02*
X114345400Y-134207500D01*
X114517500Y-134372600D02*
X114427300Y-134294300D01*
X114615000Y-134441400D02*
X114517500Y-134372600D01*
X114718900Y-134500300D02*
X114615000Y-134441400D01*
X114828100Y-134548400D02*
X114718900Y-134500300D01*
X114941600Y-134585500D02*
X114828100Y-134548400D01*
X115058200Y-134611100D02*
X114941600Y-134585500D01*
X115176800Y-134624900D02*
X115058200Y-134611100D01*
X115296200Y-134626900D02*
X115176800Y-134624900D01*
X115415100Y-134617000D02*
X115296200Y-134626900D01*
X115532500Y-134595300D02*
X115415100Y-134617000D01*
X115647200Y-134562000D02*
X115532500Y-134595300D01*
X115757900Y-134517400D02*
X115647200Y-134562000D01*
X115863700Y-134462000D02*
X115757900Y-134517400D01*
X115963400Y-134396400D02*
X115863700Y-134462000D01*
X116056200Y-134321200D02*
X115963400Y-134396400D01*
X116140900Y-134237100D02*
X116056200Y-134321200D01*
X116216900Y-134145000D02*
X116140900Y-134237100D01*
X116272800Y-134063100D02*
X116216900Y-134145000D01*
X116330700Y-133958700D02*
X116272800Y-134063100D01*
X116378000Y-133849100D02*
X116330700Y-133958700D01*
X116414200Y-133735300D02*
X116378000Y-133849100D01*
X116438800Y-133618500D02*
X116414200Y-133735300D01*
X116451700Y-133499800D02*
X116438800Y-133618500D01*
X116452700Y-108020400D02*
X116451700Y-108139800D01*
X116451700Y-108000200D02*
X116452700Y-108020400D01*
X116438800Y-107881500D02*
X116451700Y-108000200D01*
X116414200Y-107764700D02*
X116438800Y-107881500D01*
X116378000Y-107650900D02*
X116414200Y-107764700D01*
X116330700Y-107541300D02*
X116378000Y-107650900D01*
X116272800Y-107437000D02*
X116330700Y-107541300D01*
X116204700Y-107338900D02*
X116272800Y-107437000D01*
X116127200Y-107248100D02*
X116204700Y-107338900D01*
X116041000Y-107165500D02*
X116127200Y-107248100D01*
X115947000Y-107091800D02*
X116041000Y-107165500D01*
X115846200Y-107027900D02*
X115947000Y-107091800D01*
X115739500Y-106974300D02*
X115846200Y-107027900D01*
X115628000Y-106931600D02*
X115739500Y-106974300D01*
X115512800Y-106900300D02*
X115628000Y-106931600D01*
X115395100Y-106880500D02*
X115512800Y-106900300D01*
X115276000Y-106872600D02*
X115395100Y-106880500D01*
X115156600Y-106876600D02*
X115276000Y-106872600D01*
X115038300Y-106892500D02*
X115156600Y-106876600D01*
X114922100Y-106920000D02*
X115038300Y-106892500D01*
X114809300Y-106959000D02*
X114922100Y-106920000D01*
X114700900Y-107009000D02*
X114809300Y-106959000D01*
X114598000Y-107069600D02*
X114700900Y-107009000D01*
X114501700Y-107140100D02*
X114598000Y-107069600D01*
X114412800Y-107219800D02*
X114501700Y-107140100D01*
X114332400Y-107308000D02*
X114412800Y-107219800D01*
X114261100Y-107403800D02*
X114332400Y-107308000D01*
X114199700Y-107506200D02*
X114261100Y-107403800D01*
X114148800Y-107614200D02*
X114199700Y-107506200D01*
X114108900Y-107726700D02*
X114148800Y-107614200D01*
X114080400Y-107842600D02*
X114108900Y-107726700D01*
X114063600Y-107960800D02*
X114080400Y-107842600D01*
X114058700Y-108080100D02*
X114063600Y-107960800D01*
X114065600Y-108199300D02*
X114058700Y-108080100D01*
X114084400Y-108317200D02*
X114065600Y-108199300D01*
X114114900Y-108432600D02*
X114084400Y-108317200D01*
X114156700Y-108544500D02*
X114114900Y-108432600D01*
X114209400Y-108651600D02*
X114156700Y-108544500D01*
X114272500Y-108752900D02*
X114209400Y-108651600D01*
X114345400Y-108847500D02*
X114272500Y-108752900D01*
X114427300Y-108934300D02*
X114345400Y-108847500D01*
X114517500Y-109012600D02*
X114427300Y-108934300D01*
X114615000Y-109081400D02*
X114517500Y-109012600D01*
X114718900Y-109140300D02*
X114615000Y-109081400D01*
X114828100Y-109188400D02*
X114718900Y-109140300D01*
X114941600Y-109225500D02*
X114828100Y-109188400D01*
X115058200Y-109251100D02*
X114941600Y-109225500D01*
X115176800Y-109264900D02*
X115058200Y-109251100D01*
X115276000Y-109267400D02*
X115176800Y-109264900D01*
X115395100Y-109259500D02*
X115276000Y-109267400D01*
X115512800Y-109239700D02*
X115395100Y-109259500D01*
X115628000Y-109208400D02*
X115512800Y-109239700D01*
X115739500Y-109165700D02*
X115628000Y-109208400D01*
X115846200Y-109112100D02*
X115739500Y-109165700D01*
X115947000Y-109048200D02*
X115846200Y-109112100D01*
X116041000Y-108974600D02*
X115947000Y-109048200D01*
X116127200Y-108891900D02*
X116041000Y-108974600D01*
X116204700Y-108801100D02*
X116127200Y-108891900D01*
X116272800Y-108703100D02*
X116204700Y-108801100D01*
X116330700Y-108598700D02*
X116272800Y-108703100D01*
X116378000Y-108489100D02*
X116330700Y-108598700D01*
X116414200Y-108375300D02*
X116378000Y-108489100D01*
X116438800Y-108258500D02*
X116414200Y-108375300D01*
X116451700Y-108139800D02*
X116438800Y-108258500D01*
X116452700Y-82660400D02*
X116451700Y-82779800D01*
X116451700Y-82640200D02*
X116452700Y-82660400D01*
X116438800Y-82521500D02*
X116451700Y-82640200D01*
X116414200Y-82404700D02*
X116438800Y-82521500D01*
X116378000Y-82290900D02*
X116414200Y-82404700D01*
X116330700Y-82181300D02*
X116378000Y-82290900D01*
X116272800Y-82077000D02*
X116330700Y-82181300D01*
X116204700Y-81978900D02*
X116272800Y-82077000D01*
X116127200Y-81888100D02*
X116204700Y-81978900D01*
X116041000Y-81805400D02*
X116127200Y-81888100D01*
X115947000Y-81731800D02*
X116041000Y-81805400D01*
X115846200Y-81667900D02*
X115947000Y-81731800D01*
X115739500Y-81614300D02*
X115846200Y-81667900D01*
X115628000Y-81571600D02*
X115739500Y-81614300D01*
X115512800Y-81540300D02*
X115628000Y-81571600D01*
X115395100Y-81520500D02*
X115512800Y-81540300D01*
X115276000Y-81512600D02*
X115395100Y-81520500D01*
X115156600Y-81516600D02*
X115276000Y-81512600D01*
X115038300Y-81532400D02*
X115156600Y-81516600D01*
X114922100Y-81560000D02*
X115038300Y-81532400D01*
X114809300Y-81599000D02*
X114922100Y-81560000D01*
X114700900Y-81649000D02*
X114809300Y-81599000D01*
X114598000Y-81709500D02*
X114700900Y-81649000D01*
X114501700Y-81780100D02*
X114598000Y-81709500D01*
X114412800Y-81859800D02*
X114501700Y-81780100D01*
X114332400Y-81948000D02*
X114412800Y-81859800D01*
X114261100Y-82043800D02*
X114332400Y-81948000D01*
X114199700Y-82146200D02*
X114261100Y-82043800D01*
X114148800Y-82254200D02*
X114199700Y-82146200D01*
X114108900Y-82366700D02*
X114148800Y-82254200D01*
X114080400Y-82482600D02*
X114108900Y-82366700D01*
X114063600Y-82600800D02*
X114080400Y-82482600D01*
X114058700Y-82720100D02*
X114063600Y-82600800D01*
X114065600Y-82839300D02*
X114058700Y-82720100D01*
X114084400Y-82957200D02*
X114065600Y-82839300D01*
X114114900Y-83072600D02*
X114084400Y-82957200D01*
X114156700Y-83184500D02*
X114114900Y-83072600D01*
X114209400Y-83291600D02*
X114156700Y-83184500D01*
X114272500Y-83392900D02*
X114209400Y-83291600D01*
X114345400Y-83487500D02*
X114272500Y-83392900D01*
X114427300Y-83574300D02*
X114345400Y-83487500D01*
X114517500Y-83652600D02*
X114427300Y-83574300D01*
X114615000Y-83721400D02*
X114517500Y-83652600D01*
X114718900Y-83780200D02*
X114615000Y-83721400D01*
X114828100Y-83828400D02*
X114718900Y-83780200D01*
X114941600Y-83865500D02*
X114828100Y-83828400D01*
X115058200Y-83891100D02*
X114941600Y-83865500D01*
X115176800Y-83904900D02*
X115058200Y-83891100D01*
X115276000Y-83907400D02*
X115176800Y-83904900D01*
X115395100Y-83899500D02*
X115276000Y-83907400D01*
X115512800Y-83879700D02*
X115395100Y-83899500D01*
X115628000Y-83848400D02*
X115512800Y-83879700D01*
X115739500Y-83805700D02*
X115628000Y-83848400D01*
X115846200Y-83752100D02*
X115739500Y-83805700D01*
X115947000Y-83688200D02*
X115846200Y-83752100D01*
X116041000Y-83614600D02*
X115947000Y-83688200D01*
X116127200Y-83531900D02*
X116041000Y-83614600D01*
X116204700Y-83441100D02*
X116127200Y-83531900D01*
X116272800Y-83343000D02*
X116204700Y-83441100D01*
X116330700Y-83238700D02*
X116272800Y-83343000D01*
X116378000Y-83129100D02*
X116330700Y-83238700D01*
X116414200Y-83015300D02*
X116378000Y-83129100D01*
X116438800Y-82898500D02*
X116414200Y-83015300D01*
X116451700Y-82779800D02*
X116438800Y-82898500D01*
X116452700Y-158740400D02*
X116451700Y-158859800D01*
X116451700Y-158720200D02*
X116452700Y-158740400D01*
X116438800Y-158601600D02*
X116451700Y-158720200D01*
X116414200Y-158484700D02*
X116438800Y-158601600D01*
X116378000Y-158371000D02*
X116414200Y-158484700D01*
X116330700Y-158261300D02*
X116378000Y-158371000D01*
X116272800Y-158157000D02*
X116330700Y-158261300D01*
X116204700Y-158058900D02*
X116272800Y-158157000D01*
X116127200Y-157968100D02*
X116204700Y-158058900D01*
X116041000Y-157885500D02*
X116127200Y-157968100D01*
X115947000Y-157811800D02*
X116041000Y-157885500D01*
X115846200Y-157747900D02*
X115947000Y-157811800D01*
X115739500Y-157694300D02*
X115846200Y-157747900D01*
X115628000Y-157651700D02*
X115739500Y-157694300D01*
X115512800Y-157620300D02*
X115628000Y-157651700D01*
X115395100Y-157600600D02*
X115512800Y-157620300D01*
X115276000Y-157592600D02*
X115395100Y-157600600D01*
X115156600Y-157596600D02*
X115276000Y-157592600D01*
X115038300Y-157612500D02*
X115156600Y-157596600D01*
X114922100Y-157640000D02*
X115038300Y-157612500D01*
X114809300Y-157679000D02*
X114922100Y-157640000D01*
X114700900Y-157729000D02*
X114809300Y-157679000D01*
X114598000Y-157789600D02*
X114700900Y-157729000D01*
X114501700Y-157860100D02*
X114598000Y-157789600D01*
X114412800Y-157939800D02*
X114501700Y-157860100D01*
X114332400Y-158028000D02*
X114412800Y-157939800D01*
X114261100Y-158123800D02*
X114332400Y-158028000D01*
X114199700Y-158226200D02*
X114261100Y-158123800D01*
X114148800Y-158334200D02*
X114199700Y-158226200D01*
X114108900Y-158446700D02*
X114148800Y-158334200D01*
X114080400Y-158562700D02*
X114108900Y-158446700D01*
X114063600Y-158680900D02*
X114080400Y-158562700D01*
X114058700Y-158800100D02*
X114063600Y-158680900D01*
X114065600Y-158919300D02*
X114058700Y-158800100D01*
X114084400Y-159037200D02*
X114065600Y-158919300D01*
X114114900Y-159152700D02*
X114084400Y-159037200D01*
X114156700Y-159264500D02*
X114114900Y-159152700D01*
X114209400Y-159371600D02*
X114156700Y-159264500D01*
X114272500Y-159473000D02*
X114209400Y-159371600D01*
X114345400Y-159567500D02*
X114272500Y-159473000D01*
X114427300Y-159654300D02*
X114345400Y-159567500D01*
X114517500Y-159732600D02*
X114427300Y-159654300D01*
X114615000Y-159801500D02*
X114517500Y-159732600D01*
X114718900Y-159860300D02*
X114615000Y-159801500D01*
X114828100Y-159908500D02*
X114718900Y-159860300D01*
X114941600Y-159945500D02*
X114828100Y-159908500D01*
X115058200Y-159971100D02*
X114941600Y-159945500D01*
X115156600Y-159983400D02*
X115058200Y-159971100D01*
X115276000Y-159987400D02*
X115156600Y-159983400D01*
X115395100Y-159979500D02*
X115276000Y-159987400D01*
X115512800Y-159959800D02*
X115395100Y-159979500D01*
X115628000Y-159928400D02*
X115512800Y-159959800D01*
X115739500Y-159885700D02*
X115628000Y-159928400D01*
X115846200Y-159832200D02*
X115739500Y-159885700D01*
X115947000Y-159768200D02*
X115846200Y-159832200D01*
X116041000Y-159694600D02*
X115947000Y-159768200D01*
X116127200Y-159612000D02*
X116041000Y-159694600D01*
X116204700Y-159521200D02*
X116127200Y-159612000D01*
X116272800Y-159423100D02*
X116204700Y-159521200D01*
X116330700Y-159318700D02*
X116272800Y-159423100D01*
X116378000Y-159209100D02*
X116330700Y-159318700D01*
X116414200Y-159095300D02*
X116378000Y-159209100D01*
X116438800Y-158978500D02*
X116414200Y-159095300D01*
X116451700Y-158859800D02*
X116438800Y-158978500D01*
X117713400Y-88099000D02*
X107511300Y-88099000D01*
X117985300Y-88113300D02*
X117713400Y-88099000D01*
X118235300Y-88152500D02*
X117985300Y-88113300D01*
X118261000Y-88157900D02*
X118235300Y-88152500D01*
X118504900Y-88223600D02*
X118261000Y-88157900D01*
X118741200Y-88314000D02*
X118504900Y-88223600D01*
X118765200Y-88324700D02*
X118741200Y-88314000D01*
X118990100Y-88439600D02*
X118765200Y-88324700D01*
X119202500Y-88577100D02*
X118990100Y-88439600D01*
X119223800Y-88592600D02*
X119202500Y-88577100D01*
X119410000Y-88743400D02*
X119223800Y-88592600D01*
X119429600Y-88761000D02*
X119410000Y-88743400D01*
X119607900Y-88939800D02*
X119429600Y-88761000D01*
X119767400Y-89136200D02*
X119607900Y-88939800D01*
X119782900Y-89157500D02*
X119767400Y-89136200D01*
X119920400Y-89369900D02*
X119782900Y-89157500D01*
X120040900Y-89606400D02*
X119920400Y-89369900D01*
X120131900Y-89842500D02*
X120040900Y-89606400D01*
X120140000Y-89867500D02*
X120131900Y-89842500D01*
X120202100Y-90099000D02*
X120140000Y-89867500D01*
X120207500Y-90124700D02*
X120202100Y-90099000D01*
X120246800Y-90374700D02*
X120207500Y-90124700D01*
X120261000Y-90646500D02*
X120246800Y-90374700D01*
X120260900Y-108419900D02*
X120261000Y-90646500D01*
X120247800Y-108672500D02*
X120260900Y-108419900D01*
X120245000Y-108698600D02*
X120247800Y-108672500D01*
X120205200Y-108948000D02*
X120245000Y-108698600D01*
X120140000Y-109192500D02*
X120205200Y-108948000D01*
X120131900Y-109217500D02*
X120140000Y-109192500D01*
X120041100Y-109453200D02*
X120131900Y-109217500D01*
X119926600Y-109678800D02*
X120041100Y-109453200D01*
X119913600Y-109701300D02*
X119926600Y-109678800D01*
X119775300Y-109913600D02*
X119913600Y-109701300D01*
X119607900Y-110120300D02*
X119775300Y-109913600D01*
X119419800Y-110308300D02*
X119607900Y-110120300D01*
X119213100Y-110475600D02*
X119419800Y-110308300D01*
X118990100Y-110620400D02*
X119213100Y-110475600D01*
X118753100Y-110741100D02*
X118990100Y-110620400D01*
X118504800Y-110836400D02*
X118753100Y-110741100D01*
X118261000Y-110902100D02*
X118504800Y-110836400D01*
X118235300Y-110907500D02*
X118261000Y-110902100D01*
X117985300Y-110946800D02*
X118235300Y-110907500D01*
X117713500Y-110961000D02*
X117985300Y-110946800D01*
X107511300Y-110961000D02*
X117713500Y-110961000D01*
X107414000Y-110965800D02*
X107511300Y-110961000D01*
X107317900Y-110980000D02*
X107414000Y-110965800D01*
X107223600Y-111003600D02*
X107317900Y-110980000D01*
X107132200Y-111036400D02*
X107223600Y-111003600D01*
X107044300Y-111077900D02*
X107132200Y-111036400D01*
X106961000Y-111127900D02*
X107044300Y-111077900D01*
X106883000Y-111185700D02*
X106961000Y-111127900D01*
X106811000Y-111251000D02*
X106883000Y-111185700D01*
X106745700Y-111323000D02*
X106811000Y-111251000D01*
X106687900Y-111401000D02*
X106745700Y-111323000D01*
X106637900Y-111484300D02*
X106687900Y-111401000D01*
X106596400Y-111572200D02*
X106637900Y-111484300D01*
X106563600Y-111663600D02*
X106596400Y-111572200D01*
X106540000Y-111757900D02*
X106563600Y-111663600D01*
X106525800Y-111854000D02*
X106540000Y-111757900D01*
X106521000Y-111951200D02*
X106525800Y-111854000D01*
X106521000Y-112468800D02*
X106521000Y-111951200D01*
X106525800Y-112566100D02*
X106521000Y-112468800D01*
X106540000Y-112662200D02*
X106525800Y-112566100D01*
X106563600Y-112756400D02*
X106540000Y-112662200D01*
X106596400Y-112847900D02*
X106563600Y-112756400D01*
X106637900Y-112935700D02*
X106596400Y-112847900D01*
X106687900Y-113019000D02*
X106637900Y-112935700D01*
X106745700Y-113097100D02*
X106687900Y-113019000D01*
X106811000Y-113169000D02*
X106745700Y-113097100D01*
X106883000Y-113234300D02*
X106811000Y-113169000D01*
X106961000Y-113292200D02*
X106883000Y-113234300D01*
X107044300Y-113342100D02*
X106961000Y-113292200D01*
X107132200Y-113383600D02*
X107044300Y-113342100D01*
X107223600Y-113416400D02*
X107132200Y-113383600D01*
X107317900Y-113440000D02*
X107223600Y-113416400D01*
X107414000Y-113454200D02*
X107317900Y-113440000D01*
X107511300Y-113459000D02*
X107414000Y-113454200D01*
X117713400Y-113459000D02*
X107511300Y-113459000D01*
X117972500Y-113472300D02*
X117713400Y-113459000D01*
X117998300Y-113475000D02*
X117972500Y-113472300D01*
X118248000Y-113514800D02*
X117998300Y-113475000D01*
X118492500Y-113580000D02*
X118248000Y-113514800D01*
X118517500Y-113588100D02*
X118492500Y-113580000D01*
X118753200Y-113678900D02*
X118517500Y-113588100D01*
X118978800Y-113793500D02*
X118753200Y-113678900D01*
X119001500Y-113806600D02*
X118978800Y-113793500D01*
X119213200Y-113944500D02*
X119001500Y-113806600D01*
X119410000Y-114103400D02*
X119213200Y-113944500D01*
X119429600Y-114121000D02*
X119410000Y-114103400D01*
X119607900Y-114299800D02*
X119429600Y-114121000D01*
X119767400Y-114496200D02*
X119607900Y-114299800D01*
X119782900Y-114517500D02*
X119767400Y-114496200D01*
X119920200Y-114729500D02*
X119782900Y-114517500D01*
X120035300Y-114954800D02*
X119920200Y-114729500D01*
X120046000Y-114978800D02*
X120035300Y-114954800D01*
X120131900Y-115202500D02*
X120046000Y-114978800D01*
X120140000Y-115227500D02*
X120131900Y-115202500D01*
X120205100Y-115471600D02*
X120140000Y-115227500D01*
X120245000Y-115721400D02*
X120205100Y-115471600D01*
X120247800Y-115747500D02*
X120245000Y-115721400D01*
X120261000Y-116006500D02*
X120247800Y-115747500D01*
X120261000Y-133773600D02*
X120261000Y-116006500D01*
X120247800Y-134032500D02*
X120261000Y-133773600D01*
X120245000Y-134058600D02*
X120247800Y-134032500D01*
X120205200Y-134308000D02*
X120245000Y-134058600D01*
X120140000Y-134552500D02*
X120205200Y-134308000D01*
X120131900Y-134577500D02*
X120140000Y-134552500D01*
X120041100Y-134813200D02*
X120131900Y-134577500D01*
X119926600Y-135038800D02*
X120041100Y-134813200D01*
X119913600Y-135061300D02*
X119926600Y-135038800D01*
X119775300Y-135273600D02*
X119913600Y-135061300D01*
X119607900Y-135480300D02*
X119775300Y-135273600D01*
X119419800Y-135668300D02*
X119607900Y-135480300D01*
X119213100Y-135835600D02*
X119419800Y-135668300D01*
X118990100Y-135980400D02*
X119213100Y-135835600D01*
X118753100Y-136101100D02*
X118990100Y-135980400D01*
X118504800Y-136196400D02*
X118753100Y-136101100D01*
X118261000Y-136262100D02*
X118504800Y-136196400D01*
X118235300Y-136267600D02*
X118261000Y-136262100D01*
X117985300Y-136306800D02*
X118235300Y-136267600D01*
X117713500Y-136321000D02*
X117985300Y-136306800D01*
X107511300Y-136321000D02*
X117713500Y-136321000D01*
X107414000Y-136325800D02*
X107511300Y-136321000D01*
X107317900Y-136340000D02*
X107414000Y-136325800D01*
X107223600Y-136363600D02*
X107317900Y-136340000D01*
X107132200Y-136396400D02*
X107223600Y-136363600D01*
X107044300Y-136437900D02*
X107132200Y-136396400D01*
X106961000Y-136487900D02*
X107044300Y-136437900D01*
X106883000Y-136545700D02*
X106961000Y-136487900D01*
X106811000Y-136611000D02*
X106883000Y-136545700D01*
X106745700Y-136683000D02*
X106811000Y-136611000D01*
X106687900Y-136761000D02*
X106745700Y-136683000D01*
X106637900Y-136844300D02*
X106687900Y-136761000D01*
X106596400Y-136932200D02*
X106637900Y-136844300D01*
X106563600Y-137023600D02*
X106596400Y-136932200D01*
X106540000Y-137117900D02*
X106563600Y-137023600D01*
X106525800Y-137214000D02*
X106540000Y-137117900D01*
X106521000Y-137311200D02*
X106525800Y-137214000D01*
X106521000Y-137828800D02*
X106521000Y-137311200D01*
X106525800Y-137926100D02*
X106521000Y-137828800D01*
X106540000Y-138022200D02*
X106525800Y-137926100D01*
X106563600Y-138116400D02*
X106540000Y-138022200D01*
X106596400Y-138207900D02*
X106563600Y-138116400D01*
X106637900Y-138295700D02*
X106596400Y-138207900D01*
X106687900Y-138379000D02*
X106637900Y-138295700D01*
X106745700Y-138457100D02*
X106687900Y-138379000D01*
X106811000Y-138529100D02*
X106745700Y-138457100D01*
X106883000Y-138594300D02*
X106811000Y-138529100D01*
X106961000Y-138652200D02*
X106883000Y-138594300D01*
X107044300Y-138702100D02*
X106961000Y-138652200D01*
X107132200Y-138743700D02*
X107044300Y-138702100D01*
X107223600Y-138776400D02*
X107132200Y-138743700D01*
X107317900Y-138800000D02*
X107223600Y-138776400D01*
X107414000Y-138814200D02*
X107317900Y-138800000D01*
X107511300Y-138819000D02*
X107414000Y-138814200D01*
X117713400Y-138819000D02*
X107511300Y-138819000D01*
X117985300Y-138833300D02*
X117713400Y-138819000D01*
X118248000Y-138874900D02*
X117985300Y-138833300D01*
X118505400Y-138943800D02*
X118248000Y-138874900D01*
X118753600Y-139039100D02*
X118505400Y-138943800D01*
X118978800Y-139153500D02*
X118753600Y-139039100D01*
X119001500Y-139166600D02*
X118978800Y-139153500D01*
X119202500Y-139297100D02*
X119001500Y-139166600D01*
X119223800Y-139312600D02*
X119202500Y-139297100D01*
X119419900Y-139471800D02*
X119223800Y-139312600D01*
X119599000Y-139650500D02*
X119419900Y-139471800D01*
X119616600Y-139670000D02*
X119599000Y-139650500D01*
X119775300Y-139866500D02*
X119616600Y-139670000D01*
X119920200Y-140089500D02*
X119775300Y-139866500D01*
X120041100Y-140326900D02*
X119920200Y-140089500D01*
X120131900Y-140562500D02*
X120041100Y-140326900D01*
X120140000Y-140587500D02*
X120131900Y-140562500D01*
X120205100Y-140831600D02*
X120140000Y-140587500D01*
X120245000Y-141081400D02*
X120205100Y-140831600D01*
X120247800Y-141107600D02*
X120245000Y-141081400D01*
X120260900Y-141360100D02*
X120247800Y-141107600D01*
X120261000Y-159133500D02*
X120260900Y-141360100D01*
X120247800Y-159392500D02*
X120261000Y-159133500D01*
X120245000Y-159418600D02*
X120247800Y-159392500D01*
X120205200Y-159668000D02*
X120245000Y-159418600D01*
X120140000Y-159912500D02*
X120205200Y-159668000D01*
X120131900Y-159937500D02*
X120140000Y-159912500D01*
X120041100Y-160173200D02*
X120131900Y-159937500D01*
X119926600Y-160398800D02*
X120041100Y-160173200D01*
X119913400Y-160421600D02*
X119926600Y-160398800D01*
X119782900Y-160622600D02*
X119913400Y-160421600D01*
X119767400Y-160643800D02*
X119782900Y-160622600D01*
X119608200Y-160839900D02*
X119767400Y-160643800D01*
X119429600Y-161019100D02*
X119608200Y-160839900D01*
X119410000Y-161036600D02*
X119429600Y-161019100D01*
X119213500Y-161195300D02*
X119410000Y-161036600D01*
X118990100Y-161340400D02*
X119213500Y-161195300D01*
X118753100Y-161461200D02*
X118990100Y-161340400D01*
X118517500Y-161551900D02*
X118753100Y-161461200D01*
X118492500Y-161560100D02*
X118517500Y-161551900D01*
X118248500Y-161625100D02*
X118492500Y-161560100D01*
X117998600Y-161665100D02*
X118248500Y-161625100D01*
X117972500Y-161667800D02*
X117998600Y-161665100D01*
X117719900Y-161680900D02*
X117972500Y-161667800D01*
X61846600Y-161681000D02*
X117719900Y-161680900D01*
X61587500Y-161667800D02*
X61846600Y-161681000D01*
X61561400Y-161665100D02*
X61587500Y-161667800D01*
X61312000Y-161625200D02*
X61561400Y-161665100D01*
X61067500Y-161560100D02*
X61312000Y-161625200D01*
X61042500Y-161552000D02*
X61067500Y-161560100D01*
X60806800Y-161461100D02*
X61042500Y-161552000D01*
X60581200Y-161346600D02*
X60806800Y-161461100D01*
X60558500Y-161333400D02*
X60581200Y-161346600D01*
X60357500Y-161202900D02*
X60558500Y-161333400D01*
X60336200Y-161187500D02*
X60357500Y-161202900D01*
X60140100Y-161028300D02*
X60336200Y-161187500D01*
X59961000Y-160849600D02*
X60140100Y-161028300D01*
X59943400Y-160830100D02*
X59961000Y-160849600D01*
X59784700Y-160633600D02*
X59943400Y-160830100D01*
X59639600Y-160410100D02*
X59784700Y-160633600D01*
X59518900Y-160173100D02*
X59639600Y-160410100D01*
X59428100Y-159937500D02*
X59518900Y-160173100D01*
X59420000Y-159912600D02*
X59428100Y-159937500D01*
X59354900Y-159668500D02*
X59420000Y-159912600D01*
X59315000Y-159418600D02*
X59354900Y-159668500D01*
X59312200Y-159392500D02*
X59315000Y-159418600D01*
X59299300Y-159146500D02*
X59312200Y-159392500D01*
X59299100Y-141360100D02*
X59299300Y-159146500D01*
X59313300Y-141094200D02*
X59299100Y-141360100D01*
X59352500Y-140844700D02*
X59313300Y-141094200D01*
X59357900Y-140819000D02*
X59352500Y-140844700D01*
X59420000Y-140587500D02*
X59357900Y-140819000D01*
X59428100Y-140562600D02*
X59420000Y-140587500D01*
X59518900Y-140326900D02*
X59428100Y-140562600D01*
X59633400Y-140101300D02*
X59518900Y-140326900D01*
X59646600Y-140078500D02*
X59633400Y-140101300D01*
X59784400Y-139866900D02*
X59646600Y-140078500D01*
X59951800Y-139660200D02*
X59784400Y-139866900D01*
X60140200Y-139471800D02*
X59951800Y-139660200D01*
X60336200Y-139312600D02*
X60140200Y-139471800D01*
X60357500Y-139297200D02*
X60336200Y-139312600D01*
X60558500Y-139166600D02*
X60357500Y-139297200D01*
X60581200Y-139153500D02*
X60558500Y-139166600D01*
X60806400Y-139039100D02*
X60581200Y-139153500D01*
X61042500Y-138948100D02*
X60806400Y-139039100D01*
X61067500Y-138940000D02*
X61042500Y-138948100D01*
X61311500Y-138874900D02*
X61067500Y-138940000D01*
X61574700Y-138833300D02*
X61311500Y-138874900D01*
X61846600Y-138819000D02*
X61574700Y-138833300D01*
X72048800Y-138819000D02*
X61846600Y-138819000D01*
X72146000Y-138814200D02*
X72048800Y-138819000D01*
X72242100Y-138800000D02*
X72146000Y-138814200D01*
X72336400Y-138776400D02*
X72242100Y-138800000D01*
X72427900Y-138743600D02*
X72336400Y-138776400D01*
X72515700Y-138702100D02*
X72427900Y-138743600D01*
X72599000Y-138652200D02*
X72515700Y-138702100D01*
X72677000Y-138594300D02*
X72599000Y-138652200D01*
X72749000Y-138529000D02*
X72677000Y-138594300D01*
X72814300Y-138457000D02*
X72749000Y-138529000D01*
X72872100Y-138379000D02*
X72814300Y-138457000D01*
X72922100Y-138295700D02*
X72872100Y-138379000D01*
X72963600Y-138207900D02*
X72922100Y-138295700D01*
X72996400Y-138116400D02*
X72963600Y-138207900D01*
X73020000Y-138022100D02*
X72996400Y-138116400D01*
X73034200Y-137926000D02*
X73020000Y-138022100D01*
X73039000Y-137828800D02*
X73034200Y-137926000D01*
X73039000Y-137311300D02*
X73039000Y-137828800D01*
X73034200Y-137214000D02*
X73039000Y-137311300D01*
X73020000Y-137117900D02*
X73034200Y-137214000D01*
X72996400Y-137023600D02*
X73020000Y-137117900D01*
X72963600Y-136932200D02*
X72996400Y-137023600D01*
X72922100Y-136844300D02*
X72963600Y-136932200D01*
X72872100Y-136761000D02*
X72922100Y-136844300D01*
X72814300Y-136683000D02*
X72872100Y-136761000D01*
X72749000Y-136611000D02*
X72814300Y-136683000D01*
X72677000Y-136545700D02*
X72749000Y-136611000D01*
X72599000Y-136487900D02*
X72677000Y-136545700D01*
X72515700Y-136437900D02*
X72599000Y-136487900D01*
X72427900Y-136396400D02*
X72515700Y-136437900D01*
X72336400Y-136363700D02*
X72427900Y-136396400D01*
X72242100Y-136340100D02*
X72336400Y-136363700D01*
X72146000Y-136325800D02*
X72242100Y-136340100D01*
X72048800Y-136321000D02*
X72146000Y-136325800D01*
X61846600Y-136321000D02*
X72048800Y-136321000D01*
X61574700Y-136306800D02*
X61846600Y-136321000D01*
X61324700Y-136267600D02*
X61574700Y-136306800D01*
X61299000Y-136262100D02*
X61324700Y-136267600D01*
X61055100Y-136196400D02*
X61299000Y-136262100D01*
X60806800Y-136101100D02*
X61055100Y-136196400D01*
X60569900Y-135980400D02*
X60806800Y-136101100D01*
X60346800Y-135835600D02*
X60569900Y-135980400D01*
X60140100Y-135668300D02*
X60346800Y-135835600D01*
X59952100Y-135480200D02*
X60140100Y-135668300D01*
X59784700Y-135273600D02*
X59952100Y-135480200D01*
X59646500Y-135061300D02*
X59784700Y-135273600D01*
X59633500Y-135038800D02*
X59646500Y-135061300D01*
X59518900Y-134813100D02*
X59633500Y-135038800D01*
X59428100Y-134577500D02*
X59518900Y-134813100D01*
X59420000Y-134552500D02*
X59428100Y-134577500D01*
X59354900Y-134308500D02*
X59420000Y-134552500D01*
X59315000Y-134058600D02*
X59354900Y-134308500D01*
X59312200Y-134032500D02*
X59315000Y-134058600D01*
X59299100Y-133779900D02*
X59312200Y-134032500D01*
X59299000Y-116006600D02*
X59299100Y-133779900D01*
X59313300Y-115734200D02*
X59299000Y-116006600D01*
X59352500Y-115484700D02*
X59313300Y-115734200D01*
X59357900Y-115459300D02*
X59352500Y-115484700D01*
X59420000Y-115227500D02*
X59357900Y-115459300D01*
X59428100Y-115202500D02*
X59420000Y-115227500D01*
X59518900Y-114966900D02*
X59428100Y-115202500D01*
X59633400Y-114741300D02*
X59518900Y-114966900D01*
X59646600Y-114718500D02*
X59633400Y-114741300D01*
X59784400Y-114506900D02*
X59646600Y-114718500D01*
X59943400Y-114310000D02*
X59784400Y-114506900D01*
X59961000Y-114290500D02*
X59943400Y-114310000D01*
X60139800Y-114112100D02*
X59961000Y-114290500D01*
X60336200Y-113952600D02*
X60139800Y-114112100D01*
X60357500Y-113937200D02*
X60336200Y-113952600D01*
X60569500Y-113799900D02*
X60357500Y-113937200D01*
X60794700Y-113684700D02*
X60569500Y-113799900D01*
X60818800Y-113674000D02*
X60794700Y-113684700D01*
X61054700Y-113583800D02*
X60818800Y-113674000D01*
X61299000Y-113518000D02*
X61054700Y-113583800D01*
X61324700Y-113512500D02*
X61299000Y-113518000D01*
X61574200Y-113473300D02*
X61324700Y-113512500D01*
X61846600Y-113459000D02*
X61574200Y-113473300D01*
X72048800Y-113459000D02*
X61846600Y-113459000D01*
X72146000Y-113454200D02*
X72048800Y-113459000D01*
X72242100Y-113440000D02*
X72146000Y-113454200D01*
X72336400Y-113416400D02*
X72242100Y-113440000D01*
X72427900Y-113383600D02*
X72336400Y-113416400D01*
X72515700Y-113342100D02*
X72427900Y-113383600D01*
X72599000Y-113292100D02*
X72515700Y-113342100D01*
X72677000Y-113234300D02*
X72599000Y-113292100D01*
X72749000Y-113169000D02*
X72677000Y-113234300D01*
X72814300Y-113097000D02*
X72749000Y-113169000D01*
X72872100Y-113019000D02*
X72814300Y-113097000D01*
X72922100Y-112935700D02*
X72872100Y-113019000D01*
X72963600Y-112847900D02*
X72922100Y-112935700D01*
X72996400Y-112756400D02*
X72963600Y-112847900D01*
X73020000Y-112662100D02*
X72996400Y-112756400D01*
X73034200Y-112566000D02*
X73020000Y-112662100D01*
X73039000Y-112468800D02*
X73034200Y-112566000D01*
X73039000Y-111951300D02*
X73039000Y-112468800D01*
X73034200Y-111854000D02*
X73039000Y-111951300D01*
X73020000Y-111757900D02*
X73034200Y-111854000D01*
X72996400Y-111663600D02*
X73020000Y-111757900D01*
X72963600Y-111572200D02*
X72996400Y-111663600D01*
X72922100Y-111484300D02*
X72963600Y-111572200D01*
X72872100Y-111401000D02*
X72922100Y-111484300D01*
X72814300Y-111323000D02*
X72872100Y-111401000D01*
X72749000Y-111251000D02*
X72814300Y-111323000D01*
X72677000Y-111185700D02*
X72749000Y-111251000D01*
X72599000Y-111127900D02*
X72677000Y-111185700D01*
X72515700Y-111077900D02*
X72599000Y-111127900D01*
X72427900Y-111036400D02*
X72515700Y-111077900D01*
X72336400Y-111003600D02*
X72427900Y-111036400D01*
X72242100Y-110980000D02*
X72336400Y-111003600D01*
X72146000Y-110965800D02*
X72242100Y-110980000D01*
X72048800Y-110961000D02*
X72146000Y-110965800D01*
X61846600Y-110961000D02*
X72048800Y-110961000D01*
X61574700Y-110946800D02*
X61846600Y-110961000D01*
X61324700Y-110907500D02*
X61574700Y-110946800D01*
X61299000Y-110902100D02*
X61324700Y-110907500D01*
X61055100Y-110836400D02*
X61299000Y-110902100D01*
X60806800Y-110741100D02*
X61055100Y-110836400D01*
X60569900Y-110620400D02*
X60806800Y-110741100D01*
X60346800Y-110475600D02*
X60569900Y-110620400D01*
X60140100Y-110308200D02*
X60346800Y-110475600D01*
X59952100Y-110120200D02*
X60140100Y-110308200D01*
X59784700Y-109913600D02*
X59952100Y-110120200D01*
X59646500Y-109701300D02*
X59784700Y-109913600D01*
X59633500Y-109678800D02*
X59646500Y-109701300D01*
X59518900Y-109453100D02*
X59633500Y-109678800D01*
X59428100Y-109217500D02*
X59518900Y-109453100D01*
X59420000Y-109192500D02*
X59428100Y-109217500D01*
X59354900Y-108948500D02*
X59420000Y-109192500D01*
X59315000Y-108698600D02*
X59354900Y-108948500D01*
X59312200Y-108672500D02*
X59315000Y-108698600D01*
X59299100Y-108419900D02*
X59312200Y-108672500D01*
X59299000Y-90646600D02*
X59299100Y-108419900D01*
X59313200Y-90374700D02*
X59299000Y-90646600D01*
X59352500Y-90124700D02*
X59313200Y-90374700D01*
X59357900Y-90099000D02*
X59352500Y-90124700D01*
X59423600Y-89855100D02*
X59357900Y-90099000D01*
X59514000Y-89618800D02*
X59423600Y-89855100D01*
X59524600Y-89594800D02*
X59514000Y-89618800D01*
X59639600Y-89369900D02*
X59524600Y-89594800D01*
X59777100Y-89157500D02*
X59639600Y-89369900D01*
X59792600Y-89136200D02*
X59777100Y-89157500D01*
X59943400Y-88950000D02*
X59792600Y-89136200D01*
X59961000Y-88930500D02*
X59943400Y-88950000D01*
X60139800Y-88752100D02*
X59961000Y-88930500D01*
X60336200Y-88592600D02*
X60139800Y-88752100D01*
X60357500Y-88577100D02*
X60336200Y-88592600D01*
X60569500Y-88439900D02*
X60357500Y-88577100D01*
X60794700Y-88324700D02*
X60569500Y-88439900D01*
X60818800Y-88314000D02*
X60794700Y-88324700D01*
X61054700Y-88223800D02*
X60818800Y-88314000D01*
X61299000Y-88157900D02*
X61054700Y-88223800D01*
X61324700Y-88152500D02*
X61299000Y-88157900D01*
X61574200Y-88113300D02*
X61324700Y-88152500D01*
X61846600Y-88099000D02*
X61574200Y-88113300D01*
X72048800Y-88099000D02*
X61846600Y-88099000D01*
X72146000Y-88094200D02*
X72048800Y-88099000D01*
X72242100Y-88080000D02*
X72146000Y-88094200D01*
X72336400Y-88056400D02*
X72242100Y-88080000D01*
X72427900Y-88023600D02*
X72336400Y-88056400D01*
X72515700Y-87982100D02*
X72427900Y-88023600D01*
X72599000Y-87932100D02*
X72515700Y-87982100D01*
X72677000Y-87874300D02*
X72599000Y-87932100D01*
X72749000Y-87809000D02*
X72677000Y-87874300D01*
X72814300Y-87737000D02*
X72749000Y-87809000D01*
X72872100Y-87659000D02*
X72814300Y-87737000D01*
X72922100Y-87575700D02*
X72872100Y-87659000D01*
X72963600Y-87487900D02*
X72922100Y-87575700D01*
X72996400Y-87396400D02*
X72963600Y-87487900D01*
X73020000Y-87302100D02*
X72996400Y-87396400D01*
X73034200Y-87206000D02*
X73020000Y-87302100D01*
X73039000Y-87108800D02*
X73034200Y-87206000D01*
X73039000Y-86591200D02*
X73039000Y-87108800D01*
X73034200Y-86494000D02*
X73039000Y-86591200D01*
X73020000Y-86397900D02*
X73034200Y-86494000D01*
X72996400Y-86303600D02*
X73020000Y-86397900D01*
X72963600Y-86212100D02*
X72996400Y-86303600D01*
X72922100Y-86124300D02*
X72963600Y-86212100D01*
X72872100Y-86041000D02*
X72922100Y-86124300D01*
X72814300Y-85963000D02*
X72872100Y-86041000D01*
X72749000Y-85891000D02*
X72814300Y-85963000D01*
X72677000Y-85825700D02*
X72749000Y-85891000D01*
X72599000Y-85767900D02*
X72677000Y-85825700D01*
X72515700Y-85717900D02*
X72599000Y-85767900D01*
X72427900Y-85676400D02*
X72515700Y-85717900D01*
X72336400Y-85643600D02*
X72427900Y-85676400D01*
X72242100Y-85620000D02*
X72336400Y-85643600D01*
X72146000Y-85605800D02*
X72242100Y-85620000D01*
X72048800Y-85601000D02*
X72146000Y-85605800D01*
X61846600Y-85601000D02*
X72048800Y-85601000D01*
X61574700Y-85586800D02*
X61846600Y-85601000D01*
X61324700Y-85547500D02*
X61574700Y-85586800D01*
X61299000Y-85542100D02*
X61324700Y-85547500D01*
X61055100Y-85476400D02*
X61299000Y-85542100D01*
X60806800Y-85381100D02*
X61055100Y-85476400D01*
X60569900Y-85260400D02*
X60806800Y-85381100D01*
X60346800Y-85115600D02*
X60569900Y-85260400D01*
X60140100Y-84948200D02*
X60346800Y-85115600D01*
X59952100Y-84760200D02*
X60140100Y-84948200D01*
X59784700Y-84553500D02*
X59952100Y-84760200D01*
X59639800Y-84330500D02*
X59784700Y-84553500D01*
X59518900Y-84093100D02*
X59639800Y-84330500D01*
X59428100Y-83857500D02*
X59518900Y-84093100D01*
X59420000Y-83832500D02*
X59428100Y-83857500D01*
X59354900Y-83588500D02*
X59420000Y-83832500D01*
X59315000Y-83338600D02*
X59354900Y-83588500D01*
X59312200Y-83312500D02*
X59315000Y-83338600D01*
X59299100Y-83059900D02*
X59312200Y-83312500D01*
X59299000Y-65286600D02*
X59299100Y-83059900D01*
X59312200Y-65027500D02*
X59299000Y-65286600D01*
X59315000Y-65001400D02*
X59312200Y-65027500D01*
X59354800Y-64752000D02*
X59315000Y-65001400D01*
X59420000Y-64507500D02*
X59354800Y-64752000D01*
X59428100Y-64482500D02*
X59420000Y-64507500D01*
X59518900Y-64246800D02*
X59428100Y-64482500D01*
X59633400Y-64021200D02*
X59518900Y-64246800D01*
X59646600Y-63998500D02*
X59633400Y-64021200D01*
X59777100Y-63797500D02*
X59646600Y-63998500D01*
X59792600Y-63776200D02*
X59777100Y-63797500D01*
X59951800Y-63580100D02*
X59792600Y-63776200D01*
X60130400Y-63401000D02*
X59951800Y-63580100D01*
X60150000Y-63383400D02*
X60130400Y-63401000D01*
X60346500Y-63224700D02*
X60150000Y-63383400D01*
X60569900Y-63079600D02*
X60346500Y-63224700D01*
X60806900Y-62958900D02*
X60569900Y-63079600D01*
X61042500Y-62868100D02*
X60806900Y-62958900D01*
X61067500Y-62860000D02*
X61042500Y-62868100D01*
X61311500Y-62794900D02*
X61067500Y-62860000D01*
X61561400Y-62755000D02*
X61311500Y-62794900D01*
X61587500Y-62752200D02*
X61561400Y-62755000D01*
X61840100Y-62739100D02*
X61587500Y-62752200D01*
X117713400Y-62739000D02*
X61840100Y-62739100D01*
X117985300Y-62753200D02*
X117713400Y-62739000D01*
X118248500Y-62794900D02*
X117985300Y-62753200D01*
X118505400Y-62863800D02*
X118248500Y-62794900D01*
X118741200Y-62954000D02*
X118505400Y-62863800D01*
X118765200Y-62964600D02*
X118741200Y-62954000D01*
X118978800Y-63073400D02*
X118765200Y-62964600D01*
X119001500Y-63086600D02*
X118978800Y-63073400D01*
X119213200Y-63224400D02*
X119001500Y-63086600D01*
X119410000Y-63383400D02*
X119213200Y-63224400D01*
X119429600Y-63401000D02*
X119410000Y-63383400D01*
X119607900Y-63579800D02*
X119429600Y-63401000D01*
X119775600Y-63786900D02*
X119607900Y-63579800D01*
X119913400Y-63998500D02*
X119775600Y-63786900D01*
X119926500Y-64021200D02*
X119913400Y-63998500D01*
X120040900Y-64246400D02*
X119926500Y-64021200D01*
X120131900Y-64482500D02*
X120040900Y-64246400D01*
X120140000Y-64507500D02*
X120131900Y-64482500D01*
X120205100Y-64751500D02*
X120140000Y-64507500D01*
X120245000Y-65001400D02*
X120205100Y-64751500D01*
X120247800Y-65027500D02*
X120245000Y-65001400D01*
X120261000Y-65286500D02*
X120247800Y-65027500D01*
X120261000Y-83053600D02*
X120261000Y-65286500D01*
X120246800Y-83325300D02*
X120261000Y-83053600D01*
X120205200Y-83588000D02*
X120246800Y-83325300D01*
X120136400Y-83844900D02*
X120205200Y-83588000D01*
X120040900Y-84093600D02*
X120136400Y-83844900D01*
X119926600Y-84318800D02*
X120040900Y-84093600D01*
X119913400Y-84341500D02*
X119926600Y-84318800D01*
X119775600Y-84553200D02*
X119913400Y-84341500D01*
X119616600Y-84750000D02*
X119775600Y-84553200D01*
X119599000Y-84769600D02*
X119616600Y-84750000D01*
X119420200Y-84947900D02*
X119599000Y-84769600D01*
X119213500Y-85115300D02*
X119420200Y-84947900D01*
X118990100Y-85260400D02*
X119213500Y-85115300D01*
X118765300Y-85375300D02*
X118990100Y-85260400D01*
X118741200Y-85386000D02*
X118765300Y-85375300D01*
X118505300Y-85476200D02*
X118741200Y-85386000D01*
X118261000Y-85542100D02*
X118505300Y-85476200D01*
X118235300Y-85547500D02*
X118261000Y-85542100D01*
X117985800Y-85586700D02*
X118235300Y-85547500D01*
X117713500Y-85601000D02*
X117985800Y-85586700D01*
X107511300Y-85601000D02*
X117713500Y-85601000D01*
X107414000Y-85605800D02*
X107511300Y-85601000D01*
X107317900Y-85620000D02*
X107414000Y-85605800D01*
X107223600Y-85643600D02*
X107317900Y-85620000D01*
X107132200Y-85676400D02*
X107223600Y-85643600D01*
X107044300Y-85717900D02*
X107132200Y-85676400D01*
X106961000Y-85767900D02*
X107044300Y-85717900D01*
X106883000Y-85825700D02*
X106961000Y-85767900D01*
X106811000Y-85891000D02*
X106883000Y-85825700D01*
X106745700Y-85963000D02*
X106811000Y-85891000D01*
X106687900Y-86041000D02*
X106745700Y-85963000D01*
X106637900Y-86124300D02*
X106687900Y-86041000D01*
X106596400Y-86212100D02*
X106637900Y-86124300D01*
X106563600Y-86303600D02*
X106596400Y-86212100D01*
X106540000Y-86397900D02*
X106563600Y-86303600D01*
X106525800Y-86494000D02*
X106540000Y-86397900D01*
X106521000Y-86591200D02*
X106525800Y-86494000D01*
X106521000Y-87108800D02*
X106521000Y-86591200D01*
X106525800Y-87206000D02*
X106521000Y-87108800D01*
X106540000Y-87302100D02*
X106525800Y-87206000D01*
X106563600Y-87396400D02*
X106540000Y-87302100D01*
X106596400Y-87487900D02*
X106563600Y-87396400D01*
X106637900Y-87575700D02*
X106596400Y-87487900D01*
X106687900Y-87659000D02*
X106637900Y-87575700D01*
X106745700Y-87737100D02*
X106687900Y-87659000D01*
X106811000Y-87809000D02*
X106745700Y-87737100D01*
X106883000Y-87874300D02*
X106811000Y-87809000D01*
X106961000Y-87932200D02*
X106883000Y-87874300D01*
X107044300Y-87982100D02*
X106961000Y-87932200D01*
X107132200Y-88023600D02*
X107044300Y-87982100D01*
X107223600Y-88056400D02*
X107132200Y-88023600D01*
X107317900Y-88080000D02*
X107223600Y-88056400D01*
X107414000Y-88094200D02*
X107317900Y-88080000D01*
X107511300Y-88099000D02*
X107414000Y-88094200D01*
M02*
